<svg width="238" height="218" viewBox="0 0 238 218" fill="none" xmlns="http://www.w3.org/2000/svg">
<g filter="url(#filter0_d_22_5)">
<path fill-rule="evenodd" clip-rule="evenodd" d="M175.755 195.476C159.01 204.13 139.64 209.073 119 209.073C55.4873 209.073 4 162.27 4 104.536C4 46.8026 55.4873 0 119 0C182.513 0 234 46.8026 234 104.536C234 128.254 225.311 150.126 210.669 167.667L222.094 193.631C226.34 203.282 216.666 213.185 207.055 209.025L175.755 195.476ZM101.75 104.536C101.75 94.9141 109.473 87.1137 119 87.1137C128.527 87.1137 136.25 94.9141 136.25 104.536C136.25 114.159 128.527 121.959 119 121.959C109.473 121.959 101.75 114.159 101.75 104.536ZM61.5 87.1137C51.9731 87.1137 44.25 94.9141 44.25 104.536C44.25 114.159 51.9731 121.959 61.5 121.959C71.0269 121.959 78.75 114.159 78.75 104.536C78.75 94.9141 71.0269 87.1137 61.5 87.1137ZM159.25 104.536C159.25 94.9141 166.973 87.1137 176.5 87.1137C186.027 87.1137 193.75 94.9141 193.75 104.536C193.75 114.159 186.027 121.959 176.5 121.959C166.973 121.959 159.25 114.159 159.25 104.536Z" fill="#FF5C00"/>
<path d="M175.954 195.017L175.736 194.923L175.526 195.032C158.851 203.649 139.56 208.573 119 208.573C55.7174 208.573 4.5 161.95 4.5 104.536C4.5 47.1225 55.7174 0.5 119 0.5C182.283 0.5 233.5 47.1225 233.5 104.536C233.5 128.128 224.858 149.889 210.285 167.347L210.086 167.585L210.211 167.869L221.636 193.833C225.706 203.081 216.433 212.539 207.254 208.566L175.954 195.017ZM119 86.6137C109.192 86.6137 101.25 94.6427 101.25 104.536C101.25 114.43 109.192 122.459 119 122.459C128.808 122.459 136.75 114.43 136.75 104.536C136.75 94.6427 128.808 86.6137 119 86.6137ZM61.5 86.6137C51.6923 86.6137 43.75 94.6427 43.75 104.536C43.75 114.43 51.6923 122.459 61.5 122.459C71.3077 122.459 79.25 114.43 79.25 104.536C79.25 94.6427 71.3077 86.6137 61.5 86.6137ZM176.5 86.6137C166.692 86.6137 158.75 94.6427 158.75 104.536C158.75 114.43 166.692 122.459 176.5 122.459C186.308 122.459 194.25 114.43 194.25 104.536C194.25 94.6427 186.308 86.6137 176.5 86.6137Z" stroke="black"/>
</g>
<defs>
<filter id="filter0_d_22_5" x="0" y="0" width="238" height="218" filterUnits="userSpaceOnUse" color-interpolation-filters="sRGB">
<feFlood flood-opacity="0" result="BackgroundImageFix"/>
<feColorMatrix in="SourceAlpha" type="matrix" values="0 0 0 0 0 0 0 0 0 0 0 0 0 0 0 0 0 0 127 0" result="hardAlpha"/>
<feOffset dy="4"/>
<feGaussianBlur stdDeviation="2"/>
<feComposite in2="hardAlpha" operator="out"/>
<feColorMatrix type="matrix" values="0 0 0 0 0 0 0 0 0 0 0 0 0 0 0 0 0 0 0.25 0"/>
<feBlend mode="normal" in2="BackgroundImageFix" result="effect1_dropShadow_22_5"/>
<feBlend mode="normal" in="SourceGraphic" in2="effect1_dropShadow_22_5" result="shape"/>
</filter>
</defs>
</svg>
