<svg width="168" height="128" viewBox="0 0 168 128" fill="none" xmlns="http://www.w3.org/2000/svg">
<g filter="url(#filter0_f_20_5)">
<path d="M159.867 91.1349L94.6042 9.68243C93.19 7.88186 91.5074 6.45271 89.6536 5.47742C87.7998 4.50213 85.8114 4 83.8031 4C81.7949 4 79.8065 4.50213 77.9527 5.47742C76.0988 6.45271 74.4163 7.88186 73.0021 9.68243L8.49991 91.1349C7.07404 92.9207 5.9423 95.0454 5.16996 97.3864C4.39763 99.7274 4 102.238 4 104.774C4 107.31 4.39763 109.821 5.16996 112.162C5.9423 114.503 7.07404 116.628 8.49991 118.414C11.3502 121.992 15.2059 124 19.2249 124C23.2439 124 27.0996 121.992 29.9499 118.414L83.8031 50.4086L137.656 118.414C140.49 121.963 144.314 123.964 148.305 123.985C150.307 123.999 152.292 123.515 154.146 122.559C155.999 121.603 157.685 120.194 159.106 118.414C160.583 116.692 161.775 114.618 162.613 112.311C163.452 110.005 163.92 107.511 163.991 104.975C164.061 102.438 163.733 99.9091 163.026 97.5336C162.318 95.1582 161.244 92.9834 159.867 91.1349Z" fill="#FF5C00"/>
<path d="M94.214 9.99507L94.211 9.99128C92.8362 8.24085 91.2068 6.8595 89.4208 5.91992C87.6356 4.98072 85.7268 4.5 83.8031 4.5C81.8795 4.5 79.9707 4.98072 78.1855 5.91992C76.3995 6.8595 74.7701 8.24085 73.3953 9.99127L73.3941 9.99284L8.89189 91.4453L8.89065 91.4468C7.50462 93.1828 6.4 95.254 5.64479 97.543C4.88961 99.832 4.5 102.29 4.5 104.774C4.5 107.259 4.88961 109.717 5.64479 112.006C6.4 114.295 7.50462 116.366 8.89065 118.102L8.89099 118.102C11.6612 121.58 15.3805 123.5 19.2249 123.5C23.0692 123.5 26.7883 121.58 29.5585 118.103C29.5586 118.102 29.5587 118.102 29.5588 118.102L83.4112 50.0982L83.8031 49.6032L84.1951 50.0982L138.047 118.102L94.214 9.99507ZM94.214 9.99507L159.471 91.4408C160.809 93.2373 161.855 95.356 162.546 97.6764C163.239 99.9998 163.56 102.476 163.491 104.961C163.421 107.445 162.963 109.886 162.144 112.141C161.324 114.395 160.161 116.416 158.727 118.088L158.721 118.095L158.716 118.102C157.334 119.832 155.702 121.194 153.916 122.114C152.132 123.035 150.227 123.499 148.309 123.485H148.308M94.214 9.99507L148.308 123.485M148.308 123.485C144.491 123.464 140.802 121.552 138.048 118.103L148.308 123.485Z" stroke="black"/>
</g>
<defs>
<filter id="filter0_f_20_5" x="0" y="0" width="168" height="128" filterUnits="userSpaceOnUse" color-interpolation-filters="sRGB">
<feFlood flood-opacity="0" result="BackgroundImageFix"/>
<feBlend mode="normal" in="SourceGraphic" in2="BackgroundImageFix" result="shape"/>
<feGaussianBlur stdDeviation="2" result="effect1_foregroundBlur_20_5"/>
</filter>
</defs>
</svg>
