<svg width="168" height="128" viewBox="0 0 168 128" fill="none" xmlns="http://www.w3.org/2000/svg">
<g filter="url(#filter0_f_20_4)">
<path d="M159.51 9.58626C156.667 6.00829 152.82 4 148.81 4C144.8 4 140.953 6.00829 138.109 9.58626L83.6205 77.5914L29.8905 9.58626C27.0468 6.00829 23.1999 4 19.1901 4C15.1803 4 11.3334 6.00829 8.48962 9.58626C7.06701 11.3721 5.93785 13.4968 5.16729 15.8378C4.39672 18.1788 4 20.6897 4 23.2257C4 25.7617 4.39672 28.2726 5.16729 30.6136C5.93785 32.9546 7.06701 35.0793 8.48962 36.8651L72.8442 118.318C74.2552 120.118 75.9339 121.547 77.7834 122.523C79.633 123.498 81.6169 124 83.6205 124C85.6242 124 87.6081 123.498 89.4576 122.523C91.3072 121.547 92.9859 120.118 94.3969 118.318L159.51 36.8651C160.933 35.0793 162.062 32.9546 162.833 30.6136C163.603 28.2726 164 25.7617 164 23.2257C164 20.6897 163.603 18.1788 162.833 15.8378C162.062 13.4968 160.933 11.3721 159.51 9.58626Z" fill="#FF5C00"/>
<path d="M159.119 9.8978L159.119 9.89737C156.355 6.41988 152.645 4.5 148.81 4.5C144.975 4.5 141.265 6.41988 138.501 9.89737L138.5 9.89891L84.0107 77.904L83.6178 78.3944L83.2282 77.9013L29.4991 9.89737C29.4989 9.89714 29.4988 9.89691 29.4986 9.89669C26.7347 6.41963 23.0246 4.5 19.1901 4.5C15.3553 4.5 11.645 6.41988 8.88104 9.89737L8.8807 9.8978C7.49785 11.6337 6.39573 13.705 5.64222 15.9941C4.88874 18.2832 4.5 20.7412 4.5 23.2257C4.5 25.7102 4.88874 28.1682 5.64222 30.4573C6.39573 32.7464 7.49785 34.8177 8.8807 36.5536L8.88194 36.5552L73.2365 118.008L73.2377 118.009C74.6094 119.76 76.235 121.141 78.0167 122.08C79.7976 123.019 81.7017 123.5 83.6205 123.5C85.5394 123.5 87.4435 123.019 89.2244 122.08C91.0061 121.141 92.6317 119.76 94.0033 118.009L94.0063 118.005L159.119 36.5536V9.8978ZM159.119 9.8978C160.502 11.6337 161.604 13.705 162.358 15.9941C163.111 18.2832 163.5 20.7412 163.5 23.2257C163.5 25.7102 163.111 28.1682 162.358 30.4573C161.604 32.7461 160.502 34.8171 159.12 36.5529L159.119 9.8978ZM94.3969 118.318L159.51 36.8651L94.3969 118.318ZM94.3969 118.318C92.9859 120.118 91.3072 121.547 89.4576 122.523C87.6081 123.498 85.6242 124 83.6205 124C81.6169 124 79.633 123.498 77.7834 122.523C75.9339 121.547 74.2552 120.118 72.8442 118.318M94.3969 118.318H72.8442M72.8442 118.318L8.48962 36.8651L72.8442 118.318Z" stroke="black"/>
</g>
<defs>
<filter id="filter0_f_20_4" x="0" y="0" width="168" height="128" filterUnits="userSpaceOnUse" color-interpolation-filters="sRGB">
<feFlood flood-opacity="0" result="BackgroundImageFix"/>
<feBlend mode="normal" in="SourceGraphic" in2="BackgroundImageFix" result="shape"/>
<feGaussianBlur stdDeviation="2" result="effect1_foregroundBlur_20_4"/>
</filter>
</defs>
</svg>
