<svg width="207" height="203" viewBox="0 0 207 203" fill="none" xmlns="http://www.w3.org/2000/svg">
<g filter="url(#filter0_d_22_9)">
<path d="M28.2623 73.1982C28.2623 47.3255 44.1284 26.3514 63.7001 26.3514C83.2718 26.3514 99.1378 47.3255 99.1378 73.1982C99.1378 99.071 83.2718 120.045 63.7001 120.045C44.1284 120.045 28.2623 99.071 28.2623 73.1982Z" fill="#FF5C00" fill-opacity="0.6" shape-rendering="crispEdges"/>
<path d="M63.7001 138.784C42.9009 138.784 24.1942 145.89 11.2288 157.208C-5.10315 171.466 8.69064 195 28.2623 195H99.1378C118.71 195 132.503 171.466 116.171 157.208C103.206 145.89 84.4993 138.784 63.7001 138.784Z" fill="#FF5C00" fill-opacity="0.6" shape-rendering="crispEdges"/>
<path d="M143.121 168.648C143.032 167.697 142.909 166.738 142.749 165.774C141.165 156.213 136.401 148.463 129.923 142.808C121.073 135.082 110.425 129.024 98.6484 124.989C110.836 117.138 126.375 112.432 143.3 112.432C164.099 112.432 182.806 119.538 195.771 130.857C212.103 145.114 198.309 168.648 178.738 168.648H143.121Z" fill="#FF5C00" fill-opacity="0.6" shape-rendering="crispEdges"/>
<path d="M117.812 46.0369C117.812 20.6114 133.404 0 152.637 0C171.871 0 187.463 20.6114 187.463 46.0369C187.463 71.4624 171.871 92.0738 152.637 92.0738C133.404 92.0738 117.812 71.4624 117.812 46.0369Z" fill="#FF5C00" fill-opacity="0.6" shape-rendering="crispEdges"/>
<path d="M28.7623 73.1982C28.7623 60.3606 32.6992 48.7572 39.0406 40.3742C45.3818 31.9915 54.105 26.8514 63.7001 26.8514C73.2951 26.8514 82.0184 31.9915 88.3596 40.3742C94.701 48.7572 98.6378 60.3606 98.6378 73.1982C98.6378 86.0359 94.701 97.6393 88.3596 106.022C82.0184 114.405 73.2951 119.545 63.7001 119.545C54.105 119.545 45.3818 114.405 39.0406 106.022C32.6992 97.6393 28.7623 86.0359 28.7623 73.1982ZM11.5576 157.585C24.4244 146.353 43.0113 139.284 63.7001 139.284C84.3888 139.284 102.976 146.353 115.842 157.585C123.818 164.548 124.434 173.742 120.672 181.226C116.897 188.735 108.721 194.5 99.1378 194.5H28.2623C18.679 194.5 10.5032 188.735 6.72844 181.226C2.96611 173.742 3.5819 164.548 11.5576 157.585ZM178.738 168.148H143.574C143.489 167.334 143.379 166.516 143.242 165.693C141.638 156.009 136.811 148.157 130.252 142.431C121.596 134.875 111.235 128.909 99.7901 124.857C111.759 117.392 126.868 112.932 143.3 112.932C163.989 112.932 182.576 120.001 195.442 131.234C203.418 138.196 204.034 147.39 200.272 154.875C196.497 162.384 188.321 168.148 178.738 168.148ZM118.312 46.0369C118.312 33.4229 122.181 22.022 128.411 13.7855C134.642 5.54941 143.212 0.5 152.637 0.5C162.063 0.5 170.633 5.54941 176.864 13.7855C183.094 22.022 186.963 33.4229 186.963 46.0369C186.963 58.6509 183.094 70.0518 176.864 78.2882C170.633 86.5244 162.063 91.5738 152.637 91.5738C143.212 91.5738 134.642 86.5244 128.411 78.2882C122.181 70.0518 118.312 58.6509 118.312 46.0369Z" stroke="black" shape-rendering="crispEdges"/>
</g>
<defs>
<filter id="filter0_d_22_9" x="0" y="0" width="207" height="203" filterUnits="userSpaceOnUse" color-interpolation-filters="sRGB">
<feFlood flood-opacity="0" result="BackgroundImageFix"/>
<feColorMatrix in="SourceAlpha" type="matrix" values="0 0 0 0 0 0 0 0 0 0 0 0 0 0 0 0 0 0 127 0" result="hardAlpha"/>
<feOffset dy="4"/>
<feGaussianBlur stdDeviation="2"/>
<feComposite in2="hardAlpha" operator="out"/>
<feColorMatrix type="matrix" values="0 0 0 0 0 0 0 0 0 0 0 0 0 0 0 0 0 0 0.25 0"/>
<feBlend mode="normal" in2="BackgroundImageFix" result="effect1_dropShadow_22_9"/>
<feBlend mode="normal" in="SourceGraphic" in2="effect1_dropShadow_22_9" result="shape"/>
</filter>
</defs>
</svg>
