<svg width="225" height="263" viewBox="0 0 225 263" fill="none" xmlns="http://www.w3.org/2000/svg">
<g filter="url(#filter0_d_3_34)">
<path d="M87.9223 126.965L210.898 41.2857C217.368 36.7509 221 30.6166 221 24.2225C221 17.8283 217.368 11.694 210.898 7.15925C207.669 4.89073 203.827 3.09015 199.593 1.86138C195.36 0.632622 190.819 0 186.234 0C181.648 0 177.107 0.632622 172.874 1.86138C168.64 3.09015 164.798 4.89073 161.569 7.15925L14.2757 109.781C11.0197 112.031 8.43532 114.708 6.67167 117.657C4.90802 120.606 4 123.77 4 126.965C4 130.16 4.90802 133.323 6.67167 136.273C8.43532 139.222 11.0197 141.899 14.2757 144.149L161.569 247.981C164.815 250.224 168.665 251.999 172.897 253.203C177.13 254.407 181.662 255.018 186.234 255C190.805 255.018 195.338 254.407 199.57 253.203C203.803 251.999 207.652 250.224 210.898 247.981C217.368 243.446 221 237.312 221 230.917C221 224.523 217.368 218.389 210.898 213.854L87.9223 126.965Z" fill="#FF5C00"/>
<path d="M87.6365 126.555L87.0518 126.962L87.6338 127.373L210.61 214.263L210.611 214.264C216.983 218.73 220.5 224.725 220.5 230.917C220.5 237.109 216.984 243.104 210.613 247.57C207.417 249.778 203.619 251.531 199.433 252.722C195.248 253.913 190.762 254.518 186.236 254.5L186.231 254.5C181.705 254.518 177.219 253.913 173.034 252.722C168.849 251.531 165.05 249.779 161.854 247.57C161.854 247.57 161.854 247.57 161.853 247.569L14.5638 143.74L14.56 143.738C11.3539 141.522 8.82261 138.896 7.1008 136.016C5.3799 133.138 4.5 130.063 4.5 126.965C4.5 123.867 5.3799 120.791 7.1008 117.914C8.82261 115.034 11.3539 112.407 14.56 110.192L14.5615 110.191L161.855 7.5695L161.856 7.5684C165.036 5.33502 168.827 3.55675 173.013 2.34157C177.199 1.12647 181.693 0.5 186.234 0.5C190.774 0.5 195.268 1.12647 199.454 2.34157C203.64 3.55675 207.431 5.33502 210.611 7.5684L210.611 7.5687C216.983 12.0347 220.5 18.0304 220.5 24.2225C220.5 30.4143 216.984 36.4096 210.612 40.8756C210.612 40.8758 210.611 40.876 210.611 40.8763L87.6365 126.555ZM172.897 253.203C177.13 254.407 181.662 255.018 186.234 255L14.2757 109.781C11.0197 112.031 8.43532 114.708 6.67167 117.657C4.90802 120.606 4 123.77 4 126.965C4 130.16 4.90802 133.323 6.67167 136.273C8.43532 139.222 11.0197 141.899 14.2757 144.149L161.569 247.981C164.815 250.224 168.665 251.999 172.897 253.203Z" stroke="black"/>
</g>
<defs>
<filter id="filter0_d_3_34" x="0" y="0" width="225" height="263" filterUnits="userSpaceOnUse" color-interpolation-filters="sRGB">
<feFlood flood-opacity="0" result="BackgroundImageFix"/>
<feColorMatrix in="SourceAlpha" type="matrix" values="0 0 0 0 0 0 0 0 0 0 0 0 0 0 0 0 0 0 127 0" result="hardAlpha"/>
<feOffset dy="4"/>
<feGaussianBlur stdDeviation="2"/>
<feComposite in2="hardAlpha" operator="out"/>
<feColorMatrix type="matrix" values="0 0 0 0 0 0 0 0 0 0 0 0 0 0 0 0 0 0 0.25 0"/>
<feBlend mode="normal" in2="BackgroundImageFix" result="effect1_dropShadow_3_34"/>
<feBlend mode="normal" in="SourceGraphic" in2="effect1_dropShadow_3_34" result="shape"/>
</filter>
</defs>
</svg>
