<svg width="353" height="244" viewBox="0 0 353 244" fill="none" xmlns="http://www.w3.org/2000/svg">
<g filter="url(#filter0_d_1_2)">
<path d="M4.00017 10.5C4.00017 4.97715 8.47732 0.5 14.0002 0.5H339C344.523 0.5 349 4.97715 349 10.5V30.5C349 36.0228 344.523 40.5 339 40.5H14.0002C8.47732 40.5 4.00017 36.0228 4.00017 30.5V10.5Z" fill="#FF5C00"/>
<path d="M4.00018 108C4.00018 102.477 8.47733 98 14.0002 98H339C344.523 98 349 102.477 349 108V128C349 133.523 344.523 138 339 138H14.0002C8.47733 138 4.00018 133.523 4.00018 128V108Z" fill="#FF5C00"/>
<path d="M4 205.5C4 199.977 8.47715 195.5 14 195.5H339C344.523 195.5 349 199.977 349 205.5V225.5C349 231.023 344.523 235.5 339 235.5H14C8.47715 235.5 4 231.023 4 225.5V205.5Z" fill="#FF5C00"/>
<path d="M14.0002 1H339C344.247 1 348.5 5.25329 348.5 10.5V30.5C348.5 35.7467 344.247 40 339 40H14.0002C8.75346 40 4.50017 35.7467 4.50017 30.5V10.5C4.50017 5.25329 8.75347 1 14.0002 1ZM14.0002 98.5H339C344.247 98.5 348.5 102.753 348.5 108V128C348.5 133.247 344.247 137.5 339 137.5H14.0002C8.75347 137.5 4.50018 133.247 4.50018 128V108C4.50018 102.753 8.75347 98.5 14.0002 98.5ZM14 196H339C344.247 196 348.5 200.253 348.5 205.5V225.5C348.5 230.747 344.247 235 339 235H14C8.75329 235 4.5 230.747 4.5 225.5V205.5C4.5 200.253 8.7533 196 14 196Z" stroke="black"/>
</g>
<defs>
<filter id="filter0_d_1_2" x="0" y="0.5" width="353" height="243" filterUnits="userSpaceOnUse" color-interpolation-filters="sRGB">
<feFlood flood-opacity="0" result="BackgroundImageFix"/>
<feColorMatrix in="SourceAlpha" type="matrix" values="0 0 0 0 0 0 0 0 0 0 0 0 0 0 0 0 0 0 127 0" result="hardAlpha"/>
<feOffset dy="4"/>
<feGaussianBlur stdDeviation="2"/>
<feComposite in2="hardAlpha" operator="out"/>
<feColorMatrix type="matrix" values="0 0 0 0 0 0 0 0 0 0 0 0 0 0 0 0 0 0 0.25 0"/>
<feBlend mode="normal" in2="BackgroundImageFix" result="effect1_dropShadow_1_2"/>
<feBlend mode="normal" in="SourceGraphic" in2="effect1_dropShadow_1_2" result="shape"/>
</filter>
</defs>
</svg>
