<svg width="304" height="158" viewBox="0 0 304 158" fill="none" xmlns="http://www.w3.org/2000/svg">
<g filter="url(#filter0_d_14_2)">
<path d="M292.354 108.919L171.618 7.10303C169.001 4.85232 165.889 3.06589 162.459 1.84678C159.03 0.627666 155.351 0 151.636 0C147.921 0 144.242 0.627666 140.812 1.84678C137.383 3.06589 134.27 4.85232 131.654 7.10303L12.3248 108.919C9.68698 111.151 7.59325 113.807 6.16443 116.733C4.73562 119.659 4 122.798 4 125.968C4 129.138 4.73562 132.277 6.16443 135.203C7.59325 138.129 9.68698 140.785 12.3248 143.017C17.5979 147.49 24.731 150 32.1661 150C39.6012 150 46.7343 147.49 52.0074 143.017L151.636 58.0108L251.264 143.017C256.506 147.453 263.582 149.954 270.965 149.981C274.669 149.999 278.34 149.394 281.769 148.199C285.198 147.004 288.317 145.243 290.947 143.017C293.679 140.865 295.884 138.273 297.435 135.389C298.986 132.506 299.852 129.389 299.983 126.218C300.113 123.048 299.507 119.886 298.197 116.917C296.888 113.948 294.902 111.229 292.354 108.919Z" fill="#FF5C00"/>
<path d="M171.295 7.48527L171.292 7.4821C168.725 5.27374 165.666 3.5175 162.292 2.3179C158.917 1.1183 155.295 0.5 151.636 0.5C147.976 0.5 144.355 1.1183 140.98 2.3179C137.605 3.5175 134.547 5.27374 131.98 7.48208L131.978 7.4834L12.6494 109.299L12.6478 109.3C10.0596 111.491 8.01031 114.092 6.61373 116.952C5.21734 119.812 4.5 122.876 4.5 125.968C4.5 129.06 5.21734 132.124 6.61373 134.983C8.01031 137.844 10.0596 140.445 12.6478 142.635L12.6483 142.636C17.8239 147.026 24.8398 149.5 32.1661 149.5C39.4919 149.5 46.5073 147.026 51.6828 142.637L171.295 7.48527ZM171.295 7.48527L292.018 109.289C292.02 109.291 292.022 109.293 292.024 109.295C294.521 111.56 296.461 114.22 297.74 117.119C299.019 120.02 299.611 123.105 299.483 126.198C299.355 129.29 298.511 132.333 296.995 135.152C295.478 137.972 293.319 140.512 290.637 142.624L290.631 142.63L290.624 142.636C288.043 144.819 284.979 146.55 281.605 147.726C278.231 148.902 274.616 149.499 270.967 149.481H270.967M171.295 7.48527L270.967 149.481M270.967 149.481C263.692 149.455 256.734 146.99 251.589 142.637L270.967 149.481ZM151.311 57.6304L51.6839 142.636L251.587 142.636L151.96 57.6304L151.636 57.3535L151.311 57.6304Z" stroke="black"/>
</g>
<defs>
<filter id="filter0_d_14_2" x="0" y="0" width="304" height="158" filterUnits="userSpaceOnUse" color-interpolation-filters="sRGB">
<feFlood flood-opacity="0" result="BackgroundImageFix"/>
<feColorMatrix in="SourceAlpha" type="matrix" values="0 0 0 0 0 0 0 0 0 0 0 0 0 0 0 0 0 0 127 0" result="hardAlpha"/>
<feOffset dy="4"/>
<feGaussianBlur stdDeviation="2"/>
<feComposite in2="hardAlpha" operator="out"/>
<feColorMatrix type="matrix" values="0 0 0 0 0 0 0 0 0 0 0 0 0 0 0 0 0 0 0.25 0"/>
<feBlend mode="normal" in2="BackgroundImageFix" result="effect1_dropShadow_14_2"/>
<feBlend mode="normal" in="SourceGraphic" in2="effect1_dropShadow_14_2" result="shape"/>
</filter>
</defs>
</svg>
