<svg width="304" height="158" viewBox="0 0 304 158" fill="none" xmlns="http://www.w3.org/2000/svg">
<g filter="url(#filter0_d_4_2)">
<path d="M291.694 6.98283C286.433 2.51037 279.316 0 271.898 0C264.48 0 257.363 2.51037 252.102 6.98283L151.298 91.9892L51.8975 6.98283C46.6365 2.51037 39.5198 0 32.1016 0C24.6835 0 17.5668 2.51037 12.3058 6.98283C9.67397 9.21516 7.58503 11.871 6.15948 14.7972C4.73394 17.7235 4 20.8621 4 24.0321C4 27.2021 4.73394 30.3408 6.15948 33.267C7.58503 36.1932 9.67397 38.8491 12.3058 41.0814L131.362 142.897C133.972 145.148 137.078 146.934 140.499 148.153C143.921 149.372 147.591 150 151.298 150C155.005 150 158.675 149.372 162.097 148.153C165.518 146.934 168.624 145.148 171.234 142.897L291.694 41.0814C294.326 38.8491 296.415 36.1932 297.84 33.267C299.266 30.3408 300 27.2021 300 24.0321C300 20.8621 299.266 17.7235 297.84 14.7972C296.415 11.871 294.326 9.21516 291.694 6.98283Z" fill="#FF5C00"/>
<path d="M291.371 7.36414L291.37 7.36378C286.207 2.97412 279.207 0.5 271.898 0.5C264.589 0.5 257.59 2.97412 252.426 7.36378L252.425 7.36507L151.62 92.3714L151.296 92.6452L150.973 92.3692L51.5737 7.36378C51.5735 7.36363 51.5733 7.36348 51.5731 7.36333C46.4096 2.97395 39.4104 0.5 32.1016 0.5C24.7927 0.5 17.7932 2.97412 12.6296 7.36378L12.6292 7.36414C10.047 9.55442 8.00239 12.156 6.60898 15.0162C5.21575 17.8761 4.5 20.9401 4.5 24.0321C4.5 27.1242 5.21575 30.1881 6.60898 33.048C8.00239 35.9083 10.047 38.5098 12.6292 40.7001L12.6308 40.7014L131.687 142.517L131.688 142.518C134.249 144.727 137.3 146.483 140.667 147.682C144.034 148.882 147.647 149.5 151.298 149.5C154.949 149.5 158.562 148.882 161.929 147.682C165.296 146.483 168.347 144.727 170.908 142.518L170.911 142.515L291.371 40.7001V7.36414ZM291.371 7.36414C293.953 9.55441 295.998 12.156 297.391 15.0162C298.784 17.8761 299.5 20.9401 299.5 24.0321C299.5 27.1242 298.784 30.1881 297.391 33.048C295.998 35.9081 293.953 38.5094 291.371 40.6996L291.371 7.36414Z" stroke="black"/>
</g>
<defs>
<filter id="filter0_d_4_2" x="0" y="0" width="304" height="158" filterUnits="userSpaceOnUse" color-interpolation-filters="sRGB">
<feFlood flood-opacity="0" result="BackgroundImageFix"/>
<feColorMatrix in="SourceAlpha" type="matrix" values="0 0 0 0 0 0 0 0 0 0 0 0 0 0 0 0 0 0 127 0" result="hardAlpha"/>
<feOffset dy="4"/>
<feGaussianBlur stdDeviation="2"/>
<feComposite in2="hardAlpha" operator="out"/>
<feColorMatrix type="matrix" values="0 0 0 0 0 0 0 0 0 0 0 0 0 0 0 0 0 0 0.25 0"/>
<feBlend mode="normal" in2="BackgroundImageFix" result="effect1_dropShadow_4_2"/>
<feBlend mode="normal" in="SourceGraphic" in2="effect1_dropShadow_4_2" result="shape"/>
</filter>
</defs>
</svg>
