<svg width="151" height="138" viewBox="0 0 151 138" fill="none" xmlns="http://www.w3.org/2000/svg">
<g filter="url(#filter0_i_116_3)">
<path fill-rule="evenodd" clip-rule="evenodd" d="M63.3683 1C55.9316 1 49.7282 5.59471 49.0788 11.5838C47.721 24.1058 47.3774 36.6836 48.049 49.2367C47.2383 49.2806 46.4278 49.3264 45.6174 49.3742L31.2989 50.218C22.1469 50.7573 17.0309 59.0072 21.9718 65.2584C32.5092 78.5904 46.087 90.1805 61.9813 99.411L67.7177 102.742C72.3686 105.443 78.6329 105.443 83.2838 102.742L89.0202 99.411C104.915 90.1805 118.492 78.5904 129.03 65.2584C133.971 59.0072 128.855 50.7573 119.703 50.218L105.384 49.3742C104.574 49.3264 103.763 49.2806 102.953 49.2367C103.624 36.6836 103.28 24.1058 101.923 11.5838C101.273 5.59469 95.0699 1 87.6333 1H63.3683ZM62.8261 54.3487C61.7329 40.4595 61.9371 26.5227 63.4371 12.6571H87.5644C89.0644 26.5227 89.2686 40.4595 88.1754 54.3487C88.0529 55.9059 88.7077 57.4377 89.9934 58.6015C91.279 59.7652 93.0882 60.4636 95.0158 60.5403C98.1241 60.6641 101.231 60.8175 104.336 61.0005L114.735 61.6133C105.511 72.5967 93.961 82.1886 80.6077 89.9434L75.5008 92.9092L70.3939 89.9434C57.0405 82.1886 45.4908 72.5967 36.2668 61.6133L46.6657 61.0005C49.7705 60.8175 52.8774 60.6641 55.9857 60.5403C57.9134 60.4636 59.7225 59.7652 61.0081 58.6015C62.2938 57.4377 62.9486 55.9059 62.8261 54.3487Z" fill="#FF5C00" fill-opacity="0.6"/>
<path d="M15.4194 107.857C15.4194 104.638 12.1915 102.029 8.20968 102.029C4.22788 102.029 1 104.638 1 107.857V123.4C1 130.911 8.53173 137 17.8226 137H133.177C142.468 137 150 130.911 150 123.4V107.857C150 104.638 146.772 102.029 142.79 102.029C138.809 102.029 135.581 104.638 135.581 107.857V123.4C135.581 124.473 134.505 125.343 133.177 125.343H17.8226C16.4953 125.343 15.4194 124.473 15.4194 123.4V107.857Z" fill="#FF5C00" fill-opacity="0.6"/>
</g>
<path fill-rule="evenodd" clip-rule="evenodd" d="M63.3683 1C55.9316 1 49.7282 5.59471 49.0788 11.5838C47.721 24.1058 47.3774 36.6836 48.049 49.2367C47.2383 49.2806 46.4278 49.3264 45.6174 49.3742L31.2989 50.218C22.1469 50.7573 17.0309 59.0072 21.9718 65.2584C32.5092 78.5904 46.087 90.1805 61.9813 99.411L67.7177 102.742C72.3686 105.443 78.6329 105.443 83.2838 102.742L89.0202 99.411C104.915 90.1805 118.492 78.5904 129.03 65.2584C133.971 59.0072 128.855 50.7573 119.703 50.218L105.384 49.3742C104.574 49.3264 103.763 49.2806 102.953 49.2367C103.624 36.6836 103.28 24.1058 101.923 11.5838C101.273 5.59469 95.0699 1 87.6333 1H63.3683ZM62.8261 54.3487C61.7329 40.4595 61.9371 26.5227 63.4371 12.6571H87.5644C89.0644 26.5227 89.2686 40.4595 88.1754 54.3487C88.0529 55.9059 88.7077 57.4377 89.9934 58.6015C91.279 59.7652 93.0882 60.4636 95.0158 60.5403C98.1241 60.6641 101.231 60.8175 104.336 61.0005L114.735 61.6133C105.511 72.5967 93.961 82.1886 80.6077 89.9434L75.5008 92.9092L70.3939 89.9434C57.0405 82.1886 45.4908 72.5967 36.2668 61.6133L46.6657 61.0005C49.7705 60.8175 52.8774 60.6641 55.9857 60.5403C57.9134 60.4636 59.7225 59.7652 61.0081 58.6015C62.2938 57.4377 62.9486 55.9059 62.8261 54.3487Z" stroke="black" stroke-linejoin="round"/>
<path d="M15.4194 107.857C15.4194 104.638 12.1915 102.029 8.20968 102.029C4.22788 102.029 1 104.638 1 107.857V123.4C1 130.911 8.53173 137 17.8226 137H133.177C142.468 137 150 130.911 150 123.4V107.857C150 104.638 146.772 102.029 142.79 102.029C138.809 102.029 135.581 104.638 135.581 107.857V123.4C135.581 124.473 134.505 125.343 133.177 125.343H17.8226C16.4953 125.343 15.4194 124.473 15.4194 123.4V107.857Z" stroke="black" stroke-linejoin="round"/>
<defs>
<filter id="filter0_i_116_3" x="0.5" y="0.5" width="150" height="141" filterUnits="userSpaceOnUse" color-interpolation-filters="sRGB">
<feFlood flood-opacity="0" result="BackgroundImageFix"/>
<feBlend mode="normal" in="SourceGraphic" in2="BackgroundImageFix" result="shape"/>
<feColorMatrix in="SourceAlpha" type="matrix" values="0 0 0 0 0 0 0 0 0 0 0 0 0 0 0 0 0 0 127 0" result="hardAlpha"/>
<feOffset dy="4"/>
<feGaussianBlur stdDeviation="2"/>
<feComposite in2="hardAlpha" operator="arithmetic" k2="-1" k3="1"/>
<feColorMatrix type="matrix" values="0 0 0 0 0 0 0 0 0 0 0 0 0 0 0 0 0 0 0.25 0"/>
<feBlend mode="normal" in2="shape" result="effect1_innerShadow_116_3"/>
</filter>
</defs>
</svg>
