<svg width="139" height="129" viewBox="0 0 139 129" fill="none" xmlns="http://www.w3.org/2000/svg">
<g filter="url(#filter0_d_110_2)">
<path d="M5 74.9864V47.5923C5 20.5113 4.99999 6.97061 16.1212 2.3483C27.2422 -2.27394 41.6221 5.28986 70.3828 20.4175L97.6626 34.7665C122.051 47.5939 134.245 54.0081 133.996 62.9525C133.749 71.8977 121.21 77.8925 96.1346 89.8839L68.8537 102.929C40.5807 116.447 26.4448 123.207 15.7223 118.515C5 113.823 5 100.878 5 74.9864Z" fill="#FF5C00"/>
<path d="M5 74.9864V47.5923C5 20.5113 4.99999 6.97061 16.1212 2.3483C27.2422 -2.27394 41.6221 5.28986 70.3828 20.4175L97.6626 34.7665C122.051 47.5939 134.245 54.0081 133.996 62.9525C133.749 71.8977 121.21 77.8925 96.1346 89.8839L68.8537 102.929C40.5807 116.447 26.4448 123.207 15.7223 118.515C5 113.823 5 100.878 5 74.9864Z" stroke="black" stroke-width="1.5" stroke-linecap="round" stroke-linejoin="round"/>
</g>
<defs>
<filter id="filter0_d_110_2" x="0.25" y="0.25" width="138.5" height="128.5" filterUnits="userSpaceOnUse" color-interpolation-filters="sRGB">
<feFlood flood-opacity="0" result="BackgroundImageFix"/>
<feColorMatrix in="SourceAlpha" type="matrix" values="0 0 0 0 0 0 0 0 0 0 0 0 0 0 0 0 0 0 127 0" result="hardAlpha"/>
<feOffset dy="4"/>
<feGaussianBlur stdDeviation="2"/>
<feComposite in2="hardAlpha" operator="out"/>
<feColorMatrix type="matrix" values="0 0 0 0 0 0 0 0 0 0 0 0 0 0 0 0 0 0 0.25 0"/>
<feBlend mode="normal" in2="BackgroundImageFix" result="effect1_dropShadow_110_2"/>
<feBlend mode="normal" in="SourceGraphic" in2="effect1_dropShadow_110_2" result="shape"/>
</filter>
</defs>
</svg>
