<svg id="svg" version="1.1" xmlns="http://www.w3.org/2000/svg" xmlns:xlink="http://www.w3.org/1999/xlink" width="400" height="68.73508353221956" viewBox="0, 0, 400,68.73508353221956"><g id="svgg"><path id="path0" d="M102.458 14.329 L 103.167 14.650 103.167 16.232 C 103.167 17.102,103.223 17.849,103.292 17.891 C 103.360 17.934,103.394 17.170,103.367 16.193 C 103.313 14.229,103.195 13.997,102.260 14.004 C 101.758 14.007,101.761 14.013,102.458 14.329 M88.367 15.159 C 90.325 15.216,91.553 15.319,91.670 15.436 C 92.014 15.781,91.795 16.885,91.333 17.134 C 90.936 17.349,90.948 17.355,91.583 17.267 C 92.778 17.101,93.106 15.930,92.125 15.332 C 91.629 15.029,91.315 15.004,88.417 15.035 L 85.250 15.069 88.367 15.159 M12.823 16.125 C 15.413 16.191,16.018 16.563,14.750 17.311 L 14.167 17.655 14.167 20.961 C 14.167 24.090,14.243 24.666,14.658 24.667 C 14.709 24.667,14.728 23.063,14.702 21.102 L 14.654 17.537 15.163 17.360 C 16.952 16.736,15.701 15.991,12.940 16.036 L 10.750 16.072 12.823 16.125 M38.233 16.222 C 39.540 16.616,39.594 18.167,38.301 18.167 C 38.044 18.167,37.833 18.252,37.833 18.355 C 37.833 18.645,39.201 18.406,39.444 18.074 C 40.000 17.314,39.260 15.995,38.288 16.013 L 37.583 16.026 38.233 16.222 M87.875 16.505 C 87.272 16.747,87.314 18.604,87.928 18.837 C 88.508 19.058,88.621 19.042,88.272 18.787 C 88.040 18.617,87.991 18.373,88.032 17.579 L 88.083 16.583 88.833 16.483 L 89.583 16.383 88.917 16.369 C 88.550 16.361,88.081 16.422,87.875 16.505 M95.333 18.000 C 95.333 18.092,95.474 18.167,95.646 18.167 C 96.204 18.167,96.374 18.569,96.000 19.000 C 95.570 19.496,95.565 19.462,96.262 20.931 C 96.849 22.167,97.260 22.474,97.472 21.833 C 97.544 21.615,97.518 21.614,97.264 21.823 C 96.872 22.147,96.673 21.829,96.669 20.875 C 96.668 20.425,96.560 20.060,96.375 19.875 C 96.097 19.597,96.097 19.569,96.375 19.292 C 96.773 18.893,96.741 18.404,96.296 18.093 C 95.879 17.800,95.333 17.748,95.333 18.000 M99.167 18.000 C 99.304 18.089,99.550 18.163,99.714 18.164 C 100.205 18.168,100.245 18.649,99.793 19.135 C 99.563 19.382,99.269 19.808,99.139 20.083 C 99.001 20.375,98.784 20.574,98.618 20.560 C 98.403 20.543,98.333 20.670,98.333 21.079 C 98.333 21.378,98.183 21.812,98.000 22.045 C 97.817 22.279,97.667 22.652,97.667 22.876 C 97.667 23.824,97.149 24.748,96.708 24.587 C 96.434 24.486,96.441 24.744,96.720 24.975 C 96.996 25.204,97.667 24.780,97.667 24.376 C 97.667 24.227,97.816 23.946,97.998 23.752 C 98.180 23.558,98.405 23.002,98.497 22.516 C 98.610 21.919,98.792 21.532,99.060 21.322 C 99.302 21.131,99.496 20.758,99.560 20.359 C 99.630 19.919,99.801 19.617,100.082 19.433 C 100.605 19.090,100.660 18.264,100.178 18.006 C 99.747 17.776,98.811 17.770,99.167 18.000 M105.393 17.990 C 106.622 18.396,106.900 19.004,107.000 21.500 C 107.078 23.456,107.106 23.593,107.455 23.746 C 108.232 24.087,108.020 24.833,107.146 24.833 C 106.882 24.833,106.667 24.908,106.667 25.000 C 106.667 25.259,107.551 25.196,107.963 24.907 C 108.444 24.570,108.431 24.249,107.917 23.735 C 107.550 23.368,107.500 23.174,107.497 22.117 C 107.490 19.609,107.030 18.009,106.313 18.003 C 106.164 18.001,105.789 17.962,105.479 17.916 C 104.935 17.836,104.932 17.838,105.393 17.990 M116.417 18.000 C 116.907 18.211,117.659 18.211,117.333 18.000 C 117.196 17.911,116.858 17.843,116.583 17.848 C 116.154 17.855,116.130 17.877,116.417 18.000 M119.726 17.996 C 120.983 18.395,121.333 19.165,121.333 21.524 C 121.333 23.325,121.351 23.417,121.775 23.860 C 122.304 24.411,122.104 24.833,121.313 24.833 C 121.049 24.833,120.833 24.908,120.833 25.000 C 120.833 25.293,121.932 25.184,122.224 24.862 C 122.629 24.414,122.561 23.906,122.046 23.530 C 121.594 23.201,121.591 23.183,121.527 20.859 C 121.453 18.173,121.417 18.099,120.083 17.943 C 119.451 17.869,119.365 17.882,119.726 17.996 M89.827 18.346 C 89.660 18.658,89.674 18.675,89.965 18.518 C 90.425 18.272,90.500 18.422,90.500 19.583 C 90.500 20.745,90.425 20.894,89.965 20.648 C 89.674 20.492,89.660 20.509,89.827 20.821 C 90.308 21.721,91.000 20.991,91.000 19.583 C 91.000 18.175,90.308 17.446,89.827 18.346 M112.945 18.372 C 114.546 19.510,114.968 21.688,113.647 22.000 L 113.083 22.133 113.771 22.150 C 114.721 22.173,114.888 21.916,114.802 20.562 C 114.749 19.728,114.652 19.389,114.407 19.186 C 114.229 19.038,113.950 18.710,113.788 18.458 C 113.566 18.115,113.358 18.000,112.957 18.000 L 112.421 18.000 112.945 18.372 M23.875 18.958 C 25.358 19.007,25.522 19.046,25.752 19.397 C 25.891 19.609,26.185 19.864,26.405 19.964 C 26.627 20.065,26.900 20.411,27.020 20.742 C 27.250 21.379,27.551 21.445,27.634 20.879 C 27.684 20.544,26.984 19.667,26.667 19.667 C 26.583 19.667,26.328 19.479,26.098 19.250 C 25.702 18.854,25.597 18.835,23.966 18.868 L 22.250 18.903 23.875 18.958 M31.292 18.957 C 32.048 18.988,33.285 18.988,34.042 18.957 C 34.798 18.926,34.179 18.901,32.667 18.901 C 31.154 18.901,30.535 18.926,31.292 18.957 M37.413 18.958 C 39.161 19.047,39.167 19.056,39.167 22.020 C 39.167 24.617,39.243 24.863,40.031 24.822 C 40.151 24.816,40.081 24.729,39.875 24.630 C 39.510 24.454,39.500 24.379,39.500 21.903 C 39.500 18.764,39.535 18.820,37.613 18.866 L 36.250 18.899 37.413 18.958 M41.963 18.956 C 42.355 18.991,42.955 18.990,43.296 18.954 C 43.637 18.919,43.317 18.890,42.583 18.890 C 41.850 18.891,41.571 18.920,41.963 18.956 M46.368 18.950 C 47.442 19.012,47.510 19.042,48.076 19.704 L 48.667 20.393 48.667 22.374 L 48.667 24.355 49.165 24.774 C 49.783 25.294,49.619 25.777,48.791 25.879 C 48.318 25.938,48.339 25.950,48.952 25.973 C 50.047 26.015,50.351 24.906,49.334 24.583 C 49.022 24.484,49.000 24.332,49.000 22.241 C 49.000 19.239,48.778 18.925,46.639 18.901 C 45.472 18.888,45.429 18.896,46.368 18.950 M103.479 19.608 C 103.181 19.967,103.052 23.244,103.323 23.571 C 103.504 23.789,104.167 24.045,104.167 23.897 C 104.167 23.857,103.979 23.754,103.750 23.667 C 103.161 23.443,103.105 20.688,103.679 20.207 C 104.246 19.732,104.404 19.333,104.026 19.333 C 103.851 19.333,103.605 19.457,103.479 19.608 M110.506 19.781 C 110.041 20.372,110.129 20.738,110.751 20.798 C 111.089 20.830,111.178 20.797,111.027 20.696 C 110.856 20.581,110.843 20.407,110.972 19.940 C 111.171 19.222,110.993 19.161,110.506 19.781 M117.812 19.608 C 117.514 19.967,117.385 23.244,117.657 23.571 C 117.837 23.789,118.500 24.045,118.500 23.897 C 118.500 23.857,118.313 23.754,118.083 23.667 C 117.494 23.443,117.438 20.688,118.013 20.207 C 118.579 19.732,118.737 19.333,118.360 19.333 C 118.184 19.333,117.938 19.457,117.812 19.608 M22.884 20.366 C 21.737 20.920,22.021 24.667,23.210 24.667 C 23.337 24.667,23.126 23.661,22.981 23.571 C 22.622 23.350,22.903 21.129,23.386 20.375 C 23.545 20.127,23.384 20.124,22.884 20.366 M30.875 20.356 C 30.587 20.647,30.614 21.415,30.921 21.670 C 31.253 21.946,31.270 21.897,31.169 20.948 C 31.100 20.305,31.042 20.188,30.875 20.356 M34.668 20.415 C 34.552 20.555,34.508 20.841,34.566 21.075 C 34.784 21.943,33.383 23.000,32.016 23.000 C 30.942 23.000,30.307 23.252,30.613 23.557 C 30.814 23.758,30.991 23.670,30.894 23.417 C 30.814 23.209,30.997 23.167,31.971 23.167 C 33.917 23.167,35.683 21.954,35.134 20.996 C 34.887 20.566,34.893 20.542,35.313 20.376 L 35.750 20.202 35.312 20.184 C 35.071 20.175,34.782 20.278,34.668 20.415 M44.868 20.341 C 43.751 20.789,43.621 24.510,44.708 24.888 C 45.066 25.012,45.090 24.782,44.750 24.500 C 44.443 24.245,44.384 21.400,44.683 21.300 C 44.784 21.266,44.968 20.998,45.092 20.703 C 45.216 20.408,45.302 20.171,45.284 20.177 C 45.265 20.183,45.078 20.257,44.868 20.341 M87.875 20.339 C 87.324 20.560,87.375 23.353,87.935 23.567 C 88.121 23.639,88.143 23.382,88.054 22.136 C 87.958 20.778,87.979 20.594,88.255 20.392 C 88.603 20.138,88.434 20.114,87.875 20.339 M27.568 22.458 C 27.312 23.871,25.848 25.734,24.881 25.880 C 24.556 25.929,24.634 25.958,25.141 25.975 C 25.741 25.996,25.880 25.942,25.953 25.660 C 26.002 25.473,26.244 25.216,26.490 25.088 C 27.198 24.722,27.871 23.613,27.963 22.664 C 28.058 21.674,27.741 21.508,27.568 22.458 M91.783 22.057 C 91.722 22.216,91.810 22.260,92.086 22.207 C 93.022 22.028,92.773 24.456,91.822 24.776 C 91.332 24.942,91.296 24.987,91.568 25.096 C 92.507 25.470,93.403 22.971,92.654 22.068 C 92.407 21.770,91.896 21.764,91.783 22.057 M110.098 22.309 C 110.050 22.387,110.262 22.734,110.569 23.079 L 111.128 23.708 111.042 23.229 C 110.994 22.965,110.887 22.664,110.804 22.558 C 110.708 22.436,110.732 22.334,110.868 22.279 C 110.986 22.232,110.882 22.187,110.635 22.180 C 110.388 22.173,110.147 22.231,110.098 22.309 M113.737 22.855 C 113.665 22.970,113.710 23.011,113.852 22.960 C 114.163 22.848,114.667 23.306,114.554 23.599 C 114.505 23.728,114.321 23.833,114.145 23.833 C 113.962 23.833,113.761 24.002,113.675 24.227 C 113.519 24.639,113.192 24.833,112.653 24.833 C 112.477 24.833,112.333 24.908,112.333 25.000 C 112.333 25.218,113.100 25.214,113.511 24.994 C 113.688 24.899,113.833 24.726,113.833 24.609 C 113.833 24.492,114.058 24.230,114.333 24.026 C 114.858 23.639,114.970 23.204,114.633 22.867 C 114.381 22.614,113.889 22.608,113.737 22.855 M33.717 23.828 C 34.065 23.895,34.457 24.102,34.587 24.288 C 34.840 24.650,35.500 24.906,35.500 24.643 C 35.500 24.189,34.602 23.667,33.851 23.686 L 33.083 23.705 33.717 23.828 M19.355 24.417 C 19.311 25.256,18.967 25.739,18.329 25.859 C 17.791 25.960,17.801 25.966,18.481 25.942 C 19.387 25.911,19.655 25.550,19.493 24.583 C 19.395 24.002,19.377 23.981,19.355 24.417 M103.375 24.789 C 102.985 24.824,102.667 24.923,102.667 25.010 C 102.667 25.266,103.775 25.188,104.000 24.917 C 104.114 24.779,104.180 24.680,104.145 24.696 C 104.111 24.712,103.765 24.754,103.375 24.789 M117.708 24.789 C 117.319 24.824,117.000 24.923,117.000 25.010 C 117.000 25.256,117.901 25.193,118.260 24.922 C 118.438 24.787,118.546 24.688,118.500 24.701 C 118.454 24.714,118.098 24.754,117.708 24.789 M44.000 25.833 L 43.417 25.956 44.000 25.976 C 44.321 25.986,44.696 25.922,44.833 25.833 C 45.136 25.637,44.931 25.637,44.000 25.833 M35.709 26.042 C 35.618 26.156,35.493 26.530,35.431 26.873 C 35.359 27.273,35.188 27.563,34.951 27.685 C 34.749 27.789,34.396 28.046,34.167 28.256 C 33.938 28.466,33.563 28.675,33.333 28.719 C 33.104 28.763,33.254 28.788,33.667 28.775 C 34.272 28.755,34.449 28.677,34.581 28.375 C 34.672 28.169,34.829 28.000,34.930 28.000 C 35.188 28.000,35.667 27.442,35.667 27.141 C 35.667 27.004,35.852 26.717,36.078 26.505 C 36.493 26.115,36.500 25.833,36.094 25.833 C 35.973 25.833,35.800 25.927,35.709 26.042 M39.125 25.951 C 39.331 25.991,39.669 25.991,39.875 25.951 C 40.081 25.911,39.912 25.879,39.500 25.879 C 39.087 25.879,38.919 25.911,39.125 25.951 M30.394 26.128 C 30.252 26.219,30.252 26.395,30.394 26.821 C 30.670 27.652,30.917 27.619,30.917 26.750 C 30.917 26.024,30.789 25.872,30.394 26.128 M82.367 28.867 C 82.257 28.977,82.167 29.299,82.167 29.583 C 82.167 29.867,82.257 30.190,82.367 30.300 C 82.658 30.592,389.008 30.592,389.300 30.300 C 389.558 30.042,389.558 29.125,389.300 28.867 C 389.008 28.575,82.658 28.575,82.367 28.867 M106.942 39.305 C 106.706 39.566,106.667 40.066,106.667 42.805 C 106.667 46.301,106.669 46.296,105.706 45.333 C 105.141 44.769,104.941 44.670,104.395 44.692 C 103.842 44.713,103.820 44.727,104.239 44.789 C 104.953 44.895,106.107 46.096,106.256 46.887 C 106.546 48.438,106.750 47.126,106.804 43.367 C 106.848 40.201,106.900 39.536,107.121 39.292 C 107.266 39.131,107.347 39.000,107.302 39.000 C 107.256 39.000,107.094 39.137,106.942 39.305 M107.963 46.582 C 108.014 54.635,107.977 54.983,107.147 54.232 C 106.868 53.980,106.833 53.687,106.833 51.568 C 106.833 50.259,106.753 48.977,106.654 48.719 L 106.474 48.250 106.259 48.750 C 105.752 49.927,104.855 50.574,103.583 50.681 L 102.417 50.779 103.636 50.806 C 104.910 50.835,105.500 50.657,105.500 50.244 C 105.500 50.110,105.608 50.000,105.741 50.000 C 105.873 50.000,106.086 49.850,106.214 49.668 C 106.596 49.122,106.667 49.447,106.667 51.746 C 106.667 54.385,107.286 55.501,108.005 54.158 C 108.194 53.804,108.227 39.687,108.039 39.391 C 107.972 39.285,107.938 42.521,107.963 46.582 M72.719 41.836 C 73.691 42.128,73.667 42.004,73.667 46.751 L 73.667 51.128 74.094 51.408 C 74.714 51.814,74.593 52.400,73.875 52.469 C 73.259 52.528,73.130 52.833,73.721 52.833 C 74.682 52.833,75.016 51.803,74.259 51.174 C 74.037 50.990,74.000 50.337,74.000 46.572 C 74.000 41.668,73.994 41.646,72.755 41.681 L 72.250 41.695 72.719 41.836 M13.783 42.826 L 16.817 42.917 17.533 43.640 L 18.249 44.364 18.249 45.672 C 18.250 46.543,18.306 46.925,18.417 46.815 C 18.841 46.393,18.444 43.500,17.962 43.500 C 17.872 43.500,17.650 43.313,17.470 43.083 L 17.142 42.667 13.946 42.701 L 10.750 42.735 13.783 42.826 M13.667 45.740 C 13.667 47.173,13.819 47.737,14.124 47.432 C 14.410 47.146,14.266 44.167,13.966 44.167 C 13.699 44.167,13.667 44.336,13.667 45.740 M88.917 44.787 C 89.192 44.825,89.583 45.033,89.786 45.248 C 89.989 45.464,90.303 45.743,90.483 45.869 C 91.018 46.244,91.366 48.049,91.033 48.721 C 90.403 49.992,89.482 50.645,88.230 50.709 L 87.083 50.768 88.369 50.801 C 89.590 50.832,89.683 50.808,90.203 50.328 C 91.745 48.904,91.876 48.690,91.792 47.750 C 91.721 46.954,90.974 45.500,90.636 45.500 C 90.560 45.500,90.335 45.313,90.136 45.083 C 89.850 44.755,89.629 44.672,89.095 44.692 C 88.533 44.712,88.503 44.729,88.917 44.787 M96.576 44.789 C 97.622 44.944,99.513 47.897,98.843 48.331 C 98.771 48.378,98.659 48.584,98.595 48.789 C 98.280 49.799,97.185 50.577,95.932 50.681 L 94.750 50.779 95.969 50.806 C 97.243 50.835,97.833 50.657,97.833 50.244 C 97.833 50.110,97.933 50.000,98.055 50.000 C 98.293 50.000,99.200 48.944,99.382 48.454 C 99.859 47.175,98.095 44.643,96.762 44.692 C 96.205 44.712,96.171 44.730,96.576 44.789 M23.356 45.713 C 24.595 46.130,24.905 46.779,25.000 49.154 C 25.077 51.081,25.110 51.251,25.417 51.306 C 25.686 51.354,25.710 51.324,25.542 51.150 C 25.401 51.003,25.333 50.342,25.333 49.111 C 25.333 46.218,25.121 45.794,23.583 45.609 C 22.753 45.509,22.752 45.510,23.356 45.713 M31.067 45.735 C 31.713 45.977,31.993 46.240,31.997 46.611 C 31.999 46.718,32.043 46.918,32.095 47.055 C 32.156 47.212,32.064 47.344,31.845 47.413 C 31.429 47.545,31.399 47.759,31.778 47.904 C 32.148 48.046,32.329 47.837,32.508 47.062 C 32.767 45.936,32.630 45.786,31.167 45.592 L 30.417 45.492 31.067 45.735 M42.274 45.615 C 42.966 45.751,43.229 46.229,42.931 46.806 C 42.690 47.271,42.695 47.365,42.984 48.030 L 43.299 48.750 43.211 48.045 C 43.150 47.554,43.206 47.215,43.395 46.926 C 43.915 46.133,43.660 45.726,42.575 45.613 C 42.213 45.575,42.078 45.576,42.274 45.615 M56.488 45.655 C 56.802 45.737,57.177 45.951,57.321 46.132 C 57.465 46.313,57.747 46.544,57.946 46.646 C 59.216 47.296,59.139 51.169,57.849 51.579 C 57.673 51.634,57.409 51.864,57.261 52.090 C 57.075 52.374,56.839 52.500,56.496 52.500 C 56.223 52.500,56.000 52.575,56.000 52.667 C 56.000 52.885,56.766 52.881,57.178 52.661 C 57.355 52.566,57.500 52.377,57.500 52.241 C 57.500 52.106,57.762 51.869,58.083 51.716 C 58.404 51.563,58.667 51.381,58.667 51.310 C 58.667 51.240,58.854 50.994,59.083 50.765 C 59.868 49.980,59.544 47.029,58.642 46.742 C 58.442 46.679,58.075 46.405,57.828 46.134 C 57.492 45.766,57.193 45.624,56.647 45.574 C 55.952 45.510,55.944 45.514,56.488 45.655 M61.847 45.560 C 62.044 45.729,62.851 45.830,62.754 45.673 C 62.695 45.578,62.451 45.500,62.212 45.500 C 61.973 45.500,61.809 45.527,61.847 45.560 M65.250 45.726 C 65.849 45.907,65.932 45.999,66.065 46.630 C 66.213 47.327,66.380 47.496,66.589 47.158 C 66.930 46.606,65.888 45.490,65.053 45.513 C 64.635 45.524,64.657 45.548,65.250 45.726 M46.138 46.085 C 46.490 46.381,46.751 46.823,46.922 47.411 C 47.063 47.896,47.326 48.426,47.506 48.589 C 48.200 49.217,47.937 48.192,46.841 46.000 C 46.773 45.862,46.468 45.726,46.164 45.696 L 45.611 45.641 46.138 46.085 M50.630 45.926 C 51.129 46.276,51.104 46.386,50.354 47.119 C 49.999 47.466,49.618 48.031,49.508 48.375 C 49.308 48.998,49.000 49.225,49.000 48.750 C 49.000 48.612,48.925 48.500,48.833 48.500 C 48.670 48.500,48.648 48.673,48.603 50.292 C 48.571 51.423,48.115 52.290,47.452 52.482 L 46.917 52.637 47.583 52.649 C 48.543 52.667,49.000 52.214,49.000 51.243 C 49.000 50.998,49.188 50.575,49.417 50.303 C 49.667 50.006,49.835 49.596,49.836 49.279 C 49.838 48.971,50.047 48.443,50.336 48.017 C 50.610 47.613,50.833 47.218,50.833 47.137 C 50.833 47.057,51.021 46.920,51.250 46.833 C 52.035 46.535,51.672 45.667,50.763 45.667 C 50.259 45.667,50.259 45.667,50.630 45.926 M28.837 47.079 C 28.668 47.283,28.715 47.361,29.108 47.535 C 29.369 47.650,29.675 47.868,29.786 48.018 C 29.898 48.168,30.323 48.375,30.732 48.478 C 31.522 48.677,32.500 49.632,32.500 50.205 C 32.500 50.367,32.575 50.500,32.667 50.500 C 32.923 50.500,32.859 49.989,32.504 49.208 C 32.227 48.597,32.112 48.500,31.667 48.500 C 31.322 48.500,31.014 48.353,30.740 48.057 C 30.503 47.801,30.071 47.572,29.720 47.514 C 28.881 47.378,28.817 47.038,29.615 46.955 L 30.250 46.889 29.645 46.861 C 29.286 46.845,28.958 46.933,28.837 47.079 M35.503 47.079 C 35.335 47.283,35.381 47.361,35.775 47.535 C 36.036 47.650,36.341 47.868,36.453 48.018 C 36.565 48.168,36.990 48.375,37.399 48.478 C 38.510 48.758,39.303 49.767,39.087 50.626 C 38.894 51.397,37.850 52.500,37.313 52.500 C 37.049 52.500,36.833 52.575,36.833 52.667 C 36.833 53.209,37.934 52.797,38.719 51.960 L 39.539 51.087 39.451 50.115 C 39.349 48.987,39.001 48.500,38.300 48.500 C 37.992 48.500,37.669 48.340,37.407 48.057 C 37.170 47.801,36.738 47.572,36.387 47.514 C 35.548 47.378,35.484 47.038,36.281 46.955 L 36.917 46.889 36.312 46.861 C 35.953 46.845,35.625 46.933,35.503 47.079 M54.375 47.037 C 53.588 47.416,53.412 50.319,54.132 51.039 C 54.646 51.554,54.841 51.352,54.572 50.583 C 54.185 49.480,54.324 47.919,54.886 47.042 C 55.046 46.793,54.884 46.791,54.375 47.037 M69.608 47.270 C 68.741 48.138,68.613 49.963,69.354 50.905 C 70.012 51.742,70.188 51.429,69.735 50.225 L 69.318 49.117 69.750 48.038 C 70.248 46.794,70.222 46.657,69.608 47.270 M17.413 47.647 C 17.049 47.922,16.563 48.299,16.333 48.486 L 15.917 48.826 16.375 48.830 C 16.686 48.832,17.051 48.621,17.515 48.171 C 18.374 47.338,18.303 46.977,17.413 47.647 M21.333 47.313 C 21.333 47.495,20.582 47.798,19.917 47.885 C 19.627 47.923,19.789 47.961,20.303 47.975 C 20.790 47.989,21.334 47.922,21.511 47.827 C 21.892 47.624,21.942 47.167,21.583 47.167 C 21.446 47.167,21.333 47.233,21.333 47.313 M38.542 47.370 C 38.101 47.583,38.064 47.758,38.432 47.899 C 38.753 48.023,38.943 47.918,39.172 47.491 C 39.372 47.116,39.155 47.074,38.542 47.370 M63.125 47.889 C 62.741 48.826,62.985 51.139,63.500 51.443 C 64.325 51.930,64.093 52.500,63.070 52.500 C 62.848 52.500,62.667 52.575,62.667 52.667 C 62.667 52.891,63.386 52.878,63.900 52.644 C 64.666 52.295,64.628 51.635,63.826 51.356 L 63.345 51.188 63.297 49.386 C 63.271 48.377,63.195 47.718,63.125 47.889 M64.625 47.951 C 64.831 47.991,65.169 47.991,65.375 47.951 C 65.581 47.911,65.412 47.879,65.000 47.879 C 64.587 47.879,64.419 47.911,64.625 47.951 M13.735 49.062 C 13.414 49.900,13.749 51.074,14.417 51.448 C 15.237 51.907,15.261 52.191,14.500 52.443 C 14.003 52.607,13.964 52.655,14.234 52.762 C 15.130 53.119,15.857 51.812,15.000 51.386 C 14.330 51.052,14.060 49.343,14.625 49.013 C 14.866 48.873,14.822 48.843,14.370 48.838 C 14.057 48.835,13.785 48.931,13.735 49.062 M44.410 49.875 C 44.366 49.990,44.193 50.571,44.026 51.167 C 43.753 52.140,43.667 52.269,43.171 52.433 C 42.646 52.607,42.638 52.620,43.014 52.719 C 43.583 52.867,44.131 52.441,44.261 51.749 C 44.322 51.427,44.510 50.890,44.680 50.557 C 44.983 49.962,44.974 49.667,44.652 49.667 C 44.562 49.667,44.454 49.760,44.410 49.875 M21.375 49.944 C 21.097 50.056,21.108 50.911,21.390 51.145 C 21.705 51.406,21.833 51.212,21.833 50.472 C 21.833 49.840,21.781 49.780,21.375 49.944 M26.833 50.500 C 26.625 50.635,26.637 50.662,26.906 50.664 C 27.083 50.666,27.402 50.829,27.614 51.028 C 28.122 51.506,28.264 51.336,27.824 50.775 C 27.452 50.303,27.232 50.242,26.833 50.500 M33.500 50.500 C 33.295 50.633,33.313 50.662,33.599 50.664 C 33.791 50.666,34.084 50.817,34.250 51.000 C 34.655 51.448,34.892 51.423,34.648 50.958 C 34.322 50.340,33.967 50.198,33.500 50.500 M31.593 51.918 C 31.263 52.351,31.024 52.500,30.658 52.500 C 30.388 52.500,30.167 52.575,30.167 52.667 C 30.167 52.758,30.417 52.833,30.722 52.833 C 31.293 52.833,32.532 51.643,32.185 51.428 C 32.104 51.378,31.837 51.598,31.593 51.918 M21.917 52.500 C 21.659 52.611,21.747 52.646,22.302 52.655 C 22.740 52.662,22.980 52.602,22.917 52.500 C 22.794 52.302,22.378 52.302,21.917 52.500 M24.500 52.667 C 24.500 52.879,25.338 52.879,25.667 52.667 C 25.850 52.548,25.727 52.504,25.208 52.503 C 24.819 52.501,24.500 52.575,24.500 52.667 M70.792 52.618 C 70.998 52.657,71.335 52.657,71.542 52.618 C 71.748 52.578,71.579 52.545,71.167 52.545 C 70.754 52.545,70.585 52.578,70.792 52.618 M82.343 55.572 C 82.234 55.703,82.169 56.097,82.198 56.447 L 82.250 57.083 235.833 57.083 L 389.417 57.083 389.469 56.447 C 389.498 56.097,389.432 55.703,389.324 55.572 C 389.025 55.211,82.642 55.211,82.343 55.572 " stroke="none" fill="#6c3c1c" fill-rule="evenodd"></path><path id="path1" d="M100.834 14.663 C 100.601 14.810,100.983 15.308,101.344 15.328 C 101.824 15.355,102.043 16.705,102.096 19.970 L 102.152 23.357 101.558 23.878 C 100.889 24.465,101.022 24.634,102.167 24.652 C 103.138 24.668,103.325 24.433,102.789 23.874 C 102.180 23.238,102.101 20.764,102.667 20.045 C 102.850 19.812,103.000 19.490,103.000 19.329 C 103.000 19.168,103.112 18.992,103.250 18.940 C 103.388 18.887,103.500 18.766,103.500 18.672 C 103.500 18.441,102.883 18.452,102.739 18.684 C 102.483 19.099,102.338 18.338,102.336 16.561 C 102.333 14.518,101.910 13.983,100.834 14.663 M85.237 15.688 C 85.168 15.799,85.253 15.979,85.433 16.103 C 86.179 16.618,86.167 16.548,86.167 20.169 L 86.167 23.658 85.656 23.922 C 84.650 24.443,85.125 24.581,88.097 24.631 C 91.526 24.689,91.610 24.673,91.695 23.944 L 91.760 23.384 91.029 23.708 C 90.438 23.969,90.008 24.021,88.801 23.974 C 86.909 23.901,86.833 23.818,86.833 21.822 C 86.833 20.051,86.946 19.917,88.434 19.917 C 89.011 19.917,89.568 19.831,89.673 19.727 C 89.981 19.420,89.530 19.251,88.401 19.250 C 87.012 19.250,86.833 19.071,86.833 17.680 C 86.833 16.214,86.897 16.167,88.867 16.167 C 90.278 16.167,90.545 16.212,90.833 16.500 C 91.297 16.964,91.361 16.924,91.302 16.208 L 91.250 15.583 88.304 15.538 C 86.185 15.505,85.324 15.547,85.237 15.688 M10.750 16.561 C 10.428 16.803,10.437 16.820,11.039 17.073 C 11.844 17.413,11.854 17.464,11.797 21.325 L 11.750 24.567 11.113 24.902 C 9.955 25.512,10.607 25.667,14.340 25.667 C 18.280 25.667,18.667 25.577,18.667 24.664 C 18.667 24.314,18.712 23.909,18.768 23.764 C 18.823 23.619,18.786 23.500,18.684 23.500 C 18.583 23.500,18.500 23.587,18.500 23.693 C 18.500 24.671,15.948 25.331,14.125 24.825 L 13.500 24.651 13.500 21.023 L 13.500 17.395 14.108 17.105 C 15.045 16.659,14.603 16.426,12.700 16.364 C 11.457 16.323,11.006 16.368,10.750 16.561 M37.402 16.504 C 36.917 16.688,36.524 17.641,36.848 17.846 C 37.160 18.043,37.711 18.038,38.249 17.834 L 38.686 17.668 38.385 17.154 C 37.976 16.459,37.810 16.349,37.402 16.504 M93.723 18.593 C 93.664 18.747,93.795 19.037,94.043 19.302 C 94.274 19.548,94.516 19.938,94.581 20.167 C 94.647 20.396,94.875 20.846,95.090 21.167 C 95.304 21.488,95.567 22.102,95.674 22.531 C 95.920 23.524,96.333 23.934,96.822 23.673 C 97.245 23.446,97.130 23.166,96.224 22.221 C 95.405 21.366,94.932 19.771,95.293 19.082 C 95.494 18.699,95.496 18.600,95.308 18.481 C 94.914 18.231,93.833 18.308,93.723 18.593 M98.292 18.448 C 98.131 18.490,98.000 18.553,98.000 18.587 C 98.000 18.711,98.838 19.551,98.896 19.484 C 99.571 18.710,99.269 18.193,98.292 18.448 M103.958 18.444 C 103.454 18.583,103.640 18.825,104.335 18.936 C 105.579 19.135,106.000 19.858,106.002 21.797 L 106.003 23.417 105.460 23.873 C 104.681 24.527,105.573 24.933,106.969 24.559 L 107.355 24.455 106.862 23.936 C 106.390 23.438,106.366 23.340,106.294 21.583 C 106.178 18.737,105.621 17.988,103.958 18.444 M110.239 18.617 C 109.950 18.905,109.987 18.918,111.217 18.965 C 112.604 19.018,112.691 19.078,112.888 20.119 C 113.033 20.886,112.569 21.167,111.155 21.167 C 109.781 21.167,109.414 20.879,109.666 20.001 C 109.853 19.350,109.767 19.189,109.367 19.441 C 108.479 20.000,108.753 22.911,109.790 23.948 L 110.545 24.703 111.599 24.635 C 113.153 24.537,113.363 24.000,111.848 24.000 C 110.659 24.000,110.099 23.746,109.771 23.056 C 109.296 22.062,109.652 21.833,111.672 21.833 C 113.641 21.833,113.757 21.748,113.589 20.408 C 113.501 19.699,113.396 19.451,113.144 19.358 C 112.963 19.291,112.724 19.052,112.612 18.826 C 112.340 18.278,110.722 18.136,110.239 18.617 M115.670 18.490 C 115.461 18.626,115.491 18.724,115.859 19.117 C 116.099 19.374,116.347 19.752,116.409 19.958 C 116.551 20.427,117.167 20.184,117.167 19.659 C 117.167 19.478,117.317 19.202,117.500 19.045 C 117.977 18.636,117.917 18.532,117.208 18.543 C 116.865 18.548,116.433 18.502,116.250 18.440 C 116.067 18.379,115.805 18.401,115.670 18.490 M118.292 18.444 C 117.788 18.583,117.973 18.825,118.668 18.936 C 119.134 19.011,119.483 19.209,119.819 19.592 C 120.408 20.263,120.619 19.913,120.184 18.988 C 119.911 18.408,119.186 18.199,118.292 18.444 M21.256 19.998 C 20.323 20.737,20.230 20.917,20.074 22.295 C 19.943 23.458,20.218 24.148,20.999 24.609 C 21.275 24.772,21.500 24.962,21.500 25.032 C 21.500 25.327,22.549 25.667,23.462 25.667 C 24.532 25.667,25.990 24.812,26.464 23.906 C 26.924 23.029,26.688 20.612,26.113 20.304 C 25.921 20.202,25.636 19.960,25.480 19.767 C 25.233 19.462,24.995 19.412,23.640 19.380 L 22.083 19.342 21.256 19.998 M29.292 19.897 C 28.461 20.635,28.412 21.462,29.167 22.000 C 29.751 22.416,29.784 22.639,29.344 23.199 C 28.826 23.857,28.762 24.384,29.157 24.741 C 29.634 25.173,29.576 25.527,28.962 25.917 C 28.222 26.387,28.087 27.025,28.604 27.618 C 28.827 27.874,29.085 28.177,29.178 28.292 C 29.542 28.742,33.115 28.567,33.432 28.083 C 33.582 27.854,33.808 27.667,33.935 27.667 C 34.226 27.667,35.167 26.382,35.167 25.985 C 35.167 25.821,35.242 25.640,35.333 25.583 C 35.632 25.399,35.509 25.141,35.173 25.248 C 34.852 25.350,34.670 25.209,34.106 24.425 C 33.907 24.148,33.594 24.085,31.968 23.996 C 29.910 23.884,29.667 23.813,29.667 23.331 C 29.667 22.989,29.910 22.924,31.795 22.761 C 33.096 22.649,34.000 21.906,34.000 20.948 C 34.000 19.619,36.007 19.297,36.958 20.473 C 37.097 20.645,37.167 21.355,37.167 22.609 L 37.167 24.488 36.567 24.896 C 35.610 25.546,37.662 26.040,39.080 25.501 L 39.515 25.336 38.928 24.821 L 38.342 24.306 38.296 21.862 L 38.250 19.417 34.083 19.380 L 29.917 19.343 29.292 19.897 M41.052 19.453 C 40.914 19.548,41.030 19.711,41.427 19.983 L 42.000 20.376 42.000 22.427 L 42.000 24.477 41.477 24.849 C 40.774 25.350,41.172 25.669,42.490 25.661 C 43.233 25.656,44.727 25.194,44.068 25.173 C 43.246 25.146,43.315 20.943,44.154 19.932 C 44.279 19.782,44.349 19.627,44.310 19.588 C 44.164 19.442,41.241 19.320,41.052 19.453 M44.671 19.494 C 44.396 19.668,44.343 19.640,45.605 19.982 C 46.620 20.256,46.717 20.460,46.800 22.486 C 46.874 24.275,46.872 24.284,46.413 24.709 C 45.694 25.376,45.936 25.667,47.213 25.667 C 48.691 25.667,49.016 25.404,48.341 24.757 C 47.834 24.271,47.833 24.270,47.833 22.380 C 47.833 21.106,47.755 20.301,47.592 19.911 L 47.350 19.333 46.134 19.336 C 45.464 19.337,44.806 19.408,44.671 19.494 M24.592 20.110 C 25.226 20.353,25.363 23.774,24.771 24.583 C 24.473 24.990,22.464 25.035,22.072 24.643 C 21.716 24.288,21.552 21.865,21.817 20.888 C 22.076 19.934,23.265 19.600,24.592 20.110 M32.300 20.217 C 32.436 20.324,32.498 20.671,32.466 21.152 L 32.417 21.917 31.667 22.027 C 30.744 22.163,30.112 21.795,30.027 21.071 C 29.915 20.118,31.445 19.543,32.300 20.217 M120.167 23.242 C 120.167 23.375,120.073 23.543,119.958 23.617 C 119.087 24.174,119.262 24.662,120.333 24.662 C 121.307 24.662,121.427 24.480,120.976 23.689 C 120.587 23.009,120.167 22.776,120.167 23.242 M115.917 23.914 C 115.325 24.401,115.528 24.662,116.500 24.662 C 117.462 24.662,117.672 24.406,117.116 23.914 C 116.542 23.406,116.533 23.406,115.917 23.914 M33.329 25.963 C 33.790 26.336,33.662 27.402,33.122 27.691 C 32.725 27.903,30.067 27.806,29.850 27.571 C 29.541 27.237,29.483 26.208,29.757 25.933 C 30.159 25.531,32.824 25.554,33.329 25.963 M107.254 39.514 C 107.083 39.958,107.241 54.083,107.417 54.083 C 107.643 54.083,107.732 39.666,107.507 39.441 C 107.401 39.334,107.313 39.360,107.254 39.514 M70.276 42.311 C 70.016 42.413,70.086 42.506,70.722 42.908 C 71.401 43.337,71.487 43.464,71.586 44.183 C 71.789 45.659,71.619 45.813,69.632 45.955 C 68.497 46.036,68.299 46.101,67.936 46.508 C 67.709 46.762,67.390 47.045,67.227 47.136 C 66.550 47.515,66.723 50.534,67.468 51.345 C 67.715 51.614,68.015 51.948,68.135 52.088 C 68.318 52.300,68.814 52.334,71.164 52.296 C 73.695 52.255,74.681 52.107,74.009 51.869 C 73.034 51.524,73.000 51.350,73.000 46.763 C 73.000 42.730,72.983 42.503,72.678 42.339 C 72.315 42.145,70.745 42.126,70.276 42.311 M10.279 43.310 C 10.011 43.416,10.031 43.458,10.446 43.666 C 11.540 44.215,11.500 44.054,11.500 47.868 L 11.500 51.350 10.928 51.589 C 9.688 52.107,10.135 52.329,12.417 52.329 C 13.797 52.328,14.729 52.102,14.217 51.893 C 13.397 51.558,13.167 51.153,13.167 50.048 C 13.167 48.690,13.353 48.513,14.788 48.505 C 15.704 48.501,15.857 48.452,16.094 48.090 C 16.242 47.864,16.501 47.636,16.670 47.582 C 17.786 47.228,17.933 44.894,16.910 43.777 L 16.350 43.167 13.467 43.178 C 11.881 43.185,10.446 43.244,10.279 43.310 M15.106 43.961 C 15.211 44.028,15.417 44.374,15.565 44.729 C 16.338 46.585,15.003 48.471,13.489 47.661 C 13.101 47.453,12.998 44.402,13.367 44.033 C 13.585 43.815,14.802 43.764,15.106 43.961 M86.664 45.611 C 85.123 47.290,85.138 48.443,86.716 49.875 C 88.330 51.340,90.853 49.659,90.489 47.361 C 90.163 45.298,87.900 44.263,86.664 45.611 M94.307 45.559 C 93.980 45.887,93.618 46.382,93.503 46.661 C 93.387 46.939,93.227 47.167,93.146 47.167 C 92.564 47.167,93.561 49.357,94.455 50.042 C 96.317 51.467,99.239 48.574,97.938 46.594 C 96.828 44.902,95.377 44.489,94.307 45.559 M101.973 45.567 C 100.337 47.236,100.333 48.364,101.955 49.901 C 104.122 51.955,107.151 48.143,105.089 45.957 C 103.971 44.772,102.886 44.636,101.973 45.567 M19.895 46.295 C 19.474 46.636,19.135 47.246,19.284 47.395 C 19.584 47.695,20.649 47.486,20.954 47.067 C 21.507 46.309,22.755 46.684,22.738 47.603 C 22.717 48.753,22.635 48.833,21.464 48.840 C 20.513 48.847,20.357 48.900,19.771 49.418 C 18.160 50.840,20.001 53.331,21.813 52.183 C 22.104 51.998,21.910 51.667,21.511 51.667 C 20.839 51.667,20.546 49.962,21.167 49.664 C 22.603 48.976,23.219 49.371,22.838 50.733 C 22.474 52.034,23.149 52.484,25.096 52.241 C 25.917 52.139,26.229 51.833,25.513 51.833 C 24.588 51.833,24.333 51.271,24.333 49.234 C 24.333 47.452,24.304 47.282,23.895 46.663 L 23.456 46.000 21.853 46.004 C 20.586 46.007,20.175 46.068,19.895 46.295 M27.434 46.619 C 26.172 47.950,27.082 49.667,29.050 49.667 C 29.337 49.667,30.527 51.024,30.439 51.252 C 30.320 51.563,29.012 51.731,27.734 51.600 C 26.754 51.500,26.667 51.517,26.667 51.811 C 26.667 52.590,30.014 52.603,30.897 51.828 C 32.020 50.842,31.810 48.833,30.584 48.833 C 30.168 48.833,29.871 48.713,29.617 48.440 C 29.415 48.223,28.916 47.877,28.508 47.669 L 27.765 47.292 28.166 46.967 C 28.551 46.655,30.155 46.584,31.000 46.841 C 31.176 46.894,31.250 46.793,31.250 46.500 C 31.250 46.088,31.233 46.083,29.641 46.036 L 28.032 45.988 27.434 46.619 M34.226 46.536 C 32.898 47.942,33.719 49.667,35.717 49.667 C 36.022 49.667,37.204 50.997,37.111 51.237 C 36.990 51.553,35.707 51.736,34.497 51.609 C 33.768 51.533,33.511 51.564,33.446 51.734 C 33.129 52.559,36.640 52.639,37.564 51.828 C 38.687 50.842,38.476 48.833,37.251 48.833 C 36.835 48.833,36.538 48.713,36.284 48.440 C 36.082 48.223,35.583 47.877,35.174 47.669 L 34.432 47.292 34.818 46.979 C 35.241 46.636,36.943 46.535,37.478 46.822 C 37.857 47.024,38.215 46.794,38.139 46.397 C 38.086 46.119,37.891 46.078,36.411 46.036 L 34.743 45.989 34.226 46.536 M39.375 46.110 C 39.043 46.244,39.133 46.455,39.567 46.564 C 40.060 46.688,40.922 48.151,41.170 49.285 C 41.266 49.724,41.487 50.279,41.661 50.519 C 41.834 50.759,42.027 51.222,42.088 51.549 C 42.287 52.608,42.663 52.506,43.313 51.215 C 43.759 50.329,43.759 49.967,43.309 49.567 C 42.088 48.484,41.642 47.103,42.351 46.606 C 42.961 46.179,42.562 45.999,41.032 46.013 C 40.235 46.020,39.490 46.064,39.375 46.110 M44.919 46.604 C 44.517 47.565,44.595 48.084,45.237 48.726 C 45.704 49.193,46.161 50.162,46.166 50.693 C 46.168 51.018,47.101 52.172,47.325 52.129 C 47.785 52.041,47.963 50.175,47.544 49.835 C 47.134 49.503,46.748 48.773,46.586 48.024 C 46.520 47.716,46.286 47.199,46.066 46.876 C 45.846 46.552,45.667 46.222,45.667 46.143 C 45.667 45.750,45.140 46.075,44.919 46.604 M48.686 46.147 C 48.505 46.265,48.552 46.360,48.908 46.593 C 49.420 46.929,50.250 46.766,50.250 46.329 C 50.250 46.043,49.059 45.904,48.686 46.147 M52.804 46.636 C 51.706 47.502,51.282 49.025,51.739 50.465 C 52.224 51.993,55.362 52.938,56.589 51.925 C 56.861 51.701,57.308 51.332,57.583 51.106 C 58.231 50.574,58.372 47.453,57.765 47.101 C 57.589 47.000,57.314 46.791,57.152 46.638 C 56.183 45.717,53.972 45.716,52.804 46.636 M59.986 46.181 C 59.819 46.289,59.804 46.370,59.938 46.458 C 61.031 47.187,61.000 47.110,61.000 49.059 C 61.000 50.850,60.994 50.880,60.483 51.462 C 59.806 52.232,60.056 52.389,61.836 52.308 C 63.289 52.242,63.567 52.112,63.040 51.742 C 62.222 51.170,62.167 51.031,62.167 49.559 C 62.167 48.220,62.193 48.115,62.646 47.662 C 62.909 47.399,63.169 47.067,63.224 46.925 C 63.356 46.580,63.652 46.597,63.785 46.958 C 63.974 47.472,64.916 47.707,65.443 47.372 C 65.706 47.204,65.526 46.359,65.188 46.179 C 64.825 45.986,60.287 45.988,59.986 46.181 M56.137 46.812 C 56.862 47.271,56.802 50.912,56.061 51.454 C 55.737 51.691,54.040 51.740,53.696 51.522 C 53.404 51.337,53.175 50.300,53.175 49.167 C 53.175 47.046,53.436 46.672,54.917 46.672 C 55.467 46.672,56.016 46.735,56.137 46.812 M71.137 46.974 C 71.818 47.565,71.829 50.671,71.153 51.347 C 70.800 51.700,69.544 51.791,69.007 51.504 C 68.119 51.029,68.282 47.150,69.205 46.778 C 69.721 46.571,70.797 46.680,71.137 46.974 " stroke="none" fill="#dce3db" fill-rule="evenodd"></path><path id="path2" d="M101.743 14.345 C 101.683 14.443,101.790 14.564,101.983 14.614 C 102.312 14.700,102.333 14.817,102.336 16.561 C 102.339 18.663,102.424 18.947,102.926 18.530 C 103.525 18.033,103.313 14.751,102.660 14.413 C 102.094 14.120,101.891 14.105,101.743 14.345 M87.917 15.325 L 85.417 15.409 88.333 15.496 L 91.250 15.583 91.240 16.375 C 91.229 17.199,91.298 17.302,91.633 16.967 C 92.268 16.332,91.696 15.118,90.803 15.204 C 90.590 15.224,89.292 15.278,87.917 15.325 M13.917 16.333 C 13.973 16.425,14.123 16.500,14.250 16.500 C 14.744 16.500,14.655 16.844,14.092 17.113 L 13.500 17.395 13.500 21.023 L 13.500 24.651 14.125 24.825 C 14.469 24.920,15.237 24.987,15.833 24.973 L 16.917 24.948 15.817 24.849 C 14.110 24.695,14.167 24.830,14.167 20.974 L 14.167 17.655 14.750 17.311 C 15.363 16.949,15.465 16.698,15.133 16.367 C 14.891 16.124,13.768 16.093,13.917 16.333 M37.833 16.266 C 37.833 16.321,37.971 16.564,38.139 16.808 C 38.705 17.625,38.704 17.650,38.133 17.899 L 37.583 18.139 38.176 18.153 C 39.111 18.174,39.374 17.888,39.132 17.108 C 38.933 16.462,37.833 15.750,37.833 16.266 M87.033 16.367 C 86.743 16.657,86.770 18.740,87.068 18.988 C 87.415 19.275,88.588 19.443,88.426 19.182 C 88.357 19.071,88.121 18.911,87.900 18.827 C 87.281 18.592,87.294 16.737,87.917 16.500 C 88.146 16.413,88.333 16.302,88.333 16.254 C 88.333 16.077,87.227 16.173,87.033 16.367 M94.583 18.182 L 93.917 18.286 94.500 18.312 C 95.402 18.353,95.583 18.529,95.293 19.082 C 94.932 19.771,95.405 21.366,96.224 22.221 C 97.122 23.158,97.244 23.447,96.835 23.666 C 96.269 23.969,96.460 24.800,97.045 24.575 C 97.301 24.477,97.667 23.458,97.667 22.840 C 97.667 22.636,97.817 22.279,98.000 22.045 C 98.676 21.186,98.093 21.181,97.308 22.039 L 96.867 22.523 96.661 21.886 C 96.547 21.536,96.277 20.913,96.061 20.501 C 95.582 19.592,95.578 19.487,96.000 19.000 C 96.570 18.343,95.929 17.973,94.583 18.182 M98.833 18.166 C 98.696 18.255,98.658 18.331,98.750 18.333 C 98.842 18.336,99.014 18.400,99.134 18.476 C 99.415 18.654,99.044 19.553,98.737 19.435 C 98.496 19.342,98.297 20.340,98.511 20.568 C 98.684 20.753,99.167 20.386,99.167 20.069 C 99.167 19.946,99.400 19.580,99.684 19.255 C 100.202 18.666,100.241 18.167,99.769 18.167 C 99.636 18.167,99.427 18.130,99.305 18.085 C 99.183 18.040,98.971 18.077,98.833 18.166 M104.678 18.156 C 104.503 18.267,104.592 18.322,105.011 18.362 C 105.876 18.445,106.199 19.256,106.294 21.583 C 106.366 23.350,106.387 23.436,106.873 23.947 L 107.376 24.477 106.813 24.568 C 106.503 24.619,106.063 24.689,105.833 24.724 C 105.604 24.759,105.914 24.798,106.521 24.811 C 107.971 24.840,108.521 24.214,107.455 23.746 C 107.106 23.593,107.078 23.456,107.000 21.500 C 106.952 20.299,106.829 19.263,106.709 19.055 C 106.227 18.212,105.263 17.786,104.678 18.156 M111.750 18.171 L 111.083 18.273 111.746 18.345 C 112.244 18.399,112.460 18.519,112.612 18.826 C 112.724 19.052,112.963 19.291,113.144 19.358 C 113.396 19.451,113.501 19.699,113.589 20.408 C 113.757 21.748,113.641 21.833,111.672 21.833 C 109.652 21.833,109.296 22.062,109.771 23.056 C 110.099 23.746,110.659 24.000,111.848 24.000 C 113.168 24.000,113.197 24.440,111.891 24.659 L 111.083 24.794 112.028 24.814 C 113.188 24.838,113.483 24.733,113.675 24.227 C 113.761 24.002,113.962 23.833,114.145 23.833 C 114.583 23.833,114.705 23.420,114.360 23.107 C 114.031 22.810,113.732 22.939,113.643 23.417 C 113.588 23.706,113.427 23.757,112.420 23.800 L 111.261 23.850 110.628 23.144 C 109.805 22.226,109.917 22.146,112.165 22.040 C 114.703 21.919,115.085 21.405,113.977 19.603 C 113.180 18.308,112.731 18.019,111.750 18.171 M116.104 18.133 C 115.975 18.343,116.917 18.734,117.247 18.608 C 117.593 18.475,117.567 18.167,117.208 18.164 C 117.048 18.163,116.756 18.119,116.560 18.067 C 116.365 18.014,116.159 18.044,116.104 18.133 M119.011 18.156 C 118.836 18.267,118.925 18.322,119.343 18.362 C 120.185 18.443,120.379 18.977,120.344 21.132 C 120.329 22.097,120.380 22.931,120.459 22.985 C 120.724 23.168,121.372 24.350,121.266 24.456 C 121.208 24.514,120.843 24.613,120.455 24.677 C 119.783 24.786,119.798 24.793,120.771 24.812 C 122.109 24.840,122.426 24.539,121.775 23.860 C 121.351 23.417,121.333 23.325,121.333 21.524 C 121.333 18.830,120.305 17.338,119.011 18.156 M89.839 18.661 C 89.462 19.038,89.414 19.260,89.675 19.422 C 89.795 19.496,89.792 19.599,89.663 19.754 C 89.351 20.130,90.061 21.050,90.400 20.711 C 90.566 20.545,90.512 18.527,90.339 18.420 C 90.251 18.366,90.026 18.474,89.839 18.661 M23.417 19.157 L 22.417 19.258 23.808 19.339 C 24.959 19.407,25.248 19.481,25.482 19.769 C 25.637 19.961,25.921 20.202,26.113 20.304 C 26.688 20.612,26.925 23.032,26.465 23.902 C 26.003 24.777,24.673 25.575,23.500 25.682 L 22.417 25.781 23.869 25.807 L 25.321 25.833 26.055 25.119 C 27.207 24.000,28.337 20.920,27.475 21.251 C 27.314 21.312,27.167 21.148,27.021 20.744 C 26.900 20.412,26.627 20.066,26.405 19.964 C 26.185 19.864,25.889 19.606,25.748 19.391 C 25.475 18.973,25.357 18.961,23.417 19.157 M32.000 19.167 L 29.917 19.266 32.625 19.300 C 34.342 19.321,35.333 19.272,35.333 19.167 C 35.333 19.075,35.052 19.015,34.708 19.034 C 34.365 19.052,33.146 19.112,32.000 19.167 M37.250 19.144 L 36.583 19.232 37.417 19.324 L 38.250 19.417 38.296 21.862 L 38.342 24.306 38.918 24.812 C 39.628 25.436,39.505 25.535,37.833 25.681 C 36.660 25.783,36.691 25.788,38.333 25.770 C 40.073 25.750,40.084 25.747,40.132 25.331 C 40.171 24.996,40.079 24.873,39.674 24.720 L 39.167 24.529 39.167 22.040 C 39.167 18.902,39.160 18.892,37.250 19.144 M42.000 19.167 L 41.417 19.289 41.935 19.311 C 42.220 19.323,42.803 19.381,43.230 19.440 C 43.906 19.532,43.994 19.511,43.902 19.273 C 43.790 18.979,43.078 18.940,42.000 19.167 M45.833 19.167 C 45.335 19.272,45.403 19.293,46.300 19.311 C 47.675 19.340,47.833 19.657,47.833 22.380 C 47.833 24.264,47.835 24.273,48.334 24.751 C 48.986 25.375,48.799 25.556,47.367 25.682 C 46.251 25.781,46.251 25.781,47.786 25.807 C 49.649 25.839,50.063 25.530,49.165 24.774 L 48.667 24.355 48.667 22.374 L 48.667 20.393 48.070 19.697 C 47.437 18.957,47.152 18.889,45.833 19.167 M103.000 19.311 C 103.000 19.482,102.850 19.812,102.667 20.045 C 102.107 20.758,102.180 23.238,102.780 23.864 C 103.303 24.411,103.236 24.522,102.289 24.677 C 101.670 24.777,101.731 24.794,102.778 24.812 C 103.993 24.834,104.194 24.730,104.046 24.160 C 104.009 24.019,103.815 23.831,103.615 23.743 C 103.052 23.497,103.055 19.961,103.618 19.506 C 104.035 19.169,103.958 19.000,103.389 19.000 C 103.120 19.000,103.000 19.096,103.000 19.311 M109.708 19.792 C 109.474 20.808,109.740 21.167,110.726 21.167 C 111.444 21.167,111.402 20.904,110.668 20.806 C 110.068 20.725,110.062 20.245,110.654 19.653 C 111.299 19.008,111.298 19.000,110.528 19.000 C 109.903 19.000,109.886 19.017,109.708 19.792 M117.224 19.506 C 117.168 19.784,116.983 20.087,116.811 20.178 C 116.189 20.511,116.363 23.277,117.042 23.847 C 117.669 24.372,117.595 24.518,116.622 24.677 C 116.004 24.777,116.064 24.794,117.111 24.812 C 118.326 24.834,118.527 24.730,118.379 24.160 C 118.343 24.019,118.149 23.831,117.948 23.743 C 117.386 23.497,117.388 19.961,117.951 19.506 C 118.369 19.168,118.291 19.000,117.718 19.000 C 117.414 19.000,117.302 19.114,117.224 19.506 M22.461 20.026 C 21.841 20.253,21.604 21.185,21.712 22.961 C 21.808 24.519,21.935 24.753,22.773 24.910 C 23.547 25.055,23.658 24.924,23.034 24.601 C 21.968 24.050,21.809 20.742,22.832 20.417 C 23.000 20.364,23.228 20.211,23.339 20.077 C 23.583 19.783,23.190 19.760,22.461 20.026 M30.444 20.214 C 29.692 20.815,30.369 22.577,31.162 22.086 C 31.298 22.002,31.252 21.891,31.012 21.723 C 30.560 21.406,30.552 20.599,30.999 20.286 C 31.182 20.158,31.282 20.004,31.221 19.943 C 31.050 19.773,30.952 19.807,30.444 20.214 M34.276 20.138 C 34.124 20.306,34.000 20.683,34.000 20.977 C 34.000 21.597,33.060 22.667,32.515 22.667 C 32.334 22.667,32.140 22.742,32.083 22.833 C 32.022 22.932,32.216 23.000,32.560 23.000 C 33.409 23.000,34.569 21.865,34.578 21.026 C 34.582 20.574,34.676 20.381,34.961 20.239 C 35.566 19.936,35.590 19.833,35.054 19.833 C 34.778 19.833,34.428 19.970,34.276 20.138 M44.028 20.083 C 43.294 21.214,43.325 25.151,44.068 25.172 C 44.662 25.188,43.402 25.597,42.500 25.681 L 41.417 25.781 42.861 25.807 C 43.656 25.822,44.425 25.788,44.570 25.732 C 44.906 25.603,44.923 24.833,44.589 24.833 C 43.580 24.833,43.856 20.736,44.892 20.343 C 45.117 20.257,45.352 20.105,45.413 20.005 C 45.559 19.770,44.181 19.847,44.028 20.083 M87.333 20.049 C 86.942 20.246,86.914 20.348,86.869 21.756 C 86.803 23.840,86.868 23.911,88.861 23.938 C 90.248 23.957,90.299 23.948,89.333 23.855 C 87.708 23.698,87.649 23.634,87.543 21.947 C 87.455 20.525,87.458 20.508,87.877 20.348 C 88.110 20.260,88.350 20.108,88.410 20.010 C 88.563 19.764,87.847 19.789,87.333 20.049 M91.774 22.458 C 91.729 22.619,91.689 23.116,91.685 23.564 C 91.676 24.642,91.882 24.571,88.445 24.674 L 85.417 24.765 88.636 24.799 C 92.184 24.837,92.409 24.787,92.571 23.921 C 92.800 22.705,92.077 21.380,91.774 22.458 M29.949 22.950 C 29.501 23.066,29.656 23.710,30.167 23.852 C 30.396 23.915,31.197 23.974,31.947 23.983 C 33.553 24.003,34.010 24.145,34.319 24.723 C 34.611 25.269,34.992 25.413,35.308 25.096 C 35.530 24.875,35.512 24.829,35.154 24.689 C 34.932 24.602,34.619 24.374,34.460 24.182 C 34.205 23.875,33.988 23.833,32.657 23.833 C 30.848 23.833,30.319 23.643,30.762 23.153 C 31.071 22.812,30.770 22.737,29.949 22.950 M18.776 23.779 C 18.716 23.840,18.667 24.206,18.667 24.593 C 18.667 25.555,18.645 25.561,14.500 25.671 L 10.917 25.766 14.855 25.799 C 19.234 25.837,19.127 25.863,19.282 24.708 C 19.365 24.089,19.048 23.507,18.776 23.779 M35.276 25.613 C 35.216 25.673,35.167 25.848,35.167 26.003 C 35.167 26.386,34.219 27.667,33.935 27.667 C 33.808 27.667,33.584 27.851,33.436 28.077 C 33.185 28.460,33.056 28.492,31.542 28.542 L 29.917 28.597 31.849 28.632 C 33.626 28.664,33.807 28.638,34.099 28.316 C 34.273 28.124,34.619 27.861,34.867 27.733 C 35.190 27.566,35.350 27.321,35.431 26.875 C 35.493 26.531,35.610 26.166,35.690 26.064 C 35.853 25.858,35.460 25.429,35.276 25.613 M29.757 25.933 C 29.562 26.128,29.520 26.363,29.599 26.808 C 29.747 27.641,29.814 27.686,31.022 27.758 C 31.871 27.809,31.957 27.795,31.450 27.686 C 30.691 27.523,30.541 27.389,30.344 26.705 C 30.185 26.151,30.411 25.993,31.667 25.782 C 31.896 25.744,31.620 25.702,31.054 25.689 C 30.309 25.673,29.950 25.740,29.757 25.933 M107.196 39.371 C 107.061 39.506,107.000 40.455,107.000 42.419 C 107.000 46.065,106.577 48.603,106.256 46.887 C 106.031 45.688,104.923 44.828,103.642 44.858 C 103.060 44.872,102.808 44.911,103.083 44.946 C 104.094 45.072,104.321 45.180,104.980 45.852 C 105.697 46.584,105.971 47.496,105.760 48.453 C 105.644 48.983,104.321 50.333,103.918 50.333 C 103.780 50.333,103.667 50.408,103.667 50.500 C 103.667 51.329,105.766 49.913,106.261 48.750 L 106.474 48.250 106.680 48.750 C 106.794 49.026,106.920 50.293,106.961 51.583 C 107.037 53.955,107.175 54.505,107.605 54.148 C 107.937 53.873,107.944 39.632,107.613 39.358 C 107.452 39.224,107.339 39.227,107.196 39.371 M107.627 46.843 C 107.599 51.530,107.525 54.083,107.417 54.083 C 107.241 54.083,107.083 39.958,107.254 39.514 C 107.588 38.641,107.667 40.181,107.627 46.843 M71.583 42.000 L 70.917 42.119 71.636 42.143 C 73.069 42.190,73.000 41.956,73.000 46.763 C 73.000 51.350,73.034 51.524,74.009 51.869 C 74.494 52.041,73.956 52.237,72.702 52.345 L 71.417 52.457 72.917 52.437 C 74.602 52.414,75.042 52.030,74.094 51.408 L 73.667 51.128 73.667 46.740 C 73.667 41.465,73.733 41.615,71.583 42.000 M13.417 43.000 L 10.917 43.097 13.633 43.132 L 16.350 43.167 16.910 43.777 C 17.933 44.894,17.786 47.228,16.670 47.582 C 16.501 47.636,16.242 47.864,16.094 48.090 C 15.857 48.452,15.704 48.501,14.788 48.505 C 13.353 48.513,13.167 48.690,13.167 50.048 C 13.167 51.152,13.422 51.598,14.217 51.883 C 14.718 52.062,14.004 52.258,12.529 52.345 L 10.917 52.441 12.760 52.470 C 15.396 52.513,15.787 52.190,14.179 51.299 C 13.696 51.032,13.667 50.959,13.667 50.018 C 13.667 48.844,13.740 48.777,15.010 48.789 C 16.008 48.798,16.110 48.742,17.980 47.157 C 19.080 46.223,17.713 42.739,16.298 42.868 C 16.088 42.887,14.792 42.947,13.417 43.000 M13.367 44.033 C 12.998 44.402,13.101 47.453,13.489 47.661 C 14.044 47.958,14.496 47.871,14.042 47.554 C 13.573 47.227,13.451 44.167,13.907 44.167 C 14.039 44.167,14.193 44.092,14.250 44.000 C 14.397 43.762,13.608 43.792,13.367 44.033 M88.127 45.003 C 90.992 45.421,91.395 49.002,88.727 50.334 L 88.250 50.572 88.794 50.630 C 89.405 50.695,90.530 49.736,91.033 48.721 C 91.373 48.035,91.018 46.244,90.465 45.857 C 90.275 45.723,89.966 45.439,89.779 45.224 C 89.483 44.883,89.300 44.836,88.345 44.854 L 87.250 44.875 88.127 45.003 M95.791 45.003 C 97.986 45.323,98.982 47.907,97.495 49.422 C 97.085 49.840,96.581 50.223,96.375 50.275 C 95.835 50.411,95.914 50.667,96.496 50.667 C 97.051 50.667,98.378 49.486,98.591 48.802 C 98.657 48.590,98.771 48.378,98.843 48.331 C 99.171 48.119,98.411 46.204,97.728 45.522 C 97.058 44.852,97.010 44.834,95.978 44.854 L 94.917 44.875 95.791 45.003 M21.583 45.833 L 20.417 45.941 21.936 45.971 L 23.456 46.000 23.895 46.663 C 24.304 47.282,24.333 47.452,24.333 49.234 C 24.333 51.227,24.591 51.833,25.439 51.833 C 25.793 51.833,25.706 51.383,25.333 51.285 C 25.023 51.204,25.000 51.058,25.000 49.205 C 25.000 47.231,24.995 47.207,24.486 46.565 C 23.745 45.629,23.758 45.632,21.583 45.833 M29.250 45.819 L 28.083 45.906 29.662 45.995 L 31.241 46.083 31.380 46.792 C 31.523 47.517,31.598 47.592,31.954 47.365 C 32.562 46.979,31.527 45.604,30.700 45.699 C 30.544 45.717,29.892 45.771,29.250 45.819 M35.917 45.811 L 34.750 45.906 36.417 45.995 L 38.083 46.083 38.135 46.792 C 38.192 47.589,38.168 47.568,38.742 47.307 C 39.287 47.059,39.280 46.726,38.720 46.208 C 38.219 45.743,37.682 45.668,35.917 45.811 M41.000 45.833 C 40.284 45.945,40.300 45.951,41.365 45.975 C 42.571 46.002,42.907 46.217,42.351 46.606 C 41.642 47.103,42.088 48.484,43.309 49.567 C 43.788 49.993,43.756 50.410,43.163 51.486 C 42.612 52.486,42.631 52.636,43.281 52.406 C 43.650 52.276,43.775 52.058,44.041 51.083 C 44.217 50.442,44.467 49.833,44.597 49.732 C 44.895 49.498,44.900 48.989,44.610 48.591 C 44.400 48.304,44.357 48.322,43.910 48.882 C 43.390 49.533,43.167 49.539,43.167 48.901 C 43.167 48.675,43.055 48.223,42.919 47.898 C 42.699 47.371,42.701 47.251,42.932 46.805 C 43.423 45.855,42.818 45.551,41.000 45.833 M45.450 45.772 C 45.397 45.825,45.425 45.955,45.512 46.059 C 45.985 46.626,46.480 47.531,46.586 48.024 C 46.747 48.769,47.133 49.503,47.537 49.830 C 48.001 50.205,47.810 51.958,47.284 52.152 C 46.846 52.315,47.199 52.565,47.660 52.419 C 48.358 52.197,49.005 50.000,48.372 50.000 C 48.028 50.000,47.833 49.703,47.833 49.179 C 47.833 49.017,47.686 48.752,47.506 48.589 C 47.326 48.426,47.066 47.904,46.928 47.430 C 46.652 46.481,45.751 45.471,45.450 45.772 M49.344 45.823 C 49.169 45.934,49.254 45.989,49.665 46.029 C 50.351 46.096,50.501 46.431,49.956 46.679 C 49.651 46.818,49.571 46.961,49.628 47.262 L 49.704 47.661 50.133 47.324 C 50.969 46.667,51.107 46.323,50.676 45.974 C 50.266 45.642,49.727 45.581,49.344 45.823 M55.000 45.833 L 53.917 45.942 55.053 45.971 C 56.203 46.000,56.621 46.133,57.152 46.638 C 57.314 46.791,57.589 47.000,57.765 47.101 C 58.372 47.453,58.231 50.574,57.583 51.105 C 57.308 51.331,56.896 51.680,56.667 51.881 C 56.358 52.152,55.949 52.272,55.083 52.346 L 53.917 52.446 55.454 52.473 C 56.918 52.499,57.005 52.480,57.261 52.090 C 57.409 51.864,57.673 51.634,57.849 51.579 C 59.140 51.169,59.216 47.310,57.946 46.641 C 57.747 46.535,57.418 46.273,57.216 46.058 C 57.010 45.838,56.682 45.679,56.466 45.695 C 56.256 45.711,55.596 45.773,55.000 45.833 M61.167 45.835 L 60.417 45.950 61.083 45.977 C 61.450 45.992,62.031 46.050,62.375 46.107 C 62.845 46.185,63.000 46.153,63.000 45.980 C 62.999 45.715,62.307 45.661,61.167 45.835 M64.440 45.782 C 64.377 45.845,64.566 45.977,64.860 46.074 C 65.916 46.422,65.833 47.489,64.750 47.500 C 64.365 47.504,64.308 47.542,64.500 47.667 C 65.335 48.206,66.258 47.573,66.073 46.588 C 65.936 45.857,64.884 45.338,64.440 45.782 M69.460 45.951 C 69.668 45.991,69.968 45.990,70.127 45.948 C 70.286 45.906,70.117 45.874,69.750 45.875 C 69.383 45.877,69.253 45.911,69.460 45.951 M20.937 47.075 C 20.725 47.400,20.513 47.503,20.038 47.511 C 19.480 47.521,19.454 47.540,19.781 47.699 C 20.205 47.904,20.869 47.774,21.226 47.416 C 21.364 47.279,21.600 47.167,21.752 47.167 C 22.138 47.167,21.965 46.761,21.553 46.700 C 21.340 46.668,21.114 46.806,20.937 47.075 M28.151 46.979 L 27.765 47.292 28.508 47.669 C 28.916 47.877,29.415 48.223,29.617 48.440 C 29.871 48.713,30.168 48.833,30.584 48.833 C 31.754 48.833,32.015 50.776,30.979 51.771 C 30.514 52.217,30.363 52.257,28.782 52.345 L 27.083 52.440 29.117 52.470 L 31.150 52.500 31.591 51.922 C 31.833 51.604,32.112 51.360,32.209 51.380 C 32.426 51.425,32.626 50.716,32.535 50.227 C 32.406 49.537,31.518 48.676,30.732 48.478 C 30.323 48.375,29.898 48.168,29.786 48.018 C 29.675 47.868,29.368 47.650,29.104 47.533 C 28.641 47.328,28.635 47.311,28.922 46.994 C 29.336 46.536,28.713 46.524,28.151 46.979 M34.818 46.979 L 34.432 47.292 35.174 47.669 C 35.583 47.877,36.082 48.223,36.284 48.440 C 36.538 48.713,36.835 48.833,37.251 48.833 C 38.421 48.833,38.682 50.776,37.645 51.771 C 37.181 52.217,37.030 52.257,35.448 52.345 L 33.750 52.440 35.772 52.470 L 37.793 52.500 38.387 51.775 C 39.585 50.313,39.168 48.924,37.399 48.478 C 36.990 48.375,36.565 48.168,36.453 48.018 C 36.341 47.868,36.034 47.650,35.771 47.533 C 35.307 47.328,35.302 47.311,35.589 46.994 C 36.003 46.536,35.379 46.524,34.818 46.979 M53.607 46.917 C 53.153 47.371,53.037 50.199,53.430 51.224 C 53.552 51.544,54.120 51.725,54.691 51.627 L 55.083 51.560 54.660 51.380 C 53.992 51.098,53.801 50.745,53.712 49.627 C 53.632 48.611,53.883 47.167,54.141 47.167 C 54.212 47.167,54.415 47.057,54.593 46.922 C 54.900 46.690,54.889 46.677,54.387 46.672 C 54.096 46.669,53.745 46.779,53.607 46.917 M69.205 46.778 C 68.282 47.150,68.119 51.029,69.007 51.504 C 69.404 51.716,70.167 51.714,70.167 51.500 C 70.167 51.408,70.060 51.333,69.929 51.333 C 68.695 51.333,68.529 48.330,69.699 47.185 C 70.237 46.660,69.994 46.461,69.205 46.778 M62.512 47.772 C 62.226 48.137,62.167 48.448,62.167 49.594 C 62.167 51.028,62.225 51.172,63.040 51.742 C 63.553 52.102,63.321 52.220,61.869 52.342 L 60.583 52.450 62.028 52.475 C 64.094 52.511,64.641 52.117,63.480 51.431 L 62.960 51.124 63.032 49.229 C 63.109 47.218,63.059 47.077,62.512 47.772 M49.500 47.972 C 49.500 48.079,49.387 48.167,49.250 48.167 C 49.094 48.167,49.000 48.324,49.000 48.583 C 49.000 48.813,49.068 49.000,49.150 49.000 C 49.324 49.000,49.710 47.988,49.584 47.862 C 49.538 47.816,49.500 47.865,49.500 47.972 M20.708 48.782 C 20.869 48.823,21.131 48.823,21.292 48.782 C 21.452 48.740,21.321 48.705,21.000 48.705 C 20.679 48.705,20.548 48.740,20.708 48.782 M21.033 49.700 C 20.523 50.211,20.886 51.667,21.523 51.667 C 22.368 51.667,22.067 52.185,21.122 52.357 C 20.597 52.453,20.731 52.468,21.645 52.418 C 22.320 52.380,22.903 52.319,22.940 52.282 C 23.098 52.124,22.773 51.667,22.503 51.667 C 22.340 51.667,22.113 51.552,21.997 51.413 C 21.881 51.273,21.747 51.197,21.700 51.245 C 21.516 51.429,21.167 50.935,21.167 50.491 C 21.167 50.169,21.271 49.989,21.500 49.917 C 21.683 49.858,21.833 49.741,21.833 49.655 C 21.833 49.432,21.270 49.464,21.033 49.700 M26.833 51.063 C 26.833 51.508,27.345 51.681,28.563 51.648 L 29.250 51.628 28.621 51.506 C 28.276 51.439,27.821 51.223,27.611 51.026 C 27.112 50.557,26.833 50.571,26.833 51.063 M33.500 51.063 C 33.500 51.508,34.012 51.681,35.229 51.648 L 35.917 51.628 35.288 51.506 C 34.942 51.439,34.487 51.223,34.277 51.026 C 33.779 50.557,33.500 50.571,33.500 51.063 M24.667 52.333 C 24.311 52.447,24.352 52.469,24.948 52.483 C 25.333 52.493,25.693 52.425,25.750 52.333 C 25.870 52.139,25.273 52.139,24.667 52.333 M69.542 52.453 C 69.794 52.491,70.206 52.491,70.458 52.453 C 70.710 52.415,70.504 52.383,70.000 52.383 C 69.496 52.383,69.290 52.415,69.542 52.453 " stroke="none" fill="#d39c5c" fill-rule="evenodd"></path><path id="path3" d="M0.000 34.333 L 0.000 68.667 200.000 68.667 L 400.000 68.667 400.000 34.333 L 400.000 0.000 200.000 0.000 L 0.000 0.000 0.000 34.333 M103.048 14.208 C 103.270 14.375,103.335 14.764,103.371 16.167 L 103.417 17.917 104.500 17.932 C 106.160 17.955,106.564 17.993,106.807 18.147 C 107.099 18.332,107.493 20.596,107.497 22.117 C 107.500 23.174,107.550 23.368,107.917 23.735 C 108.947 24.765,108.140 25.271,105.914 24.991 C 104.651 24.832,104.229 24.833,103.929 24.994 C 103.416 25.268,100.714 24.953,100.341 24.576 C 100.108 24.340,100.135 24.272,100.627 23.866 L 101.170 23.417 101.168 20.063 C 101.166 16.194,101.103 15.706,100.569 15.463 C 99.669 15.053,100.074 14.226,101.226 14.121 C 102.606 13.995,102.774 14.003,103.048 14.208 M92.125 15.332 C 93.069 15.907,92.787 17.087,91.663 17.269 C 91.179 17.348,91.000 17.288,90.636 16.924 C 90.238 16.526,90.093 16.488,89.139 16.533 L 88.083 16.583 88.083 17.667 L 88.083 18.750 88.833 18.716 C 89.378 18.690,89.646 18.588,89.812 18.341 C 90.374 17.503,91.000 18.158,91.000 19.583 C 91.000 21.009,90.374 21.663,89.812 20.826 C 89.646 20.579,89.378 20.476,88.833 20.451 C 87.960 20.411,87.873 20.661,88.082 22.625 L 88.193 23.667 89.342 23.667 C 90.451 23.667,90.501 23.649,90.750 23.167 C 90.892 22.892,91.121 22.667,91.258 22.667 C 91.395 22.667,91.593 22.479,91.697 22.250 C 92.176 21.198,92.833 21.889,92.833 23.446 C 92.833 25.165,92.935 25.129,88.500 25.011 C 84.099 24.895,83.094 24.486,85.221 23.678 L 85.692 23.499 85.638 20.154 C 85.589 17.172,85.552 16.792,85.291 16.646 C 85.130 16.556,84.796 16.308,84.549 16.096 L 84.099 15.709 84.758 15.362 C 85.737 14.846,91.291 14.823,92.125 15.332 M15.509 16.307 C 15.989 16.696,15.851 17.120,15.166 17.359 L 14.660 17.535 14.705 21.059 L 14.750 24.583 15.714 24.633 L 16.678 24.684 17.627 23.758 C 18.148 23.249,18.708 22.790,18.871 22.738 C 19.034 22.686,19.167 22.488,19.167 22.297 C 19.167 21.873,20.011 20.167,20.221 20.167 C 20.304 20.167,20.623 19.893,20.929 19.558 L 21.487 18.949 23.562 18.869 C 25.629 18.790,25.640 18.791,26.077 19.228 C 26.318 19.469,26.583 19.667,26.667 19.667 C 26.750 19.667,27.009 19.857,27.242 20.090 L 27.666 20.514 28.520 19.715 L 29.373 18.917 34.182 18.882 C 40.066 18.841,39.500 18.518,39.500 21.908 L 39.500 24.460 40.004 24.668 C 40.944 25.058,41.167 24.625,41.167 22.411 L 41.167 20.540 40.567 20.082 L 39.968 19.625 40.322 19.271 C 40.661 18.931,40.826 18.917,44.351 18.917 L 48.027 18.917 48.514 19.461 C 49.000 20.005,49.000 20.006,49.000 22.241 C 49.000 24.332,49.022 24.484,49.334 24.583 C 49.821 24.738,50.053 25.255,49.826 25.681 C 49.649 26.011,49.546 26.023,47.695 25.932 C 46.625 25.880,45.563 25.839,45.333 25.843 C 45.104 25.846,43.049 25.880,40.766 25.918 L 36.615 25.987 36.141 26.441 C 35.880 26.691,35.667 27.007,35.667 27.143 C 35.667 27.442,35.187 28.000,34.930 28.000 C 34.829 28.000,34.672 28.169,34.581 28.375 C 34.422 28.739,34.336 28.751,31.703 28.796 L 28.989 28.842 28.229 28.071 C 27.322 27.151,27.306 26.390,28.178 25.697 C 28.640 25.331,28.652 25.288,28.424 24.848 C 28.215 24.444,28.217 24.263,28.435 23.429 C 28.627 22.691,28.640 22.418,28.488 22.236 C 28.165 21.847,28.048 21.961,27.958 22.754 C 27.860 23.624,27.156 24.744,26.490 25.088 C 26.244 25.216,26.002 25.473,25.953 25.660 C 25.871 25.975,25.736 26.000,24.141 25.998 C 21.756 25.996,21.296 25.899,20.907 25.317 C 20.729 25.052,20.488 24.834,20.373 24.834 C 20.257 24.834,20.011 24.590,19.826 24.292 L 19.490 23.750 19.524 24.614 C 19.583 26.077,19.763 26.027,14.644 25.968 C 10.736 25.923,10.143 25.882,9.900 25.638 C 9.502 25.240,9.695 24.928,10.483 24.692 L 11.167 24.487 11.167 21.007 L 11.167 17.528 10.458 17.292 C 9.544 16.987,9.488 16.506,10.333 16.218 C 11.340 15.874,15.054 15.939,15.509 16.307 M39.163 16.245 C 39.425 16.562,39.668 17.636,39.548 17.950 C 39.314 18.558,37.036 18.603,36.308 18.013 C 35.844 17.637,36.134 16.382,36.714 16.258 C 36.917 16.215,37.233 16.148,37.417 16.109 C 38.171 15.950,38.969 16.012,39.163 16.245 M96.296 18.093 C 96.741 18.404,96.773 18.893,96.375 19.292 C 96.097 19.569,96.097 19.597,96.375 19.875 C 96.560 20.060,96.668 20.425,96.669 20.875 C 96.674 22.153,97.224 22.391,97.426 21.202 C 97.484 20.862,97.679 20.373,97.860 20.116 L 98.190 19.649 97.761 19.313 C 96.877 18.616,97.263 18.096,98.788 17.931 C 100.417 17.753,101.221 18.687,100.082 19.433 C 99.801 19.617,99.630 19.919,99.560 20.359 C 99.496 20.758,99.302 21.131,99.060 21.322 C 98.792 21.532,98.610 21.919,98.497 22.516 C 98.405 23.002,98.180 23.558,97.998 23.752 C 97.816 23.946,97.667 24.227,97.667 24.376 C 97.667 24.879,96.962 25.231,96.667 24.876 C 96.529 24.710,96.284 24.601,96.121 24.634 C 95.903 24.677,95.738 24.482,95.489 23.888 C 95.303 23.445,95.080 22.971,94.991 22.833 C 94.747 22.452,94.556 21.987,94.324 21.208 C 94.208 20.819,94.051 20.500,93.976 20.500 C 93.900 20.500,93.721 20.219,93.579 19.875 C 93.437 19.531,93.154 19.122,92.952 18.966 C 92.196 18.385,92.846 18.120,95.671 17.857 C 95.811 17.844,96.093 17.950,96.296 18.093 M121.168 18.251 C 121.416 18.476,121.473 18.885,121.527 20.859 C 121.591 23.183,121.594 23.201,122.046 23.530 C 123.345 24.476,122.368 25.275,120.240 25.007 C 119.009 24.852,118.527 24.851,118.165 25.001 C 117.722 25.184,115.943 25.036,114.958 24.734 C 114.534 24.603,114.601 24.081,115.083 23.765 C 115.741 23.335,115.726 19.771,115.064 19.110 C 114.133 18.179,115.040 17.876,118.562 17.942 C 120.403 17.976,120.934 18.039,121.168 18.251 M113.788 18.458 C 113.950 18.710,114.229 19.038,114.407 19.186 C 114.652 19.389,114.749 19.728,114.802 20.562 C 114.900 22.106,114.826 22.167,112.827 22.167 C 111.047 22.167,110.567 22.261,110.813 22.561 C 110.898 22.665,110.994 22.938,111.026 23.167 C 111.103 23.726,112.336 23.865,112.895 23.378 C 113.534 22.821,114.160 22.581,114.469 22.775 C 114.954 23.079,114.901 23.607,114.343 24.019 C 114.063 24.226,113.833 24.492,113.833 24.609 C 113.833 25.359,110.424 25.249,109.613 24.473 C 109.340 24.213,109.068 24.000,109.008 24.000 C 108.681 24.000,108.000 22.280,108.002 21.460 C 108.003 20.584,108.777 18.833,109.162 18.833 C 109.248 18.833,109.506 18.646,109.735 18.417 C 110.402 17.750,113.351 17.780,113.788 18.458 M103.870 19.964 C 103.328 20.577,103.323 20.598,103.370 22.077 L 103.417 23.572 103.955 23.726 C 104.854 23.983,105.000 23.717,105.000 21.824 C 105.000 19.314,104.773 18.941,103.870 19.964 M111.113 19.458 C 110.817 19.961,110.832 20.644,111.142 20.742 C 111.584 20.882,112.333 20.681,112.333 20.423 C 112.333 19.943,111.306 19.131,111.113 19.458 M118.203 19.964 C 117.661 20.577,117.656 20.598,117.703 22.077 L 117.750 23.572 118.288 23.726 C 119.187 23.983,119.333 23.717,119.333 21.824 C 119.333 19.314,119.107 18.941,118.203 19.964 M35.313 20.376 C 34.893 20.542,34.887 20.566,35.134 20.996 C 35.683 21.953,33.917 23.167,31.975 23.167 C 29.895 23.167,30.619 23.575,32.798 23.630 C 34.614 23.676,34.662 23.688,35.158 24.184 C 35.520 24.546,35.759 24.660,35.999 24.584 C 36.553 24.408,36.436 20.108,35.879 20.184 C 35.808 20.194,35.554 20.280,35.313 20.376 M23.231 20.625 C 23.181 20.785,23.071 21.089,22.986 21.300 C 22.781 21.813,22.791 23.454,23.000 23.583 C 23.092 23.640,23.167 23.865,23.167 24.083 C 23.167 24.547,23.361 24.710,23.741 24.564 C 24.669 24.208,24.802 21.111,23.917 20.461 C 23.629 20.250,23.326 20.322,23.231 20.625 M31.167 21.000 C 31.167 21.481,31.231 21.673,31.375 21.625 C 31.490 21.587,31.583 21.306,31.583 21.000 C 31.583 20.694,31.490 20.413,31.375 20.375 C 31.231 20.327,31.167 20.519,31.167 21.000 M45.028 20.825 C 44.930 21.105,44.772 21.333,44.675 21.333 C 44.338 21.333,44.467 24.198,44.824 24.625 C 45.575 25.526,45.866 24.817,45.798 22.252 C 45.746 20.273,45.427 19.681,45.028 20.825 M30.899 26.236 C 30.425 27.471,32.111 28.029,32.707 26.835 C 32.983 26.282,32.983 26.248,32.707 26.138 C 32.164 25.923,30.995 25.986,30.899 26.236 M389.300 28.867 C 389.558 29.125,389.558 30.042,389.300 30.300 C 389.008 30.592,82.658 30.592,82.367 30.300 C 82.257 30.190,82.167 29.867,82.167 29.583 C 82.167 29.299,82.257 28.977,82.367 28.867 C 82.658 28.575,389.008 28.575,389.300 28.867 M107.905 39.262 C 108.214 39.572,108.308 53.590,108.005 54.158 C 107.286 55.501,106.667 54.385,106.667 51.746 C 106.667 49.447,106.596 49.122,106.214 49.668 C 106.086 49.850,105.873 50.000,105.741 50.000 C 105.608 50.000,105.500 50.110,105.500 50.244 C 105.500 50.713,104.832 50.879,103.304 50.792 L 101.833 50.709 101.008 49.908 C 99.710 48.648,99.667 47.421,100.864 45.775 C 101.868 44.397,104.526 44.154,105.706 45.333 C 106.669 46.296,106.667 46.301,106.667 42.805 C 106.667 39.131,106.953 38.311,107.905 39.262 M73.630 41.926 C 73.996 42.183,74.000 42.230,74.000 46.527 L 74.000 50.869 74.417 51.364 C 74.926 51.969,74.928 52.024,74.458 52.443 C 74.102 52.762,73.927 52.774,70.967 52.681 L 67.851 52.583 67.259 52.009 C 66.933 51.693,66.667 51.348,66.667 51.243 C 66.667 51.138,66.520 50.919,66.340 50.756 C 66.085 50.526,66.003 50.200,65.965 49.272 L 65.917 48.083 65.083 47.972 C 64.625 47.910,64.044 47.808,63.792 47.744 L 63.333 47.628 63.333 49.406 L 63.333 51.184 63.820 51.354 C 64.623 51.634,64.669 52.293,63.910 52.639 C 63.491 52.830,60.058 52.658,59.458 52.415 C 59.171 52.299,59.039 51.667,59.302 51.667 C 59.941 51.667,60.167 50.989,60.167 49.071 L 60.167 47.155 59.583 46.811 C 58.539 46.195,59.010 45.675,60.637 45.649 C 61.249 45.640,62.612 45.615,63.667 45.593 C 65.611 45.554,66.333 45.724,66.333 46.221 C 66.333 46.921,67.066 46.826,67.714 46.042 C 67.976 45.725,68.188 45.667,69.082 45.667 C 70.633 45.667,70.667 45.640,70.667 44.413 C 70.667 43.404,70.646 43.352,70.165 43.139 C 69.889 43.017,69.619 42.778,69.565 42.608 C 69.370 41.994,69.711 41.899,72.838 41.694 C 73.070 41.679,73.426 41.783,73.630 41.926 M17.470 43.083 C 17.650 43.313,17.872 43.500,17.962 43.500 C 18.276 43.500,18.582 44.590,18.583 45.708 L 18.583 46.833 19.083 46.251 L 19.583 45.668 21.917 45.638 C 25.209 45.596,25.333 45.723,25.333 49.135 C 25.333 50.975,25.477 51.450,25.886 50.967 C 26.426 50.330,27.373 50.254,27.838 50.810 C 28.274 51.333,28.976 51.502,29.452 51.200 C 29.764 51.002,28.480 49.833,27.950 49.833 C 27.185 49.833,26.758 49.547,26.348 48.759 L 25.946 47.985 26.416 47.002 C 26.991 45.798,27.218 45.696,29.417 45.652 C 31.792 45.604,32.110 45.634,32.409 45.933 C 32.879 46.403,32.400 48.133,31.862 47.910 C 31.709 47.846,31.396 47.770,31.167 47.741 C 30.938 47.711,30.647 47.533,30.521 47.344 C 30.354 47.093,30.114 47.000,29.632 47.000 C 28.791 47.000,28.855 47.374,29.720 47.514 C 30.071 47.572,30.503 47.801,30.740 48.057 C 31.014 48.353,31.322 48.500,31.667 48.500 C 32.217 48.500,32.821 49.431,32.830 50.292 C 32.834 50.704,33.018 50.758,33.517 50.491 C 33.965 50.251,34.411 50.422,34.638 50.920 C 34.827 51.336,36.016 51.545,36.230 51.199 C 36.385 50.948,35.065 49.833,34.613 49.833 C 33.589 49.833,32.479 48.520,32.759 47.639 C 32.950 47.035,33.629 46.032,33.969 45.850 C 34.303 45.671,38.145 45.533,38.417 45.690 C 38.508 45.743,39.469 45.730,40.552 45.660 C 43.353 45.481,44.073 45.767,43.455 46.813 C 43.125 47.372,43.089 47.942,43.343 48.609 C 43.598 49.281,43.828 48.823,43.831 47.634 C 43.835 46.214,44.283 45.755,45.671 45.752 C 46.427 45.751,46.744 45.818,46.838 46.000 C 47.521 47.328,47.834 48.102,47.839 48.474 C 47.842 48.749,48.000 49.030,48.255 49.216 L 48.667 49.516 48.667 48.353 C 48.667 47.256,48.638 47.169,48.160 46.794 C 47.183 46.030,47.746 45.641,49.844 45.632 C 51.547 45.624,52.435 46.383,51.250 46.833 C 51.021 46.920,50.833 47.057,50.833 47.137 C 50.833 47.218,50.610 47.613,50.336 48.017 C 50.047 48.443,49.838 48.971,49.836 49.279 C 49.835 49.596,49.667 50.006,49.417 50.303 C 49.188 50.575,49.000 50.998,49.000 51.243 C 49.000 52.997,46.363 53.259,45.839 51.558 C 45.481 50.393,45.295 50.000,45.105 50.004 C 44.887 50.009,44.415 51.001,44.250 51.797 C 43.883 53.582,41.770 52.908,40.970 50.750 C 39.518 46.836,39.593 46.961,39.086 47.597 C 38.775 47.988,38.682 48.020,38.361 47.848 C 38.159 47.740,37.920 47.696,37.831 47.752 C 37.741 47.807,37.490 47.660,37.273 47.426 C 36.986 47.116,36.709 47.000,36.259 47.000 C 35.452 47.000,35.546 47.378,36.387 47.514 C 36.738 47.572,37.170 47.801,37.407 48.057 C 37.669 48.340,37.992 48.500,38.300 48.500 C 39.001 48.500,39.349 48.987,39.451 50.115 L 39.539 51.087 38.723 51.956 L 37.908 52.825 35.417 52.678 C 32.998 52.535,32.916 52.518,32.572 52.087 L 32.218 51.643 31.734 52.236 L 31.250 52.830 28.593 52.676 C 26.800 52.572,25.833 52.578,25.616 52.694 C 25.427 52.795,24.977 52.816,24.523 52.746 C 24.098 52.681,22.832 52.639,21.711 52.654 C 19.442 52.684,19.201 52.611,18.587 51.707 C 17.633 50.304,18.689 48.709,20.698 48.517 C 21.637 48.427,21.756 48.375,21.805 48.029 C 21.853 47.687,21.820 47.662,21.524 47.820 C 21.027 48.086,19.676 48.016,18.927 47.685 L 18.270 47.396 17.562 48.113 C 16.895 48.790,16.794 48.834,15.792 48.886 C 14.464 48.955,14.329 49.040,14.350 49.802 C 14.375 50.747,14.545 51.159,15.000 51.385 C 15.504 51.635,15.620 52.193,15.235 52.513 C 14.954 52.746,11.247 52.785,10.139 52.567 C 9.323 52.407,9.349 51.693,10.181 51.379 L 10.686 51.188 10.635 47.733 C 10.597 45.174,10.530 44.260,10.377 44.209 C 9.808 44.020,9.417 43.521,9.601 43.219 C 9.861 42.791,10.506 42.713,14.030 42.689 L 17.142 42.667 17.470 43.083 M14.313 44.214 C 14.222 44.379,14.259 47.333,14.352 47.333 C 14.567 47.333,15.167 46.223,15.167 45.825 C 15.167 45.084,14.513 43.849,14.313 44.214 M90.136 45.083 C 90.335 45.313,90.560 45.500,90.636 45.500 C 91.502 45.500,92.120 48.294,91.430 49.083 C 89.881 50.854,88.802 51.238,86.916 50.688 C 85.351 50.232,84.305 47.978,85.026 46.614 C 85.417 45.875,86.363 44.914,86.800 44.811 C 88.067 44.515,89.761 44.653,90.136 45.083 M98.365 45.668 C 99.308 46.690,99.670 47.682,99.382 48.454 C 99.200 48.944,98.293 50.000,98.055 50.000 C 97.933 50.000,97.833 50.110,97.833 50.244 C 97.833 51.318,94.531 51.014,93.309 49.829 L 92.583 49.125 92.583 47.840 C 92.583 46.629,92.614 46.521,93.125 45.939 C 93.423 45.599,93.667 45.251,93.667 45.166 C 93.667 44.901,94.687 44.697,96.095 44.682 L 97.441 44.667 98.365 45.668 M57.828 46.134 C 58.075 46.405,58.442 46.679,58.642 46.742 C 59.544 47.029,59.868 49.980,59.083 50.765 C 58.854 50.994,58.667 51.240,58.667 51.310 C 58.667 51.381,58.404 51.563,58.083 51.716 C 57.762 51.869,57.500 52.106,57.500 52.241 C 57.500 52.738,56.926 52.832,54.855 52.675 L 52.845 52.522 52.218 51.896 C 50.580 50.258,50.304 49.137,51.164 47.613 C 51.458 47.093,51.798 46.667,51.919 46.667 C 52.040 46.667,52.289 46.460,52.472 46.208 C 52.786 45.777,52.903 45.744,54.444 45.647 C 56.868 45.494,57.301 45.557,57.828 46.134 M54.731 47.292 C 54.681 47.452,54.571 47.756,54.486 47.966 C 54.116 48.893,54.503 51.189,55.050 51.300 C 55.926 51.479,56.395 48.523,55.655 47.484 C 55.267 46.939,54.868 46.856,54.731 47.292 M70.014 47.378 C 69.937 47.583,69.750 48.044,69.600 48.404 C 69.374 48.944,69.360 49.160,69.523 49.654 C 70.299 52.011,70.667 51.827,70.667 49.081 C 70.667 47.147,70.384 46.408,70.014 47.378 M21.833 50.417 C 21.833 50.646,21.862 50.833,21.897 50.833 C 21.932 50.833,21.997 50.646,22.041 50.417 C 22.085 50.188,22.056 50.000,21.977 50.000 C 21.898 50.000,21.833 50.188,21.833 50.417 M389.324 55.572 C 389.432 55.703,389.498 56.097,389.469 56.447 L 389.417 57.083 235.833 57.083 L 82.250 57.083 82.198 56.447 C 82.169 56.097,82.234 55.703,82.343 55.572 C 82.642 55.211,389.025 55.211,389.324 55.572 " stroke="none" fill="#343434" fill-rule="evenodd"></path><path id="path4" d="M100.272 14.476 C 99.935 14.848,100.048 15.226,100.569 15.463 C 101.103 15.706,101.166 16.194,101.168 20.063 L 101.170 23.417 100.627 23.866 C 99.866 24.495,100.212 24.839,101.686 24.919 C 102.271 24.951,102.542 24.939,102.289 24.894 C 102.035 24.848,101.639 24.713,101.409 24.593 L 100.990 24.376 101.571 23.866 L 102.152 23.357 102.096 19.970 C 102.036 16.295,101.886 15.596,101.060 15.154 C 100.530 14.870,100.565 14.679,101.170 14.558 C 101.924 14.407,101.943 14.167,101.202 14.167 C 100.780 14.167,100.453 14.275,100.272 14.476 M84.593 15.446 L 84.102 15.711 84.550 16.097 C 84.796 16.309,85.130 16.556,85.291 16.646 C 85.552 16.792,85.589 17.172,85.638 20.154 L 85.692 23.499 85.221 23.678 C 83.123 24.475,84.129 24.914,88.083 24.927 L 91.250 24.937 88.429 24.881 C 85.187 24.817,84.434 24.554,85.667 23.917 L 86.167 23.658 86.167 20.169 C 86.167 16.541,86.181 16.620,85.423 16.096 C 84.655 15.565,85.349 15.346,87.975 15.291 L 90.417 15.240 87.750 15.210 C 85.584 15.186,84.991 15.230,84.593 15.446 M9.921 16.393 C 9.477 16.717,9.695 17.072,10.483 17.308 L 11.167 17.513 11.167 21.000 L 11.167 24.487 10.483 24.692 C 9.695 24.928,9.502 25.240,9.900 25.638 C 10.143 25.882,10.655 25.918,13.964 25.926 C 17.743 25.935,17.744 25.934,14.448 25.880 C 10.628 25.818,9.826 25.580,11.125 24.896 L 11.750 24.567 11.797 21.325 C 11.853 17.472,11.843 17.411,11.051 17.081 C 10.122 16.692,10.575 16.434,12.383 16.321 L 13.917 16.225 12.074 16.196 C 10.747 16.175,10.144 16.230,9.921 16.393 M36.545 16.276 C 36.084 16.463,35.935 17.711,36.336 18.036 C 36.722 18.348,37.932 18.460,37.750 18.167 C 37.693 18.075,37.520 17.999,37.365 17.997 C 36.715 17.992,36.574 17.731,36.878 17.093 C 37.034 16.767,37.271 16.500,37.404 16.500 C 37.538 16.500,37.693 16.425,37.750 16.333 C 37.855 16.163,36.933 16.119,36.545 16.276 M89.250 16.367 C 89.857 16.464,90.367 16.653,90.548 16.847 C 90.871 17.193,91.167 17.266,91.167 17.000 C 91.167 16.474,90.489 16.167,89.375 16.187 L 88.250 16.207 89.250 16.367 M93.225 18.166 C 92.670 18.390,92.579 18.682,92.970 18.981 C 93.162 19.129,93.437 19.531,93.579 19.875 C 93.721 20.219,93.900 20.500,93.976 20.500 C 94.051 20.500,94.208 20.819,94.324 21.208 C 94.556 21.987,94.747 22.452,94.991 22.833 C 95.080 22.971,95.303 23.445,95.489 23.888 C 95.736 24.478,95.904 24.677,96.119 24.636 C 96.542 24.555,96.584 24.029,96.201 23.610 C 96.019 23.412,95.751 22.829,95.604 22.313 C 95.457 21.798,95.227 21.286,95.094 21.175 C 94.960 21.064,94.763 20.698,94.655 20.362 C 94.548 20.025,94.265 19.541,94.026 19.286 C 93.474 18.694,93.676 18.293,94.600 18.149 C 95.235 18.050,95.231 18.047,94.417 18.034 C 93.958 18.027,93.422 18.086,93.225 18.166 M97.533 18.200 C 97.213 18.521,97.301 18.950,97.761 19.313 L 98.190 19.649 97.862 20.116 C 97.144 21.141,97.405 22.116,98.194 21.356 C 98.478 21.083,98.542 19.006,98.269 18.901 C 97.951 18.779,97.910 18.502,98.208 18.495 C 98.866 18.478,99.050 18.000,98.399 18.000 C 98.033 18.000,97.643 18.090,97.533 18.200 M103.273 18.250 C 103.220 18.387,103.256 18.500,103.352 18.500 C 103.449 18.500,103.497 18.592,103.459 18.706 C 103.388 18.920,104.033 19.333,104.440 19.333 C 105.201 19.333,105.220 23.435,104.461 23.798 C 103.332 24.338,104.728 25.195,106.333 24.947 C 106.647 24.899,106.606 24.876,106.167 24.853 C 105.097 24.797,104.812 24.401,105.460 23.866 L 106.003 23.417 106.002 21.797 C 106.000 19.858,105.579 19.135,104.335 18.936 C 103.504 18.803,103.495 18.660,104.293 18.308 L 104.917 18.032 104.143 18.016 C 103.598 18.005,103.341 18.074,103.273 18.250 M109.735 18.417 C 109.506 18.646,109.248 18.833,109.162 18.833 C 108.777 18.833,108.003 20.584,108.002 21.460 C 108.000 22.280,108.681 24.000,109.008 24.000 C 109.068 24.000,109.353 24.225,109.640 24.500 C 110.120 24.958,110.257 24.999,111.290 24.987 C 112.516 24.973,112.515 24.918,111.285 24.752 C 110.046 24.585,109.072 23.537,108.933 22.222 C 108.781 20.794,108.998 19.622,109.450 19.423 C 109.651 19.334,109.907 19.090,110.020 18.880 C 110.217 18.511,110.821 18.268,111.917 18.118 C 112.192 18.081,111.907 18.039,111.284 18.025 C 110.280 18.003,110.104 18.047,109.735 18.417 M115.042 18.172 C 114.558 18.366,114.571 18.654,115.086 19.142 C 115.728 19.751,115.726 23.345,115.083 23.765 C 114.185 24.354,114.584 24.785,116.139 24.909 C 116.698 24.953,116.879 24.936,116.583 24.867 C 115.482 24.610,115.350 24.392,115.974 23.868 L 116.531 23.400 116.474 21.544 C 116.419 19.757,116.398 19.669,115.933 19.183 L 115.449 18.678 115.849 18.345 L 116.250 18.011 115.833 18.016 C 115.604 18.019,115.248 18.089,115.042 18.172 M117.500 18.250 C 117.500 18.387,117.581 18.500,117.681 18.500 C 117.780 18.500,117.830 18.592,117.793 18.706 C 117.721 18.920,118.367 19.333,118.773 19.333 C 119.534 19.333,119.553 23.435,118.794 23.798 C 117.705 24.319,118.610 25.006,120.333 24.968 C 120.754 24.958,120.800 24.936,120.500 24.887 C 119.343 24.699,119.152 24.393,119.792 23.754 C 121.086 22.461,120.325 19.201,118.668 18.936 C 117.838 18.803,117.828 18.660,118.626 18.308 L 119.250 18.032 118.375 18.016 C 117.701 18.004,117.500 18.057,117.500 18.250 M88.680 18.849 C 88.122 19.072,88.454 19.361,89.076 19.195 C 89.343 19.124,89.592 18.975,89.628 18.866 C 89.707 18.630,89.247 18.622,88.680 18.849 M21.007 19.490 C 20.815 19.760,20.526 20.022,20.364 20.074 C 20.026 20.181,19.167 21.778,19.167 22.297 C 19.167 22.488,19.034 22.686,18.871 22.738 C 18.708 22.790,18.156 23.241,17.645 23.740 C 16.761 24.603,16.665 24.652,15.732 24.709 C 14.867 24.763,14.911 24.774,16.101 24.802 C 17.525 24.835,17.958 24.641,18.460 23.744 C 18.636 23.430,18.646 23.430,18.987 23.739 C 19.179 23.912,19.385 24.004,19.445 23.944 C 19.505 23.884,19.691 24.059,19.858 24.334 C 20.025 24.609,20.257 24.834,20.373 24.834 C 20.488 24.834,20.732 25.056,20.913 25.327 C 21.282 25.878,22.197 26.082,23.750 25.959 L 24.583 25.893 23.635 25.863 C 22.755 25.836,21.500 25.339,21.500 25.019 C 21.500 24.957,21.275 24.772,20.999 24.609 C 20.038 24.042,19.806 22.912,20.270 21.062 C 20.455 20.325,22.127 19.287,23.333 19.161 L 24.417 19.047 22.886 19.024 C 21.372 19.000,21.352 19.005,21.007 19.490 M28.458 19.763 C 27.560 20.620,27.322 21.701,27.985 21.912 C 28.616 22.112,28.702 22.404,28.435 23.429 C 28.217 24.263,28.215 24.444,28.424 24.848 C 28.652 25.288,28.640 25.331,28.178 25.697 C 27.307 26.389,27.322 27.151,28.225 28.067 L 28.981 28.833 31.032 28.807 L 33.083 28.780 31.333 28.664 C 29.583 28.548,29.000 28.421,29.000 28.157 C 29.000 28.080,28.820 27.823,28.600 27.585 C 28.085 27.030,28.226 26.384,28.962 25.917 C 29.576 25.527,29.634 25.173,29.157 24.741 C 28.762 24.384,28.826 23.857,29.344 23.199 C 29.784 22.639,29.751 22.416,29.167 22.000 C 28.382 21.441,28.457 20.628,29.366 19.849 L 30.065 19.250 32.074 19.159 L 34.083 19.068 31.667 19.038 L 29.250 19.008 28.458 19.763 M35.333 19.149 C 35.333 19.354,35.784 19.509,36.067 19.400 C 36.195 19.351,36.664 19.249,37.108 19.175 C 37.886 19.044,37.868 19.038,36.625 19.020 C 35.915 19.009,35.333 19.067,35.333 19.149 M40.265 19.317 C 39.991 19.620,40.004 19.653,40.573 20.086 L 41.167 20.540 41.167 22.411 C 41.167 24.304,40.995 24.833,40.381 24.833 C 40.284 24.833,40.172 25.053,40.133 25.321 L 40.061 25.809 41.409 25.921 C 42.151 25.983,42.943 25.998,43.170 25.956 C 43.398 25.913,43.149 25.869,42.618 25.856 C 41.242 25.824,40.741 25.374,41.489 24.841 L 42.000 24.477 42.000 22.432 L 42.000 20.387 41.410 19.966 L 40.819 19.546 41.285 19.364 C 41.541 19.264,41.938 19.151,42.167 19.114 C 42.396 19.076,42.126 19.035,41.567 19.023 C 40.762 19.005,40.492 19.066,40.265 19.317 M43.833 19.172 C 43.833 19.266,43.946 19.387,44.083 19.440 C 44.221 19.492,44.333 19.640,44.333 19.768 C 44.333 19.896,44.416 20.000,44.518 20.000 C 44.619 20.000,44.661 19.892,44.610 19.760 C 44.518 19.521,45.048 19.275,46.000 19.115 C 46.229 19.077,45.835 19.035,45.125 19.023 C 44.334 19.009,43.833 19.067,43.833 19.172 M111.167 19.167 C 111.167 19.258,111.245 19.333,111.341 19.333 C 111.582 19.333,112.333 20.166,112.333 20.433 C 112.333 20.553,112.071 20.701,111.751 20.761 C 111.087 20.885,111.125 21.167,111.806 21.167 C 112.848 21.167,113.195 20.384,112.637 19.292 C 112.474 18.973,111.167 18.861,111.167 19.167 M35.500 19.917 C 35.327 20.126,35.351 20.167,35.650 20.167 C 36.458 20.167,36.724 24.396,35.929 24.595 C 35.446 24.716,35.329 24.955,35.512 25.447 C 35.671 25.875,36.566 26.059,38.000 25.959 L 38.917 25.895 37.869 25.864 C 37.226 25.845,36.661 25.728,36.405 25.561 L 35.989 25.288 36.578 24.888 L 37.167 24.488 37.167 22.609 C 37.167 20.638,37.110 20.455,36.338 19.941 C 35.832 19.604,35.761 19.602,35.500 19.917 M23.406 20.017 C 23.356 20.098,23.488 20.244,23.699 20.341 C 24.817 20.850,24.790 24.227,23.666 24.584 C 23.137 24.752,23.416 24.943,24.077 24.866 C 24.970 24.761,25.350 23.497,25.097 21.472 C 24.950 20.292,23.831 19.329,23.406 20.017 M88.417 20.000 C 88.313 20.168,88.983 20.500,89.428 20.500 C 89.678 20.500,89.757 20.237,89.542 20.116 C 89.198 19.923,88.508 19.852,88.417 20.000 M31.261 20.149 C 31.210 20.231,31.281 20.341,31.418 20.394 C 31.698 20.502,31.762 21.422,31.500 21.583 C 31.147 21.802,31.358 22.019,31.875 21.969 C 32.842 21.876,32.713 20.000,31.739 20.000 C 31.527 20.000,31.312 20.067,31.261 20.149 M45.333 20.149 C 45.333 20.231,45.446 20.341,45.583 20.394 C 46.306 20.671,45.825 25.000,45.071 25.000 C 44.940 25.000,44.833 25.133,44.833 25.295 C 44.833 25.669,46.192 26.013,47.505 25.971 L 48.417 25.942 47.350 25.846 C 45.979 25.722,45.689 25.381,46.397 24.725 L 46.874 24.282 46.799 22.449 C 46.730 20.790,46.687 20.586,46.343 20.308 C 45.947 19.987,45.333 19.891,45.333 20.149 M111.625 22.121 C 111.923 22.158,112.410 22.158,112.708 22.121 C 113.006 22.084,112.763 22.053,112.167 22.053 C 111.571 22.053,111.327 22.084,111.625 22.121 M91.345 22.588 C 91.123 22.710,90.848 22.984,90.735 23.197 C 90.556 23.532,90.368 23.595,89.306 23.671 L 88.083 23.758 89.311 23.837 C 90.957 23.944,91.608 23.690,91.700 22.906 C 91.736 22.591,91.763 22.341,91.758 22.350 C 91.754 22.359,91.568 22.466,91.345 22.588 M31.208 22.948 C 31.369 22.990,31.631 22.990,31.792 22.948 C 31.952 22.906,31.821 22.872,31.500 22.872 C 31.179 22.872,31.048 22.906,31.208 22.948 M112.924 23.325 C 112.738 23.531,112.348 23.674,111.857 23.716 C 111.431 23.752,111.646 23.774,112.333 23.766 C 113.497 23.751,113.587 23.724,113.637 23.375 C 113.703 22.904,113.329 22.878,112.924 23.325 M31.455 23.787 C 31.750 23.824,32.275 23.824,32.621 23.788 C 32.967 23.752,32.725 23.722,32.083 23.721 C 31.442 23.721,31.159 23.750,31.455 23.787 M31.500 25.833 L 30.917 25.956 31.667 25.990 C 32.931 26.047,33.052 26.144,32.707 26.835 C 32.454 27.342,32.320 27.428,31.667 27.504 L 30.917 27.592 31.866 27.723 C 33.055 27.888,33.424 27.708,33.578 26.884 C 33.773 25.845,33.089 25.499,31.500 25.833 M107.105 39.309 C 106.861 39.579,106.832 40.003,106.875 42.684 L 106.925 45.750 106.962 42.645 C 107.001 39.473,107.127 38.860,107.637 39.371 C 107.946 39.679,107.915 53.891,107.605 54.148 C 107.169 54.510,107.012 53.945,106.958 51.823 L 106.905 49.750 106.869 51.849 C 106.829 54.179,107.085 54.891,107.730 54.246 C 108.134 53.842,108.142 39.665,107.738 39.262 C 107.415 38.938,107.443 38.936,107.105 39.309 M69.761 42.054 C 69.349 42.356,69.536 42.861,70.165 43.139 C 70.646 43.352,70.667 43.404,70.667 44.413 C 70.667 45.640,70.633 45.667,69.082 45.667 C 68.152 45.667,67.985 45.717,67.696 46.083 C 67.516 46.313,67.287 46.500,67.188 46.500 C 67.089 46.500,66.885 46.688,66.735 46.917 C 66.585 47.146,66.367 47.333,66.251 47.333 C 65.889 47.333,65.585 47.818,65.807 48.040 C 65.914 48.148,66.000 48.724,66.000 49.341 C 66.000 50.237,66.064 50.506,66.333 50.750 C 66.517 50.916,66.667 51.138,66.667 51.243 C 66.667 51.952,67.839 52.581,69.217 52.613 C 70.471 52.642,70.512 52.633,69.709 52.507 C 68.461 52.311,68.000 52.180,68.000 52.022 C 68.000 51.945,67.779 51.652,67.510 51.370 C 66.738 50.563,66.525 47.529,67.213 47.144 C 67.369 47.057,67.705 46.762,67.960 46.490 C 68.364 46.058,68.571 45.983,69.586 45.903 C 71.687 45.738,71.788 45.652,71.586 44.183 C 71.487 43.464,71.401 43.337,70.724 42.909 C 69.872 42.371,69.952 42.277,71.500 42.004 C 72.241 41.874,72.236 41.872,71.157 41.853 C 70.483 41.841,69.948 41.918,69.761 42.054 M9.668 43.081 C 9.398 43.407,9.559 43.792,10.065 44.022 C 10.629 44.279,10.662 44.502,10.664 48.056 L 10.667 51.196 10.171 51.383 C 8.466 52.026,9.543 52.675,12.250 52.635 L 14.083 52.607 12.500 52.496 C 10.109 52.328,9.710 52.098,10.928 51.589 L 11.500 51.350 11.500 47.868 C 11.500 44.055,11.540 44.215,10.447 43.667 L 9.978 43.432 10.364 43.265 C 10.576 43.174,11.912 43.053,13.333 42.998 L 15.917 42.897 12.895 42.865 C 10.397 42.839,9.839 42.876,9.668 43.081 M14.257 43.988 C 14.205 44.073,14.298 44.186,14.464 44.239 C 15.400 44.536,15.332 46.506,14.360 47.292 C 14.007 47.577,14.343 47.906,14.829 47.751 C 15.220 47.627,15.833 46.408,15.833 45.757 C 15.833 44.575,14.689 43.290,14.257 43.988 M86.800 44.811 C 85.856 45.032,84.833 46.604,84.833 47.833 C 84.833 49.442,86.005 50.680,87.493 50.645 C 88.226 50.627,88.307 50.602,87.886 50.520 C 86.796 50.308,85.500 48.810,85.500 47.762 C 85.500 46.685,86.997 44.905,88.000 44.788 C 88.570 44.722,88.568 44.720,87.917 44.713 C 87.550 44.709,87.047 44.753,86.800 44.811 M94.208 44.853 C 93.910 44.939,93.667 45.080,93.667 45.166 C 93.667 45.251,93.423 45.599,93.125 45.939 C 92.614 46.521,92.583 46.628,92.583 47.847 L 92.583 49.138 93.392 49.902 C 94.166 50.633,94.243 50.666,95.142 50.648 C 95.993 50.630,96.025 50.617,95.479 50.510 C 94.207 50.262,92.047 47.167,93.146 47.167 C 93.227 47.167,93.388 46.936,93.505 46.655 C 93.853 45.815,94.945 44.861,95.642 44.787 C 96.188 44.729,96.174 44.721,95.500 44.710 C 95.087 44.703,94.506 44.767,94.208 44.853 M101.917 44.855 C 101.407 45.016,100.460 46.148,100.143 46.975 C 99.511 48.627,100.986 50.686,102.770 50.643 C 103.604 50.623,103.659 50.604,103.139 50.518 C 102.110 50.348,100.667 48.693,100.667 47.685 C 100.667 46.769,102.384 44.885,103.309 44.787 C 103.855 44.729,103.840 44.721,103.167 44.710 C 102.754 44.703,102.192 44.768,101.917 44.855 M18.875 46.425 C 18.022 47.333,18.027 47.292,18.745 47.592 C 19.557 47.931,20.036 47.923,19.543 47.578 C 18.676 46.971,19.842 45.966,21.583 45.819 L 22.750 45.721 21.167 45.696 L 19.583 45.671 18.875 46.425 M27.232 45.860 C 27.038 45.953,26.670 46.470,26.413 47.008 L 25.946 47.985 26.348 48.759 C 26.758 49.547,27.185 49.833,27.950 49.833 C 28.218 49.833,28.616 50.064,29.016 50.452 C 29.720 51.136,29.651 51.313,28.667 51.350 L 28.083 51.372 28.750 51.503 C 29.542 51.659,30.330 51.537,30.444 51.240 C 30.528 51.020,29.328 49.667,29.050 49.667 C 25.978 49.667,26.187 46.079,29.274 45.821 L 30.417 45.726 29.000 45.707 C 28.221 45.697,27.425 45.766,27.232 45.860 M33.953 45.849 C 33.618 46.045,32.944 47.054,32.759 47.639 C 32.479 48.520,33.589 49.833,34.613 49.833 C 35.065 49.833,36.385 50.948,36.230 51.199 C 36.184 51.273,35.833 51.342,35.448 51.352 L 34.750 51.372 35.417 51.503 C 36.222 51.662,36.997 51.535,37.116 51.225 C 37.204 50.996,36.010 49.667,35.717 49.667 C 32.685 49.667,32.956 45.958,36.000 45.790 C 37.000 45.735,36.974 45.729,35.667 45.704 C 34.887 45.689,34.117 45.754,33.953 45.849 M38.917 45.895 L 38.417 46.109 38.792 46.310 C 38.998 46.421,39.167 46.628,39.167 46.771 C 39.167 46.913,39.309 47.154,39.484 47.307 C 39.658 47.459,39.966 48.033,40.169 48.583 C 41.549 52.335,41.483 52.208,42.237 52.495 C 42.522 52.604,42.667 52.602,42.667 52.491 C 42.667 52.398,42.562 52.283,42.433 52.233 C 42.305 52.184,42.149 51.876,42.088 51.549 C 42.027 51.222,41.834 50.759,41.661 50.519 C 41.487 50.279,41.266 49.724,41.170 49.285 C 40.922 48.151,40.060 46.688,39.567 46.564 C 38.694 46.345,39.158 46.086,40.876 45.836 L 41.750 45.708 40.583 45.695 C 39.942 45.688,39.192 45.778,38.917 45.895 M44.726 45.832 C 44.101 46.084,43.833 46.663,43.833 47.759 C 43.833 48.865,43.735 49.098,43.390 48.811 C 43.216 48.666,43.167 48.701,43.167 48.970 C 43.167 49.540,43.408 49.511,43.910 48.882 C 44.442 48.215,44.833 48.404,44.833 49.328 C 44.833 49.565,44.976 49.881,45.150 50.031 C 45.325 50.180,45.589 50.720,45.737 51.230 C 46.000 52.134,46.338 52.500,46.909 52.500 C 47.169 52.500,46.975 51.991,46.335 51.000 C 46.247 50.862,46.092 50.424,45.993 50.025 C 45.884 49.590,45.583 49.072,45.239 48.728 C 44.471 47.960,44.497 46.930,45.308 45.958 C 45.588 45.623,45.365 45.574,44.726 45.832 M47.929 45.929 C 47.568 46.289,47.593 46.383,48.167 46.807 C 48.576 47.110,48.667 47.296,48.667 47.838 C 48.667 48.202,48.742 48.500,48.833 48.500 C 48.925 48.500,49.000 48.425,49.000 48.333 C 49.000 48.242,49.104 48.167,49.232 48.167 C 49.360 48.167,49.510 48.048,49.566 47.903 C 49.782 47.339,49.649 47.023,49.044 46.666 L 48.422 46.299 49.003 45.990 L 49.583 45.681 48.887 45.674 C 48.468 45.669,48.086 45.771,47.929 45.929 M52.531 46.167 C 52.290 46.442,52.004 46.667,51.895 46.667 C 51.787 46.667,51.458 47.093,51.164 47.613 C 50.302 49.141,50.579 50.257,52.231 51.909 L 52.871 52.548 54.477 52.594 C 55.816 52.632,55.902 52.621,54.992 52.528 C 53.819 52.408,53.474 52.235,52.375 51.211 C 50.409 49.379,51.956 46.098,54.915 45.824 L 56.083 45.716 54.527 45.691 C 52.993 45.667,52.964 45.674,52.531 46.167 M59.262 45.929 C 58.886 46.305,58.930 46.426,59.583 46.811 L 60.167 47.155 60.167 49.071 C 60.167 50.989,59.941 51.667,59.302 51.667 C 59.228 51.667,59.167 51.813,59.167 51.992 C 59.167 52.429,60.073 52.672,61.583 52.640 L 62.750 52.614 61.667 52.514 C 60.029 52.362,59.840 52.194,60.483 51.462 C 61.517 50.283,61.118 46.502,59.958 46.500 C 59.223 46.499,60.404 45.882,61.333 45.783 C 61.654 45.748,61.378 45.708,60.720 45.693 C 59.828 45.673,59.457 45.733,59.262 45.929 M63.000 45.833 C 63.000 45.925,63.296 46.000,63.657 46.000 C 64.018 46.000,64.360 45.925,64.417 45.833 C 64.480 45.732,64.224 45.667,63.760 45.667 C 63.342 45.667,63.000 45.742,63.000 45.833 M29.583 46.779 C 29.858 46.823,30.285 47.078,30.531 47.345 C 31.030 47.886,31.552 47.853,31.467 47.286 C 31.411 46.911,31.147 46.819,29.917 46.747 C 29.458 46.720,29.308 46.734,29.583 46.779 M36.250 46.779 C 36.525 46.823,36.952 47.078,37.198 47.345 C 37.707 47.898,38.167 47.849,38.167 47.243 C 38.167 46.989,38.065 46.849,37.875 46.840 C 37.715 46.832,37.171 46.797,36.667 46.761 C 36.162 46.726,35.975 46.734,36.250 46.779 M55.411 47.256 C 56.416 48.260,56.211 50.901,55.095 51.333 C 54.781 51.454,54.777 51.477,55.042 51.585 C 56.212 52.057,56.895 50.522,56.592 48.099 C 56.455 46.996,56.180 46.667,55.399 46.667 L 54.822 46.667 55.411 47.256 M63.278 46.778 C 63.072 46.983,63.163 47.667,63.396 47.667 C 63.522 47.667,63.878 47.710,64.188 47.762 L 64.750 47.857 64.303 47.564 C 64.057 47.402,63.820 47.134,63.777 46.968 C 63.696 46.661,63.478 46.578,63.278 46.778 M70.167 46.839 C 70.167 46.933,70.279 47.054,70.417 47.106 C 70.801 47.254,70.778 50.767,70.390 51.196 C 70.046 51.576,70.186 51.740,70.737 51.601 C 72.144 51.248,71.900 46.667,70.474 46.667 C 70.305 46.667,70.167 46.744,70.167 46.839 M21.928 47.198 C 21.881 47.410,21.822 47.771,21.797 48.000 C 21.754 48.383,21.665 48.425,20.698 48.517 C 17.409 48.832,17.376 52.717,20.662 52.642 C 21.260 52.628,21.525 52.586,21.250 52.548 C 20.036 52.382,19.484 52.148,19.326 51.731 C 18.701 50.087,19.871 48.543,21.582 48.757 C 22.623 48.887,22.716 48.793,22.738 47.595 C 22.752 46.785,22.089 46.460,21.928 47.198 M47.833 49.236 C 47.833 49.655,48.029 50.000,48.268 50.000 C 48.552 50.000,48.574 49.474,48.300 49.200 C 48.032 48.932,47.833 48.947,47.833 49.236 M22.125 49.347 C 21.821 49.524,21.720 50.000,21.987 50.000 C 22.078 50.000,22.073 50.241,21.976 50.595 C 21.805 51.212,21.988 51.667,22.406 51.667 C 22.792 51.667,23.069 50.047,22.763 49.579 C 22.614 49.352,22.475 49.169,22.454 49.172 C 22.434 49.175,22.285 49.253,22.125 49.347 M32.599 50.647 C 31.829 51.969,32.508 52.554,34.851 52.588 C 36.104 52.606,36.259 52.594,35.307 52.552 C 33.653 52.479,33.406 52.315,33.477 51.338 C 33.519 50.753,32.846 50.223,32.599 50.647 M25.797 51.096 C 25.652 51.415,25.650 51.602,25.789 51.824 C 25.917 52.030,25.922 52.178,25.804 52.296 C 25.596 52.504,27.956 52.726,29.333 52.627 C 30.026 52.578,29.883 52.553,28.750 52.526 C 26.887 52.481,26.612 52.318,26.766 51.353 C 26.903 50.497,26.160 50.299,25.797 51.096 M22.938 52.299 C 22.821 52.487,23.363 52.661,24.075 52.664 C 24.722 52.667,24.439 52.394,23.644 52.248 C 23.301 52.185,22.995 52.207,22.938 52.299 M72.211 52.620 C 72.464 52.658,72.839 52.657,73.044 52.617 C 73.249 52.578,73.042 52.546,72.583 52.548 C 72.125 52.549,71.957 52.581,72.211 52.620 " stroke="none" fill="#5494ce" fill-rule="evenodd"></path></g></svg>