<svg width="800" height="600" viewBox="0 0 800 600" fill="none" xmlns="http://www.w3.org/2000/svg">
<rect width="800" height="600" fill="#3F3131"/>
<rect x="460" width="340" height="600" fill="#282828"/>
<path d="M567.508 588.082L567.51 587.882L567.77 587.884C568.13 587.887 568.43 587.836 568.671 587.731C568.925 587.627 569.113 587.469 569.235 587.256C569.357 587.044 569.419 586.778 569.422 586.458L569.517 575.378C569.519 575.072 569.462 574.818 569.343 574.617C569.225 574.416 569.04 574.267 568.787 574.172C568.548 574.063 568.248 574.007 567.888 574.004L567.628 574.002L567.63 573.802L573.75 573.854C575.123 573.866 576.294 574.156 577.263 574.724C578.231 575.279 578.964 576.092 579.462 577.163C579.973 578.221 580.222 579.51 580.209 581.03C580.196 582.483 579.939 583.748 579.436 584.823C578.947 585.886 578.22 586.706 577.255 587.285C576.29 587.863 575.081 588.146 573.628 588.134L567.508 588.082ZM573.17 587.93C574.29 587.94 575.198 587.707 575.896 587.233C576.606 586.759 577.126 586.01 577.455 584.986C577.797 583.963 577.975 582.637 577.989 581.011C578.003 579.398 577.847 578.083 577.523 577.067C577.211 576.037 576.705 575.28 576.002 574.794C575.313 574.308 574.415 574.06 573.308 574.051L571.548 574.036L571.43 587.915L573.17 587.93ZM587.117 588.449C585.624 588.436 584.461 587.946 583.629 586.979C582.811 586.012 582.409 584.662 582.424 582.929C582.44 581.062 582.839 579.659 583.62 578.719C584.401 577.779 585.499 577.315 586.912 577.327C588.205 577.338 589.215 577.747 589.942 578.553C590.681 579.359 591.045 580.556 591.031 582.142L591.027 582.622L584.367 582.565C584.369 583.926 584.459 585.02 584.639 585.848C584.819 586.676 585.113 587.285 585.523 587.676C585.947 588.052 586.499 588.244 587.179 588.25C587.685 588.254 588.133 588.164 588.521 587.981C588.923 587.798 589.258 587.527 589.528 587.17C589.798 586.799 589.982 586.347 590.08 585.814C590.239 585.842 590.359 585.923 590.437 586.057C590.516 586.191 590.555 586.332 590.554 586.478C590.552 586.745 590.422 587.037 590.166 587.355C589.91 587.66 589.528 587.923 589.02 588.145C588.524 588.355 587.89 588.456 587.117 588.449ZM589.009 582.405C589.019 581.232 588.953 580.291 588.813 579.583C588.672 578.875 588.443 578.36 588.126 578.037C587.809 577.701 587.39 577.531 586.87 577.527C586.324 577.522 585.876 577.685 585.526 578.015C585.177 578.332 584.912 578.843 584.733 579.548C584.554 580.254 584.432 581.193 584.369 582.365L589.009 582.405ZM593.402 578.843C593.311 578.575 593.206 578.368 593.088 578.22C592.982 578.059 592.857 577.945 592.711 577.877C592.565 577.809 592.378 577.774 592.151 577.772L592.153 577.572L597.153 577.615L597.151 577.815L596.671 577.81C596.245 577.807 595.924 577.864 595.71 577.982C595.509 578.087 595.407 578.28 595.405 578.56C595.404 578.68 595.423 578.82 595.461 578.98C595.5 579.127 595.552 579.301 595.617 579.501L597.159 583.935C597.328 584.416 597.471 584.844 597.588 585.219C597.718 585.58 597.842 585.947 597.959 586.322C598.089 586.683 598.232 587.117 598.387 587.625C598.47 587.373 598.545 587.14 598.613 586.927C598.682 586.715 598.757 586.495 598.839 586.269C598.921 586.043 599.017 585.784 599.126 585.492L601.196 579.669C601.264 579.456 601.319 579.27 601.36 579.111C601.402 578.951 601.423 578.804 601.424 578.671C601.427 578.364 601.309 578.15 601.07 578.028C600.844 577.906 600.478 577.843 599.971 577.839L599.311 577.833L599.313 577.633L603.593 577.67L603.591 577.87L603.031 577.865C602.778 577.863 602.557 577.907 602.37 577.999C602.196 578.091 602.041 578.25 601.906 578.475C601.771 578.701 601.635 579.013 601.498 579.412L598.341 588.345L596.761 588.332L593.402 578.843ZM609.401 588.64C607.908 588.627 606.745 588.137 605.914 587.17C605.095 586.203 604.693 584.853 604.708 583.119C604.724 581.253 605.123 579.849 605.904 578.909C606.686 577.969 607.783 577.505 609.196 577.517C610.49 577.529 611.499 577.937 612.226 578.743C612.966 579.55 613.329 580.746 613.315 582.333L613.311 582.813L606.651 582.756C606.653 584.116 606.744 585.21 606.923 586.038C607.103 586.867 607.398 587.476 607.808 587.866C608.231 588.243 608.783 588.434 609.463 588.44C609.97 588.444 610.417 588.355 610.805 588.172C611.207 587.988 611.543 587.718 611.812 587.36C612.082 586.989 612.266 586.537 612.364 586.005C612.524 586.033 612.643 586.114 612.722 586.248C612.801 586.382 612.839 586.522 612.838 586.669C612.836 586.936 612.707 587.228 612.451 587.546C612.195 587.85 611.813 588.114 611.304 588.336C610.809 588.545 610.175 588.646 609.401 588.64ZM611.293 582.596C611.303 581.422 611.238 580.482 611.097 579.774C610.956 579.066 610.728 578.551 610.41 578.228C610.093 577.892 609.675 577.722 609.155 577.717C608.608 577.712 608.16 577.875 607.81 578.206C607.461 578.523 607.197 579.034 607.017 579.739C606.838 580.444 606.717 581.383 606.653 582.556L611.293 582.596ZM614.526 588.483L614.528 588.283L614.788 588.286C615.188 588.289 615.508 588.238 615.749 588.134C615.99 588.029 616.165 587.864 616.273 587.638C616.382 587.413 616.438 587.12 616.441 586.76L616.541 575.06C616.544 574.687 616.493 574.386 616.388 574.159C616.284 573.931 616.112 573.763 615.873 573.654C615.634 573.546 615.314 573.49 614.914 573.486L614.654 573.484L614.656 573.284L618.436 573.316L618.321 586.676C618.318 587.076 618.369 587.396 618.473 587.637C618.578 587.878 618.75 588.053 618.989 588.162C619.228 588.27 619.547 588.326 619.947 588.33L620.207 588.332L620.206 588.532L614.526 588.483ZM626.195 588.783C624.755 588.771 623.626 588.301 622.807 587.374C621.988 586.447 621.587 585.044 621.603 583.164C621.619 581.297 622.024 579.914 622.819 579.014C623.626 578.101 624.804 577.651 626.35 577.664C627.79 577.676 628.92 578.146 629.738 579.073C630.557 579.987 630.959 581.377 630.943 583.244C630.927 585.123 630.515 586.52 629.707 587.433C628.912 588.346 627.742 588.796 626.195 588.783ZM626.237 588.584C626.89 588.589 627.418 588.414 627.821 588.057C628.224 587.7 628.516 587.13 628.696 586.344C628.889 585.559 628.992 584.52 629.003 583.227C629.014 581.947 628.929 580.913 628.749 580.125C628.583 579.337 628.301 578.767 627.904 578.417C627.507 578.054 626.975 577.869 626.309 577.864C625.655 577.858 625.127 578.034 624.724 578.39C624.321 578.733 624.023 579.298 623.829 580.083C623.649 580.868 623.554 581.9 623.543 583.18C623.532 584.474 623.61 585.514 623.776 586.302C623.956 587.091 624.245 587.666 624.642 588.03C625.052 588.393 625.584 588.578 626.237 588.584ZM632.319 593.436L632.32 593.236L632.48 593.237C632.88 593.24 633.201 593.19 633.442 593.085C633.683 592.981 633.857 592.815 633.966 592.59C634.074 592.364 634.13 592.071 634.133 591.711L634.236 579.692C634.239 579.318 634.189 579.018 634.084 578.79C633.979 578.563 633.807 578.395 633.568 578.286C633.329 578.177 633.01 578.121 632.61 578.118L632.35 578.115L632.351 577.915L636.091 577.947L636.067 580.727L636.107 580.728C636.303 579.716 636.656 578.972 637.166 578.497C637.691 578.008 638.399 577.767 639.293 577.775C640.599 577.786 641.582 578.261 642.241 579.2C642.913 580.139 643.241 581.522 643.225 583.349C643.21 585.175 642.851 586.559 642.15 587.499C641.462 588.44 640.464 588.905 639.158 588.894C638.291 588.887 637.606 588.634 637.104 588.136C636.602 587.639 636.261 586.876 636.084 585.848L636.044 585.847C636.055 586.061 636.06 586.281 636.058 586.507C636.056 586.734 636.054 586.961 636.052 587.187C636.05 587.401 636.048 587.621 636.046 587.847L636.014 591.627C636.011 592.014 636.062 592.328 636.166 592.569C636.271 592.823 636.442 593.004 636.682 593.113C636.921 593.222 637.24 593.278 637.64 593.281L637.7 593.282L637.698 593.482L632.319 593.436ZM638.82 588.591C639.407 588.596 639.875 588.427 640.225 588.083C640.588 587.726 640.853 587.162 641.019 586.39C641.186 585.605 641.275 584.579 641.285 583.312C641.296 582.059 641.225 581.051 641.071 580.29C640.918 579.515 640.663 578.953 640.306 578.603C639.949 578.254 639.477 578.076 638.89 578.071C638.25 578.066 637.722 578.261 637.305 578.658C636.902 579.041 636.597 579.618 636.39 580.39C636.197 581.162 636.095 582.128 636.085 583.287C636.075 584.474 636.167 585.462 636.36 586.25C636.553 587.038 636.855 587.628 637.265 588.018C637.675 588.395 638.194 588.586 638.82 588.591ZM655.934 589.037C655.068 589.03 654.383 588.777 653.881 588.28C653.378 587.782 653.038 587.019 652.86 585.991L652.82 585.991L652.796 588.811L649.136 588.779L649.138 588.579L649.298 588.581C649.698 588.584 650.018 588.533 650.259 588.429C650.5 588.324 650.675 588.159 650.784 587.933C650.892 587.708 650.948 587.415 650.951 587.055L651.051 575.355C651.054 574.982 651.004 574.681 650.899 574.454C650.794 574.226 650.622 574.058 650.383 573.949C650.144 573.841 649.825 573.785 649.425 573.781L649.365 573.781L649.366 573.581L652.946 573.611L652.915 577.291C652.913 577.518 652.91 577.824 652.907 578.211C652.904 578.584 652.893 579.004 652.876 579.471C652.872 579.924 652.862 580.391 652.844 580.871L652.884 580.871C653.079 579.859 653.432 579.116 653.943 578.64C654.467 578.151 655.176 577.91 656.069 577.918C657.376 577.929 658.359 578.404 659.017 579.343C659.689 580.282 660.018 581.665 660.002 583.492C659.992 584.705 659.829 585.731 659.516 586.568C659.202 587.392 658.743 588.015 658.14 588.436C657.549 588.844 656.814 589.045 655.934 589.037ZM655.597 588.734C656.184 588.739 656.652 588.57 657.001 588.226C657.364 587.87 657.629 587.305 657.796 586.533C657.963 585.748 658.051 584.722 658.062 583.455C658.073 582.202 658.002 581.195 657.848 580.433C657.695 579.659 657.439 579.097 657.082 578.747C656.725 578.397 656.254 578.22 655.667 578.215C654.694 578.206 653.983 578.64 653.536 579.516C653.102 580.393 652.877 581.698 652.862 583.431C652.852 584.618 652.944 585.605 653.137 586.393C653.33 587.182 653.632 587.771 654.042 588.161C654.452 588.538 654.97 588.729 655.597 588.734ZM661.391 593.484C662.338 593.492 663.098 593.425 663.673 593.284C664.247 593.155 664.703 592.939 665.039 592.635C665.388 592.345 665.678 591.961 665.908 591.483C666.152 591.018 666.404 590.46 666.663 589.809L662.371 579.472C662.253 579.178 662.135 578.957 662.017 578.809C661.911 578.648 661.799 578.534 661.679 578.466C661.56 578.398 661.414 578.364 661.24 578.362L660.84 578.359L660.842 578.159L665.642 578.2L665.64 578.4L665.58 578.399C665.207 578.396 664.906 578.454 664.679 578.572C664.464 578.677 664.356 578.876 664.354 579.169C664.353 579.289 664.371 579.429 664.41 579.589C664.449 579.736 664.507 579.904 664.586 580.091L666.27 584.286C666.375 584.526 666.479 584.787 666.583 585.068C666.688 585.349 666.792 585.637 666.896 585.931C667 586.225 667.098 586.506 667.189 586.773C667.28 587.041 667.364 587.288 667.442 587.516C667.62 586.997 667.791 586.505 667.955 586.04C668.119 585.561 668.256 585.156 668.365 584.823L669.864 580.256C669.933 580.07 669.981 579.904 670.009 579.757C670.037 579.611 670.051 579.478 670.052 579.358C670.055 579.051 669.95 578.823 669.738 578.675C669.539 578.513 669.207 578.43 668.74 578.426L667.9 578.419L667.902 578.219L672.062 578.255L672.06 578.455L671.9 578.453C671.58 578.451 671.313 578.488 671.099 578.567C670.898 578.645 670.73 578.797 670.595 579.022C670.46 579.248 670.317 579.573 670.167 579.999L667.17 589.013C666.855 589.971 666.548 590.755 666.249 591.366C665.951 591.976 665.607 592.453 665.217 592.797C664.828 593.14 664.339 593.376 663.751 593.504C663.177 593.633 662.449 593.693 661.569 593.686L661.389 593.684L661.391 593.484ZM677.251 589.02L677.252 588.82L677.512 588.822C677.872 588.825 678.173 588.774 678.414 588.669C678.668 588.565 678.856 588.407 678.978 588.194C679.1 587.982 679.162 587.716 679.165 587.396L679.259 576.316C679.262 576.01 679.204 575.756 679.086 575.555C678.968 575.354 678.782 575.205 678.53 575.11C678.29 575.001 677.991 574.945 677.631 574.942L677.371 574.94L677.373 574.74L683.192 574.79L683.191 574.99L682.931 574.988C682.571 574.984 682.264 575.035 682.009 575.14C681.769 575.244 681.587 575.403 681.465 575.615C681.344 575.827 681.281 576.094 681.279 576.413L681.235 581.493L687.715 581.549L687.758 576.469C687.761 576.149 687.703 575.882 687.585 575.667C687.467 575.453 687.288 575.291 687.049 575.183C686.81 575.074 686.504 575.018 686.131 575.015L685.871 575.013L685.872 574.813L691.692 574.862L691.69 575.062L691.43 575.06C691.07 575.057 690.77 575.108 690.529 575.213C690.288 575.304 690.1 575.449 689.965 575.648C689.844 575.847 689.782 576.099 689.779 576.406L689.684 587.486C689.681 587.806 689.739 588.073 689.857 588.287C689.989 588.502 690.174 588.663 690.413 588.772C690.652 588.881 690.952 588.937 691.312 588.94L691.572 588.942L691.57 589.142L685.75 589.092L685.752 588.892L686.012 588.894C686.385 588.898 686.692 588.847 686.933 588.742C687.174 588.638 687.356 588.479 687.477 588.267C687.599 588.055 687.662 587.788 687.664 587.468L687.713 581.749L681.233 581.693L681.185 587.413C681.182 587.733 681.239 588 681.358 588.215C681.476 588.429 681.654 588.59 681.894 588.699C682.146 588.808 682.452 588.864 682.812 588.867L683.072 588.869L683.07 589.069L677.251 589.02ZM698.068 589.397C696.628 589.385 695.498 588.915 694.679 587.988C693.861 587.061 693.459 585.658 693.475 583.778C693.491 581.911 693.897 580.528 694.691 579.628C695.499 578.715 696.676 578.265 698.223 578.278C699.663 578.291 700.792 578.76 701.611 579.687C702.43 580.601 702.831 581.991 702.815 583.858C702.799 585.738 702.387 587.134 701.579 588.047C700.785 588.961 699.614 589.411 698.068 589.397ZM698.109 589.198C698.763 589.203 699.291 589.028 699.694 588.671C700.097 588.315 700.388 587.744 700.568 586.959C700.762 586.174 700.864 585.135 700.875 583.841C700.886 582.561 700.802 581.527 700.622 580.739C700.455 579.951 700.173 579.382 699.776 579.032C699.379 578.668 698.848 578.484 698.181 578.478C697.528 578.472 696.999 578.648 696.596 579.005C696.193 579.348 695.895 579.912 695.702 580.697C695.522 581.482 695.426 582.515 695.415 583.795C695.404 585.088 695.482 586.129 695.649 586.917C695.829 587.705 696.117 588.281 696.514 588.644C696.924 589.008 697.456 589.192 698.109 589.198ZM704.332 589.251L704.334 589.051L704.594 589.053C704.994 589.057 705.314 589.006 705.555 588.901C705.796 588.797 705.971 588.632 706.079 588.406C706.188 588.18 706.244 587.887 706.247 587.527L706.308 580.308C706.312 579.934 706.261 579.634 706.156 579.406C706.051 579.179 705.88 579.011 705.64 578.902C705.401 578.793 705.082 578.737 704.682 578.734L704.622 578.733L704.624 578.533L708.183 578.564L708.166 580.563L708.206 580.564C708.303 580.218 708.446 579.879 708.635 579.547C708.825 579.216 709.107 578.938 709.482 578.715C709.871 578.491 710.385 578.382 711.025 578.388C711.692 578.393 712.197 578.531 712.542 578.801C712.899 579.057 713.076 579.419 713.072 579.885C713.069 580.285 712.919 580.617 712.624 580.882C712.342 581.146 711.867 581.275 711.2 581.269C711.205 580.709 711.142 580.276 711.012 579.968C710.894 579.647 710.73 579.419 710.517 579.283C710.319 579.148 710.099 579.08 709.859 579.078C709.472 579.075 709.165 579.212 708.936 579.49C708.707 579.755 708.537 580.107 708.427 580.546C708.316 580.971 708.246 581.417 708.215 581.884C708.185 582.337 708.168 582.757 708.164 583.144L708.128 587.443C708.124 587.843 708.175 588.164 708.279 588.405C708.384 588.646 708.556 588.82 708.795 588.929C709.047 589.038 709.367 589.094 709.753 589.097L710.013 589.1L710.012 589.3L704.332 589.251ZM713.546 589.33L713.547 589.13L713.807 589.132C714.207 589.135 714.528 589.085 714.769 588.98C715.01 588.876 715.184 588.71 715.293 588.485C715.402 588.259 715.457 587.966 715.461 587.606L715.561 575.906C715.564 575.533 715.513 575.233 715.408 575.005C715.303 574.778 715.132 574.609 714.893 574.501C714.653 574.392 714.334 574.336 713.934 574.333L713.674 574.33L713.676 574.13L717.455 574.163L717.341 587.522C717.338 587.922 717.388 588.243 717.493 588.483C717.598 588.724 717.77 588.899 718.009 589.008C718.248 589.117 718.567 589.173 718.967 589.176L719.227 589.178L719.226 589.378L713.546 589.33ZM725.215 589.629C723.775 589.617 722.646 589.148 721.827 588.22C721.008 587.293 720.607 585.89 720.623 584.01C720.639 582.143 721.044 580.76 721.838 579.86C722.646 578.947 723.823 578.497 725.37 578.51C726.81 578.523 727.939 578.992 728.758 579.919C729.577 580.833 729.978 582.223 729.963 584.09C729.946 585.97 729.534 587.366 728.727 588.279C727.932 589.193 726.762 589.643 725.215 589.629ZM725.257 589.43C725.91 589.435 726.438 589.26 726.841 588.903C727.244 588.547 727.536 587.976 727.716 587.191C727.909 586.406 728.012 585.367 728.023 584.073C728.034 582.793 727.949 581.759 727.769 580.971C727.602 580.183 727.321 579.614 726.924 579.264C726.527 578.9 725.995 578.716 725.328 578.71C724.675 578.704 724.147 578.88 723.744 579.237C723.341 579.58 723.043 580.144 722.849 580.929C722.669 581.714 722.574 582.747 722.563 584.027C722.552 585.32 722.629 586.361 722.796 587.149C722.976 587.937 723.264 588.513 723.661 588.876C724.072 589.24 724.603 589.424 725.257 589.43ZM732.44 580.031C732.349 579.763 732.244 579.556 732.126 579.408C732.02 579.247 731.895 579.133 731.748 579.065C731.602 578.997 731.416 578.962 731.189 578.96L731.191 578.76L736.191 578.803L736.189 579.003L735.709 578.999C735.283 578.995 734.962 579.052 734.748 579.171C734.547 579.276 734.445 579.468 734.443 579.748C734.442 579.868 734.461 580.008 734.499 580.168C734.538 580.315 734.59 580.489 734.655 580.69L736.197 585.123C736.366 585.605 736.509 586.033 736.626 586.407C736.756 586.768 736.88 587.136 736.996 587.51C737.127 587.871 737.27 588.306 737.425 588.814C737.508 588.561 737.583 588.328 737.651 588.116C737.72 587.903 737.795 587.684 737.877 587.458C737.959 587.232 738.054 586.972 738.164 586.68L740.233 580.858C740.302 580.645 740.357 580.459 740.398 580.299C740.44 580.139 740.461 579.993 740.462 579.859C740.465 579.553 740.346 579.338 740.107 579.216C739.882 579.094 739.516 579.031 739.009 579.027L738.349 579.021L738.351 578.821L742.631 578.858L742.629 579.058L742.069 579.053C741.816 579.051 741.595 579.096 741.408 579.187C741.234 579.279 741.079 579.438 740.944 579.664C740.808 579.889 740.672 580.201 740.536 580.6L737.379 589.533L735.799 589.52L732.44 580.031ZM750.273 589.644L750.275 589.444L750.735 589.448C751.095 589.451 751.395 589.4 751.636 589.295C751.89 589.191 752.078 589.032 752.2 588.82C752.322 588.608 752.384 588.342 752.387 588.022L752.426 583.402L748.924 576.612C748.793 576.344 748.662 576.136 748.53 575.988C748.398 575.827 748.252 575.713 748.093 575.645C747.933 575.576 747.74 575.541 747.513 575.54L747.113 575.536L747.115 575.336L752.615 575.383L752.613 575.583L751.933 575.577C751.627 575.575 751.393 575.613 751.232 575.691C751.085 575.77 751.01 575.909 751.009 576.109C751.008 576.243 751.039 576.403 751.105 576.59C751.17 576.778 751.268 577.005 751.399 577.273L753.09 580.607C753.235 580.875 753.366 581.136 753.484 581.391C753.602 581.632 753.713 581.866 753.818 582.094C753.922 582.308 754.021 582.515 754.112 582.716C754.204 582.904 754.283 583.078 754.348 583.238C754.51 582.933 754.707 582.548 754.938 582.083C755.182 581.619 755.439 581.134 755.71 580.63L757.255 577.703C757.418 577.398 757.54 577.132 757.622 576.906C757.704 576.68 757.746 576.487 757.747 576.327C757.749 576.06 757.644 575.879 757.432 575.784C757.219 575.676 756.886 575.62 756.433 575.616L755.633 575.609L755.635 575.409L759.915 575.446L759.913 575.646L759.413 575.641C759.2 575.639 759.006 575.684 758.832 575.776C758.671 575.868 758.503 576.027 758.328 576.252C758.166 576.477 757.976 576.789 757.76 577.187L754.446 583.459L754.407 588.039C754.404 588.359 754.462 588.626 754.58 588.84C754.698 589.055 754.877 589.216 755.116 589.325C755.368 589.434 755.674 589.49 756.034 589.493L756.494 589.497L756.493 589.697L750.273 589.644ZM760.49 589.871C760.13 589.868 759.857 589.752 759.673 589.524C759.501 589.296 759.418 588.955 759.421 588.502C759.425 588.048 759.515 587.709 759.69 587.484C759.879 587.259 760.153 587.148 760.513 587.151C760.873 587.154 761.139 587.27 761.31 587.498C761.495 587.726 761.585 588.067 761.581 588.52C761.578 588.974 761.481 589.313 761.293 589.538C761.117 589.763 760.85 589.874 760.49 589.871ZM763.751 589.759L763.753 589.559L764.013 589.561C764.373 589.564 764.673 589.513 764.914 589.409C765.168 589.304 765.356 589.146 765.478 588.934C765.6 588.721 765.662 588.455 765.665 588.135L765.76 577.056C765.762 576.749 765.704 576.495 765.586 576.294C765.468 576.093 765.282 575.945 765.03 575.849C764.791 575.741 764.491 575.685 764.131 575.682L763.871 575.679L763.873 575.479L769.253 575.525C770.413 575.535 771.371 575.69 772.129 575.99C772.886 576.276 773.45 576.701 773.818 577.264C774.187 577.828 774.367 578.509 774.361 579.309C774.354 580.082 774.189 580.721 773.864 581.225C773.553 581.716 773.15 582.099 772.654 582.375C772.172 582.651 771.67 582.86 771.149 583.002L773.931 587.426C774.208 587.855 774.444 588.217 774.642 588.512C774.853 588.794 775.044 589.022 775.216 589.197C775.388 589.358 775.547 589.48 775.693 589.561C775.852 589.629 776.012 589.664 776.172 589.665L776.232 589.666L776.23 589.866L775.95 589.863C775.324 589.858 774.804 589.833 774.391 589.79C773.992 589.733 773.659 589.644 773.393 589.521C773.128 589.399 772.889 589.224 772.678 588.995C772.48 588.753 772.262 588.445 772.026 588.07L768.988 583.143L767.728 583.133L767.685 588.152C767.682 588.472 767.74 588.74 767.858 588.954C767.976 589.168 768.155 589.33 768.394 589.439C768.646 589.547 768.952 589.603 769.312 589.606L769.572 589.609L769.571 589.809L763.751 589.759ZM769.129 582.945C769.876 582.951 770.47 582.843 770.912 582.62C771.368 582.384 771.697 582.006 771.902 581.488C772.106 580.97 772.212 580.284 772.219 579.431C772.227 578.551 772.126 577.843 771.918 577.308C771.722 576.76 771.399 576.364 770.948 576.12C770.497 575.863 769.898 575.731 769.151 575.724L767.791 575.713L767.729 582.933L769.129 582.945ZM778.614 590.026C778.254 590.023 777.982 589.907 777.797 589.679C777.626 589.451 777.542 589.11 777.546 588.657C777.55 588.203 777.639 587.864 777.815 587.639C778.003 587.414 778.277 587.303 778.637 587.306C778.997 587.309 779.263 587.425 779.434 587.653C779.619 587.881 779.71 588.222 779.706 588.675C779.702 589.128 779.606 589.468 779.417 589.693C779.242 589.918 778.974 590.029 778.614 590.026Z" fill="#BDA0E1"/>
<path d="M480.691 309.701C480.671 308.021 480.843 306.375 481.207 304.762C481.596 303.125 482.141 301.583 482.843 300.134C483.545 298.661 484.381 297.319 485.351 296.107C486.344 294.871 487.423 293.802 488.588 292.9C489.777 291.997 491.041 291.298 492.379 290.802C493.716 290.281 495.093 290.012 496.509 289.995C498.165 289.975 499.453 290.308 500.374 290.992C501.318 291.677 501.798 292.643 501.813 293.891C501.819 294.371 501.753 294.864 501.615 295.37C501.501 295.875 501.315 296.381 501.057 296.889C500.823 297.371 500.541 297.843 500.21 298.303C499.88 298.763 499.513 299.163 499.109 299.504C498.484 299.416 497.94 299.147 497.479 298.696C497.017 298.222 496.722 297.673 496.595 297.051C497.426 296.345 498.078 295.617 498.548 294.867C499.043 294.093 499.287 293.394 499.279 292.77C499.266 291.714 498.6 291.194 497.28 291.21C496.728 291.217 496.154 291.344 495.556 291.591C494.983 291.814 494.399 292.133 493.804 292.548C493.209 292.964 492.627 293.463 492.058 294.046C491.513 294.628 491.005 295.271 490.533 295.972C487.256 300.812 485.648 305.74 485.708 310.756C485.73 312.532 486.023 313.956 486.588 315.03C487.154 316.103 487.893 316.73 488.807 316.911C489.836 316.658 491.136 315.982 492.707 314.883C494.278 313.784 495.989 312.359 497.84 310.609C498.083 310.846 498.23 311.096 498.281 311.359C497.596 312.28 496.887 313.164 496.153 314.013C495.419 314.862 494.684 315.639 493.949 316.344C493.237 317.049 492.525 317.67 491.811 318.206C491.122 318.743 490.479 319.159 489.882 319.454C486.906 319.442 484.64 318.618 483.084 316.98C481.528 315.343 480.73 312.917 480.691 309.701ZM513.125 301.818C513.365 301.815 513.641 301.86 513.954 301.952C514.291 302.02 514.592 302.125 514.858 302.265C515.124 302.382 515.341 302.512 515.511 302.653C515.705 302.795 515.802 302.926 515.804 303.046C515.336 304.06 514.904 305.085 514.509 306.122C514.113 307.135 513.777 308.111 513.5 309.05C513.224 309.99 513.006 310.868 512.848 311.686C512.714 312.504 512.651 313.213 512.658 313.813C512.666 314.485 512.745 315.048 512.895 315.502C513.044 315.932 513.288 316.241 513.626 316.429C513.34 316.625 512.97 316.785 512.516 316.911C512.061 317.036 511.654 317.101 511.294 317.106C509.998 317.121 509.339 316.241 509.318 314.466C509.301 313.098 509.734 311.22 510.618 308.833C510.151 309.943 509.612 310.994 509 311.985C508.387 312.953 507.762 313.812 507.123 314.564C506.484 315.316 505.831 315.936 505.165 316.424C504.523 316.888 503.926 317.171 503.376 317.274C502.487 317.237 501.762 316.825 501.2 316.04C500.639 315.231 500.35 314.202 500.335 312.955C500.319 311.611 500.589 310.191 501.147 308.696C501.705 307.201 502.42 305.813 503.293 304.53C504.189 303.247 505.16 302.179 506.206 301.326C507.251 300.45 508.266 299.981 509.249 299.921C509.49 299.99 509.756 300.131 510.046 300.344C510.361 300.556 510.652 300.804 510.92 301.089C511.211 301.374 511.455 301.671 511.65 301.98C511.846 302.266 511.957 302.517 511.984 302.732C511.025 302.888 510.035 303.368 509.013 304.172C508.015 304.977 507.102 305.948 506.276 307.086C505.473 308.2 504.816 309.396 504.303 310.674C503.791 311.952 503.541 313.144 503.555 314.248C503.56 314.703 503.732 314.989 504.069 315.105C504.763 314.953 505.56 314.355 506.46 313.312C507.359 312.245 508.443 310.612 509.712 308.412C509.947 307.977 510.205 307.494 510.487 306.963C510.792 306.431 511.098 305.875 511.403 305.296C511.708 304.716 512.001 304.136 512.282 303.557C512.586 302.953 512.867 302.374 513.125 301.818ZM517.727 314.003C517.714 312.947 517.948 311.469 518.429 309.567C518.91 307.641 519.591 305.4 520.472 302.845C521.91 298.771 523.261 295.383 524.525 292.679C525.812 289.951 527.07 287.824 528.299 286.297C528.588 286.341 528.937 286.457 529.348 286.644C529.782 286.831 530.205 287.042 530.615 287.277C531.026 287.488 531.389 287.712 531.704 287.948C532.043 288.184 532.261 288.373 532.359 288.516C530.514 290.746 528.899 293.142 527.514 295.703C526.129 298.264 524.868 301.196 523.732 304.498C522.758 307.342 522.022 309.907 521.521 312.193C521.021 314.455 520.78 316.343 520.798 317.854C520.803 318.262 520.806 318.514 520.807 318.61C520.808 318.706 520.822 318.802 520.847 318.898C520.51 318.854 520.221 318.773 519.98 318.656C519.738 318.539 519.581 318.397 519.506 318.23C519.457 318.111 519.323 317.932 519.104 317.695C518.885 317.482 518.691 317.316 518.522 317.198C518.304 317.057 518.12 316.687 517.968 316.089C517.817 315.466 517.736 314.771 517.727 314.003ZM526.226 309.868C526.21 308.5 526.47 307.177 527.006 305.898C527.566 304.595 528.296 303.446 529.196 302.451C530.12 301.432 531.166 300.615 532.335 300.001C533.527 299.362 534.759 299.035 536.031 299.02C537.279 299.005 538.243 299.305 538.922 299.921C539.602 300.537 539.949 301.421 539.963 302.573C539.969 303.124 539.892 303.665 539.73 304.195C539.593 304.701 539.394 305.16 539.135 305.571C538.9 305.982 538.616 306.321 538.283 306.589C537.95 306.833 537.616 306.957 537.28 306.961C536.992 306.965 536.691 306.885 536.377 306.72C536.087 306.532 535.844 306.295 535.648 306.009C537.238 304.526 538.026 303.184 538.011 301.984C538.003 301.288 537.723 300.944 537.171 300.95C536.691 300.956 536.094 301.191 535.379 301.656C534.665 302.121 533.976 302.729 533.313 303.481C532.295 304.646 531.519 305.939 530.984 307.362C530.473 308.76 530.227 310.227 530.246 311.763C530.269 313.707 530.715 314.866 531.584 315.239C531.943 315.187 532.362 315.074 532.84 314.9C533.318 314.726 533.831 314.504 534.38 314.233C534.928 313.939 535.488 313.608 536.06 313.241C536.656 312.873 537.227 312.482 537.774 312.068C537.871 312.139 537.956 312.246 538.03 312.389C538.104 312.532 538.141 312.663 538.143 312.783C537.741 313.292 537.279 313.79 536.757 314.276C536.234 314.763 535.688 315.213 535.117 315.628C534.546 316.019 533.986 316.35 533.437 316.621C532.912 316.915 532.447 317.101 532.039 317.178C531.247 317.115 530.5 316.873 529.798 316.449C529.098 316.049 528.479 315.517 527.943 314.851C527.431 314.186 527.014 313.423 526.691 312.562C526.393 311.702 526.238 310.804 526.226 309.868ZM550.985 315.112C550.524 314.733 550.207 314.257 550.032 313.683C549.881 313.109 549.803 312.618 549.798 312.21C549.792 311.706 549.846 311.273 549.962 310.912C549.866 310.913 549.652 311.107 549.321 311.496C548.99 311.884 548.623 312.344 548.222 312.877C547.844 313.41 547.466 313.93 547.089 314.439C546.711 314.948 546.427 315.323 546.238 315.565C545.93 315.905 545.633 316.173 545.348 316.368C545.086 316.563 544.872 316.674 544.704 316.7C544.32 316.681 543.911 316.602 543.477 316.463C543.067 316.348 542.669 316.173 542.282 315.937C541.919 315.702 541.592 315.418 541.3 315.085C541.032 314.752 540.847 314.371 540.746 313.94C540.738 313.268 540.743 312.716 540.762 312.284C540.805 311.851 540.883 311.382 540.997 310.877C541.202 309.962 541.501 308.926 541.895 307.769C542.313 306.612 542.791 305.478 543.33 304.368C543.868 303.233 544.467 302.182 545.128 301.214C545.812 300.221 546.534 299.444 547.296 298.883C547.512 298.881 547.764 298.902 548.052 298.946C548.341 298.967 548.629 299.023 548.919 299.116C549.232 299.208 549.521 299.324 549.787 299.465C550.076 299.581 550.318 299.747 550.513 299.96C550.3 300.203 549.758 301.013 548.886 302.392C548.039 303.771 547.091 305.75 546.042 308.331C545.926 308.597 545.786 308.982 545.624 309.488C545.462 309.994 545.301 310.524 545.14 311.078C544.978 311.632 544.841 312.174 544.727 312.703C544.638 313.233 544.595 313.653 544.599 313.965C544.601 314.157 544.627 314.301 544.676 314.396C544.749 314.491 544.81 314.563 544.858 314.61C545.217 314.462 545.668 314.06 546.212 313.405C546.756 312.751 547.512 311.746 548.479 310.39C548.715 310.051 548.987 309.663 549.293 309.228C549.624 308.792 549.955 308.332 550.285 307.848C550.615 307.34 550.92 306.82 551.202 306.288C551.507 305.757 551.753 305.226 551.939 304.695C552.031 304.406 552.147 304.069 552.286 303.683C552.449 303.273 552.636 302.851 552.847 302.416C553.082 301.981 553.34 301.546 553.623 301.111C553.93 300.651 554.284 300.226 554.688 299.838C555 299.834 555.336 299.866 555.697 299.933C556.058 300.001 556.395 300.093 556.708 300.209C557.046 300.301 557.335 300.417 557.577 300.558C557.818 300.676 558 300.805 558.122 300.948C557.702 302.009 557.235 303.059 556.72 304.097C556.204 305.135 555.725 306.161 555.281 307.175C554.837 308.164 554.465 309.153 554.165 310.141C553.865 311.128 553.721 312.09 553.732 313.026C553.738 313.53 553.779 313.974 553.856 314.357C553.956 314.715 554.056 315.026 554.155 315.289C554.254 315.528 554.341 315.731 554.415 315.898C554.513 316.065 554.563 316.208 554.564 316.328C554.564 316.352 554.541 316.389 554.493 316.437C554.47 316.461 554.446 316.474 554.422 316.474C554.254 316.476 554.037 316.443 553.773 316.374C553.508 316.305 553.206 316.201 552.869 316.061C552.555 315.945 552.229 315.805 551.891 315.641C551.577 315.476 551.275 315.3 550.985 315.112ZM558.927 313.503C558.914 312.447 559.148 310.968 559.629 309.066C560.11 307.14 560.791 304.9 561.672 302.345C563.11 298.271 564.461 294.882 565.725 292.179C567.012 289.451 568.27 287.324 569.499 285.797C569.788 285.841 570.137 285.957 570.548 286.144C570.982 286.331 571.405 286.542 571.816 286.777C572.226 286.988 572.589 287.211 572.904 287.447C573.243 287.683 573.461 287.873 573.559 288.015C571.714 290.246 570.099 292.642 568.714 295.203C567.329 297.764 566.068 300.695 564.932 303.997C563.959 306.841 563.222 309.407 562.721 311.693C562.221 313.955 561.98 315.842 561.998 317.354C562.003 317.762 562.006 318.014 562.007 318.11C562.008 318.206 562.022 318.302 562.047 318.398C561.71 318.354 561.421 318.273 561.18 318.156C560.938 318.039 560.781 317.897 560.707 317.73C560.657 317.61 560.523 317.432 560.304 317.195C560.085 316.981 559.891 316.816 559.722 316.698C559.504 316.556 559.32 316.186 559.168 315.588C559.017 314.966 558.936 314.271 558.927 313.503ZM579.6 301.011C579.84 301.008 580.117 301.053 580.43 301.145C580.767 301.213 581.068 301.317 581.334 301.458C581.599 301.575 581.817 301.704 581.986 301.846C582.18 301.988 582.278 302.119 582.279 302.239C581.812 303.252 581.38 304.278 580.984 305.315C580.589 306.327 580.253 307.304 579.976 308.243C579.699 309.182 579.482 310.061 579.324 310.879C579.19 311.697 579.126 312.406 579.134 313.006C579.142 313.678 579.221 314.241 579.37 314.695C579.52 315.125 579.763 315.434 580.102 315.622C579.816 315.818 579.446 315.978 578.991 316.104C578.537 316.229 578.13 316.294 577.77 316.298C576.474 316.314 575.815 315.434 575.793 313.658C575.777 312.29 576.21 310.413 577.093 308.026C576.627 309.136 576.087 310.186 575.475 311.178C574.863 312.145 574.237 313.005 573.598 313.757C572.96 314.509 572.307 315.129 571.641 315.617C570.998 316.081 570.402 316.364 569.851 316.467C568.963 316.429 568.238 316.018 567.676 315.233C567.114 314.424 566.826 313.395 566.81 312.147C566.794 310.803 567.065 309.384 567.623 307.889C568.181 306.394 568.896 305.005 569.768 303.723C570.665 302.44 571.636 301.372 572.682 300.519C573.727 299.642 574.741 299.174 575.725 299.114C575.966 299.183 576.231 299.324 576.522 299.536C576.837 299.749 577.128 299.997 577.395 300.282C577.687 300.566 577.93 300.863 578.126 301.173C578.321 301.459 578.433 301.709 578.459 301.925C577.501 302.081 576.511 302.561 575.488 303.365C574.49 304.169 573.578 305.141 572.752 306.279C571.949 307.392 571.292 308.589 570.779 309.867C570.266 311.145 570.017 312.336 570.03 313.44C570.036 313.896 570.207 314.182 570.545 314.298C571.239 314.146 572.036 313.548 572.935 312.505C573.834 311.438 574.919 309.805 576.188 307.605C576.423 307.17 576.681 306.687 576.962 306.155C577.268 305.624 577.573 305.068 577.878 304.488C578.183 303.908 578.476 303.329 578.757 302.749C579.062 302.146 579.343 301.566 579.6 301.011ZM585.625 301.694C585.504 301.551 585.392 301.253 585.29 300.798C585.189 300.319 585.136 299.912 585.132 299.576C585.756 299.616 586.357 299.657 586.933 299.698C587.509 299.715 588.038 299.733 588.518 299.751C588.869 299.026 589.245 298.314 589.644 297.613C590.067 296.888 590.467 296.235 590.844 295.654C591.245 295.049 591.611 294.541 591.942 294.129C592.297 293.716 592.57 293.449 592.76 293.327C593 293.324 593.301 293.368 593.662 293.46C594.047 293.527 594.432 293.63 594.818 293.77C595.203 293.885 595.553 294.013 595.867 294.153C596.18 294.293 596.398 294.435 596.52 294.577C595.811 295.498 595.197 296.357 594.679 297.156C594.184 297.93 593.643 298.824 593.055 299.84C593.535 299.834 594.015 299.816 594.495 299.786C594.999 299.756 595.502 299.714 596.005 299.66C596.127 299.778 596.225 299.933 596.299 300.124C596.373 300.291 596.411 300.471 596.414 300.663C595.243 301.109 593.818 301.366 592.139 301.435C591.553 302.594 591.027 303.753 590.561 304.91C590.119 306.044 589.736 307.14 589.413 308.2C589.113 309.26 588.874 310.259 588.693 311.197C588.536 312.135 588.463 312.976 588.472 313.72C588.484 314.776 588.888 315.359 589.681 315.47C590.4 315.365 591.081 315.177 591.726 314.905C592.371 314.633 592.943 314.29 593.442 313.876C593.588 314.09 593.675 314.269 593.7 314.413C593.559 314.631 593.31 314.886 592.954 315.178C592.621 315.47 592.253 315.751 591.848 316.019C591.443 316.312 591.05 316.557 590.669 316.754C590.287 316.95 590 317.062 589.809 317.088C589.208 317.072 588.607 316.947 588.004 316.714C587.401 316.481 586.845 316.188 586.337 315.834C585.853 315.48 585.452 315.089 585.135 314.661C584.817 314.209 584.656 313.767 584.651 313.335C584.644 312.759 584.707 312.038 584.84 311.172C584.998 310.282 585.214 309.32 585.489 308.284C585.765 307.249 586.088 306.165 586.458 305.032C586.828 303.9 587.235 302.778 587.677 301.669L585.625 301.694ZM596.331 312.941C596.328 312.725 596.337 312.461 596.357 312.148C596.401 311.812 596.468 311.379 596.558 310.85C596.647 310.297 596.759 309.635 596.894 308.866C597.052 308.096 597.245 307.169 597.472 306.086C597.517 305.846 597.62 305.461 597.782 304.931C597.943 304.401 598.153 303.846 598.41 303.267C598.69 302.663 599.019 302.083 599.397 301.527C599.798 300.97 600.273 300.556 600.822 300.285C601.231 300.376 601.774 300.622 602.451 301.022C603.127 301.397 603.71 301.93 604.198 302.62C603.654 303.251 603.193 303.881 602.817 304.509C602.465 305.138 602.137 305.79 601.833 306.465C601.553 307.141 601.285 307.84 601.03 308.563C600.799 309.286 600.532 310.046 600.23 310.841C599.974 311.516 599.742 312.215 599.535 312.938C599.328 313.636 599.215 314.25 599.197 314.778C599.203 315.21 599.194 315.51 599.172 315.678C599.175 315.87 599.116 315.967 598.996 315.969C598.9 315.97 598.707 315.912 598.418 315.796C598.128 315.679 597.826 315.503 597.511 315.267C597.22 315.006 596.952 314.685 596.708 314.304C596.463 313.923 596.337 313.469 596.331 312.941ZM603.017 297.234C603.015 297.09 603.048 296.874 603.117 296.585C602.995 296.467 602.885 296.288 602.786 296.049C602.711 295.81 602.673 295.594 602.67 295.403C602.668 295.187 602.688 294.898 602.732 294.538C602.799 294.153 602.878 293.744 602.969 293.311C603.06 292.878 603.174 292.432 603.313 291.974C603.451 291.493 603.59 291.059 603.729 290.673C604.017 290.67 604.366 290.75 604.776 290.913C605.21 291.051 605.644 291.25 606.079 291.509C606.514 291.744 606.914 292.015 607.277 292.322C607.641 292.606 607.92 292.879 608.115 293.14C607.855 293.407 607.511 293.784 607.085 294.269C606.659 294.73 606.245 295.227 605.843 295.76C605.441 296.269 605.075 296.753 604.745 297.213C604.414 297.674 604.202 298 604.108 298.193C603.82 298.149 603.566 298.032 603.348 297.842C603.13 297.629 603.019 297.426 603.017 297.234ZM609.094 316.458C607.725 316.331 606.626 315.744 605.797 314.698C604.968 313.652 604.544 312.313 604.524 310.681C604.512 309.721 604.644 308.724 604.92 307.688C605.195 306.653 605.591 305.652 606.107 304.685C606.623 303.695 607.236 302.764 607.945 301.891C608.655 301.018 609.426 300.265 610.258 299.631C611.566 298.631 612.796 298.124 613.948 298.11C614.721 298.508 615.487 299.351 616.247 300.638C616.367 300.637 616.475 300.635 616.571 300.634C616.667 300.609 616.774 300.596 616.894 300.594C618.166 300.579 618.816 301.699 618.843 303.955C618.862 305.467 618.627 306.91 618.14 308.284C617.676 309.633 617.007 310.866 616.133 311.98C615.282 313.095 614.249 314.043 613.035 314.826C611.844 315.585 610.531 316.129 609.094 316.458ZM610.793 305.097C610.391 305.654 610.015 306.258 609.663 306.91C609.31 307.563 609.006 308.227 608.751 308.902C608.495 309.553 608.298 310.191 608.162 310.817C608.025 311.419 607.96 311.96 607.966 312.439C607.973 313.015 608.075 313.566 608.274 314.092C608.472 314.617 608.692 314.915 608.933 314.984C610.01 314.731 610.988 314.275 611.868 313.616C612.772 312.933 613.542 312.096 614.178 311.104C614.838 310.112 615.34 308.99 615.685 307.737C616.054 306.485 616.23 305.151 616.212 303.735C616.205 303.111 616.163 302.619 616.087 302.26C616.01 301.901 615.886 301.59 615.715 301.329C614.663 301.653 613.721 302.169 612.89 302.875C612.082 303.581 611.383 304.321 610.793 305.097ZM626.34 297.527C626.967 297.712 627.56 298.136 628.12 298.802C628.68 299.443 629.097 300.158 629.37 300.947C629.114 301.598 628.716 302.383 628.175 303.301C627.634 304.22 627.093 305.163 626.553 306.129C626.012 307.072 625.519 307.978 625.074 308.847C624.652 309.693 624.409 310.392 624.343 310.944C624.722 310.532 625.137 310.059 625.586 309.525C626.059 308.967 626.509 308.422 626.934 307.889C627.384 307.331 627.798 306.834 628.176 306.398C628.555 305.937 628.851 305.597 629.064 305.379C629.514 304.893 630.047 304.335 630.664 303.703C631.28 303.048 631.921 302.44 632.586 301.88C633.275 301.295 633.965 300.807 634.656 300.414C635.347 299.998 635.981 299.786 636.557 299.779C637.181 299.772 637.699 299.981 638.112 300.408C638.549 300.811 638.89 301.239 639.136 301.692C639.137 301.74 639.041 301.813 638.851 301.912C638.684 301.986 638.434 302.217 638.103 302.605C637.772 303.041 637.396 303.645 636.973 304.419C636.574 305.168 636.176 305.988 635.779 306.881C635.405 307.75 635.092 308.642 634.839 309.557C634.586 310.472 634.464 311.302 634.473 312.046C634.481 312.645 634.557 313.029 634.703 313.195C634.873 313.361 635.102 313.442 635.39 313.439C635.654 313.435 635.93 313.372 636.216 313.248C636.503 313.125 636.73 313.062 636.898 313.06C636.994 313.107 637.068 313.214 637.118 313.382C637.192 313.525 637.229 313.656 637.231 313.776C637.041 313.947 636.815 314.117 636.553 314.288C636.291 314.46 636.017 314.619 635.73 314.766C635.444 314.914 635.158 315.037 634.871 315.137C634.608 315.236 634.369 315.287 634.153 315.29C633.457 315.298 632.88 315.197 632.421 314.987C631.987 314.8 631.635 314.54 631.367 314.207C631.123 313.874 630.951 313.48 630.849 313.026C630.747 312.547 630.693 312.043 630.687 311.515C630.683 311.228 630.703 310.903 630.747 310.543C630.79 310.182 630.881 309.761 631.02 309.279C631.157 308.774 631.354 308.183 631.61 307.508C631.866 306.809 632.191 305.977 632.588 305.012C632.54 305.012 632.218 305.184 631.622 305.528C631.026 305.871 630.384 306.395 629.697 307.099C628.582 308.193 627.575 309.273 626.676 310.34C625.801 311.407 624.903 312.594 623.983 313.901C623.464 314.651 623.004 315.281 622.602 315.79C622.224 316.323 621.893 316.675 621.607 316.846C621.099 316.564 620.722 316.161 620.476 315.636C620.23 315.135 620.043 314.609 619.917 314.058C619.911 313.602 619.964 313.026 620.076 312.328C620.211 311.631 620.382 310.861 620.588 310.018C620.817 309.151 621.094 308.248 621.419 307.308C621.743 306.368 622.104 305.427 622.501 304.486C623.387 302.363 624.195 300.698 624.924 299.489C625.678 298.279 626.15 297.626 626.34 297.527ZM672.058 290.168C672.135 290.575 672.186 290.862 672.212 291.03C672.262 291.173 672.289 291.377 672.292 291.641C672.302 292.433 672.131 293.179 671.779 293.879C671.451 294.555 670.989 295.041 670.393 295.336C669.905 294.694 669.31 294.149 668.609 293.702C667.907 293.23 667.134 292.856 666.291 292.578C665.471 292.276 664.616 292.058 663.727 291.925C662.837 291.792 661.972 291.73 661.132 291.74C660.292 291.751 659.501 291.832 658.759 291.985C658.041 292.114 657.395 292.302 656.822 292.549C656.272 292.771 655.832 293.053 655.5 293.393C655.192 293.733 655.041 294.118 655.046 294.55C655.124 295.078 655.455 295.614 656.038 296.158C656.62 296.679 657.334 297.199 658.181 297.717C659.027 298.21 659.957 298.703 660.971 299.195C662.009 299.686 663.023 300.154 664.012 300.598C665.243 301.159 666.305 301.686 667.199 302.179C668.093 302.649 668.832 303.18 669.415 303.773C669.998 304.342 670.438 304.996 670.735 305.737C671.032 306.477 671.187 307.375 671.2 308.431C671.215 309.655 671.025 310.81 670.63 311.894C670.235 312.955 669.646 313.887 668.864 314.688C668.105 315.489 667.177 316.113 666.078 316.558C664.98 317.027 663.746 317.27 662.379 317.287C661.035 317.303 659.58 317.117 658.015 316.728C656.451 316.339 654.98 315.793 653.603 315.089C652.251 314.41 651.113 313.62 650.19 312.719C649.291 311.794 648.835 310.815 648.822 309.783C648.817 309.303 648.941 308.69 649.196 307.942C649.475 307.195 649.97 306.409 650.68 305.584C650.76 306.303 651.155 307.151 651.863 308.126C652.594 309.101 653.673 310 655.1 310.823C656.429 311.575 657.792 312.122 659.188 312.465C660.608 312.784 661.93 312.936 663.154 312.921C664.498 312.905 665.587 312.724 666.423 312.378C667.259 312.031 667.914 311.627 668.389 311.166C668.863 310.68 669.193 310.196 669.379 309.713C669.565 309.231 669.669 308.846 669.689 308.558C669.659 308.078 669.426 307.625 668.989 307.198C668.575 306.747 668.006 306.322 667.281 305.923C666.58 305.499 665.759 305.077 664.817 304.657C663.876 304.236 662.899 303.816 661.886 303.396C660.366 302.742 659.05 302.134 657.939 301.572C656.852 300.985 655.945 300.396 655.218 299.805C654.514 299.189 653.99 298.548 653.646 297.88C653.326 297.212 653.161 296.445 653.15 295.582C653.134 294.238 653.527 292.961 654.328 291.751C655.129 290.541 656.294 289.615 657.822 288.972C658.586 288.627 659.399 288.377 660.261 288.223C661.148 288.068 662.011 287.985 662.851 287.975C664.435 287.956 665.985 288.153 667.502 288.567C669.019 288.98 670.538 289.514 672.058 290.168ZM671.531 326.357C671.194 326.265 670.997 325.907 670.942 325.284C670.842 324.973 670.765 324.602 670.712 324.17C670.683 323.739 670.665 323.247 670.658 322.695C670.652 322.191 670.728 321.494 670.885 320.604C671.042 319.738 671.258 318.751 671.533 317.644C671.832 316.536 672.189 315.344 672.606 314.067C673.022 312.765 673.486 311.452 673.998 310.125C674.626 308.462 675.172 307.027 675.638 305.821C676.103 304.591 676.486 303.531 676.787 302.639C677.112 301.747 677.367 301.012 677.552 300.434C677.761 299.855 677.923 299.361 678.038 298.952C678.131 298.662 678.271 298.313 678.458 297.902C678.645 297.492 678.856 297.081 679.091 296.671C679.35 296.235 679.609 295.836 679.868 295.473C680.128 295.086 680.364 294.795 680.578 294.6C681.419 294.71 682.214 294.917 682.961 295.219C683.709 295.522 684.169 295.817 684.34 296.103C684.008 296.419 683.63 296.915 683.206 297.593C682.782 298.246 682.371 298.971 681.973 299.768C681.574 300.541 681.212 301.337 680.886 302.157C680.56 302.977 680.316 303.7 680.156 304.326C680.391 303.915 680.697 303.468 681.076 302.983C681.454 302.498 682.034 301.831 682.815 300.982C683.692 300.059 684.512 299.353 685.274 298.864C686.06 298.35 686.741 298.09 687.317 298.083C688.229 298.072 688.976 298.315 689.558 298.812C690.164 299.308 690.472 299.953 690.481 300.745C690.502 302.472 690.235 304.192 689.68 305.903C689.124 307.59 688.315 309.123 687.251 310.505C686.85 311.037 686.376 311.547 685.83 312.034C685.284 312.521 684.713 312.96 684.118 313.351C683.522 313.718 682.938 314.013 682.364 314.236C681.791 314.459 681.276 314.573 680.82 314.579C680.388 314.584 680.003 314.505 679.665 314.341C679.351 314.153 679.132 313.927 679.009 313.665C679.938 313.102 680.841 312.322 681.717 311.328C682.593 310.333 683.395 309.195 684.124 307.914C684.876 306.609 685.519 305.209 686.053 303.715C686.611 302.22 687.024 300.703 687.294 299.163C686.388 299.654 685.566 300.192 684.829 300.777C684.116 301.338 683.405 302.079 682.696 302.999C681.845 304.066 681.171 304.926 680.675 305.58C680.179 306.234 679.766 306.791 679.435 307.251C679.129 307.711 678.87 308.146 678.659 308.557C678.472 308.943 678.262 309.426 678.029 310.004C677.702 310.776 677.318 311.801 676.878 313.079C676.461 314.332 676.022 315.741 675.561 317.307C675.124 318.872 674.676 320.534 674.218 322.292C673.783 324.073 673.361 325.842 672.95 327.599C672.685 327.555 672.455 327.365 672.259 327.032C672.064 326.818 671.919 326.664 671.821 326.569C671.748 326.474 671.651 326.403 671.531 326.357ZM704.648 299.132C704.57 300.621 704.322 301.909 703.903 302.994C703.484 304.055 702.871 304.998 702.065 305.824C701.283 306.626 700.32 307.358 699.176 308.02C698.032 308.681 696.695 309.322 695.167 309.94C695.169 310.084 695.158 310.24 695.137 310.409C695.138 310.553 695.14 310.709 695.142 310.877C695.146 311.189 695.174 311.512 695.226 311.848C695.278 312.183 695.366 312.494 695.489 312.781C695.613 313.067 695.784 313.305 696.002 313.494C696.22 313.66 696.497 313.74 696.833 313.736C697.481 313.729 698.115 313.577 698.736 313.281C699.356 312.986 699.94 312.631 700.487 312.216C701.058 311.777 701.58 311.315 702.054 310.829C702.552 310.319 702.99 309.857 703.369 309.445C703.612 309.658 703.818 309.859 703.989 310.049C702.926 311.502 701.753 312.717 700.469 313.692C699.208 314.644 698.004 315.258 696.855 315.536C695.197 315.364 693.894 314.78 692.945 313.784C692.021 312.763 691.55 311.532 691.532 310.092C691.52 309.109 691.64 308.111 691.892 307.1C692.168 306.064 692.54 305.076 693.008 304.134C693.5 303.168 694.066 302.261 694.703 301.413C695.365 300.565 696.064 299.825 696.8 299.192C697.561 298.558 698.335 298.057 699.122 297.687C699.934 297.318 700.736 297.128 701.528 297.118C702.633 297.249 703.673 297.92 704.648 299.132ZM702.179 300.35C701.532 300.454 700.863 300.726 700.173 301.167C699.482 301.607 698.829 302.191 698.214 302.919C697.623 303.646 697.081 304.493 696.589 305.459C696.096 306.425 695.713 307.462 695.438 308.569C697.346 307.586 698.928 306.39 700.183 304.983C701.438 303.552 702.103 302.008 702.179 300.35ZM706.635 307.677C706.618 306.309 706.878 304.986 707.415 303.707C707.975 302.404 708.705 301.255 709.605 300.26C710.529 299.241 711.575 298.424 712.744 297.81C713.936 297.171 715.168 296.844 716.44 296.829C717.688 296.814 718.652 297.114 719.331 297.73C720.011 298.346 720.357 299.23 720.371 300.382C720.378 300.934 720.301 301.475 720.139 302.005C720.001 302.51 719.803 302.969 719.544 303.38C719.309 303.791 719.025 304.13 718.692 304.398C718.359 304.642 718.024 304.766 717.688 304.77C717.4 304.774 717.099 304.694 716.785 304.529C716.495 304.341 716.252 304.104 716.057 303.818C717.647 302.335 718.435 300.993 718.42 299.793C718.412 299.097 718.131 298.753 717.579 298.759C717.099 298.765 716.502 299 715.788 299.465C715.073 299.93 714.385 300.538 713.722 301.29C712.704 302.455 711.928 303.748 711.393 305.171C710.882 306.569 710.636 308.036 710.654 309.572C710.678 311.516 711.124 312.675 711.993 313.048C712.352 312.996 712.771 312.883 713.248 312.709C713.726 312.535 714.24 312.313 714.788 312.042C715.337 311.748 715.897 311.417 716.469 311.05C717.064 310.682 717.635 310.292 718.182 309.877C718.279 309.948 718.365 310.055 718.438 310.198C718.512 310.341 718.55 310.472 718.551 310.592C718.149 311.101 717.687 311.599 717.165 312.085C716.643 312.572 716.096 313.022 715.525 313.437C714.954 313.828 714.394 314.159 713.845 314.43C713.321 314.724 712.855 314.91 712.448 314.987C711.655 314.924 710.908 314.682 710.207 314.258C709.506 313.859 708.888 313.326 708.352 312.66C707.839 311.995 707.422 311.232 707.1 310.371C706.801 309.511 706.646 308.613 706.635 307.677ZM721.619 311.419C721.616 311.203 721.625 310.939 721.645 310.627C721.689 310.29 721.756 309.857 721.845 309.328C721.935 308.775 722.047 308.114 722.181 307.344C722.34 306.574 722.533 305.648 722.759 304.565C722.805 304.324 722.908 303.939 723.069 303.409C723.231 302.879 723.44 302.324 723.697 301.745C723.978 301.142 724.307 300.562 724.684 300.005C725.086 299.448 725.561 299.034 726.109 298.764C726.518 298.855 727.061 299.1 727.738 299.5C728.415 299.876 728.997 300.409 729.486 301.099C728.941 301.73 728.481 302.359 728.105 302.988C727.752 303.616 727.424 304.268 727.12 304.944C726.841 305.619 726.573 306.319 726.318 307.042C726.087 307.765 725.82 308.524 725.517 309.32C725.262 309.995 725.03 310.694 724.823 311.416C724.615 312.115 724.503 312.728 724.485 313.257C724.49 313.689 724.482 313.989 724.46 314.157C724.462 314.349 724.404 314.446 724.284 314.447C724.188 314.448 723.995 314.391 723.705 314.274C723.416 314.158 723.114 313.981 722.799 313.745C722.508 313.485 722.24 313.164 721.995 312.783C721.751 312.402 721.625 311.947 721.619 311.419ZM728.304 295.713C728.303 295.569 728.336 295.352 728.405 295.064C728.283 294.945 728.173 294.766 728.074 294.528C727.999 294.288 727.96 294.073 727.958 293.881C727.955 293.665 727.976 293.377 728.02 293.016C728.087 292.631 728.166 292.222 728.257 291.789C728.347 291.356 728.462 290.911 728.601 290.453C728.739 289.971 728.877 289.537 729.017 289.152C729.305 289.148 729.654 289.228 730.064 289.391C730.497 289.53 730.932 289.729 731.367 289.987C731.802 290.222 732.201 290.493 732.565 290.801C732.929 291.084 733.208 291.357 733.403 291.619C733.142 291.886 732.799 292.262 732.373 292.747C731.946 293.208 731.532 293.706 731.131 294.238C730.729 294.747 730.363 295.232 730.032 295.692C729.702 296.152 729.49 296.479 729.396 296.672C729.108 296.627 728.854 296.51 728.636 296.321C728.417 296.108 728.307 295.905 728.304 295.713ZM742.362 299.034C742.602 299.032 742.878 299.076 743.191 299.168C743.528 299.236 743.829 299.341 744.095 299.481C744.361 299.598 744.578 299.728 744.748 299.87C744.942 300.011 745.039 300.142 745.041 300.262C744.573 301.276 744.141 302.301 743.746 303.338C743.35 304.351 743.014 305.327 742.737 306.266C742.461 307.206 742.243 308.085 742.085 308.903C741.951 309.72 741.888 310.429 741.895 311.029C741.903 311.701 741.982 312.264 742.132 312.718C742.281 313.148 742.525 313.458 742.863 313.645C742.577 313.841 742.207 314.001 741.753 314.127C741.298 314.252 740.891 314.317 740.531 314.322C739.235 314.338 738.576 313.457 738.555 311.682C738.538 310.314 738.971 308.436 739.855 306.049C739.388 307.159 738.849 308.21 738.237 309.201C737.624 310.169 736.999 311.028 736.36 311.78C735.721 312.532 735.068 313.152 734.402 313.64C733.76 314.104 733.163 314.387 732.613 314.49C731.724 314.453 730.999 314.042 730.437 313.256C729.876 312.447 729.587 311.418 729.572 310.171C729.556 308.827 729.826 307.407 730.384 305.912C730.942 304.417 731.657 303.029 732.53 301.746C733.426 300.463 734.397 299.395 735.443 298.542C736.489 297.666 737.503 297.197 738.486 297.137C738.727 297.206 738.993 297.347 739.283 297.56C739.598 297.772 739.889 298.02 740.157 298.305C740.448 298.59 740.692 298.887 740.887 299.196C741.083 299.482 741.194 299.733 741.221 299.948C740.262 300.104 739.272 300.584 738.25 301.389C737.252 302.193 736.339 303.164 735.513 304.302C734.71 305.416 734.053 306.612 733.54 307.89C733.028 309.169 732.778 310.36 732.792 311.464C732.797 311.92 732.969 312.205 733.306 312.321C734 312.169 734.797 311.571 735.697 310.528C736.596 309.461 737.68 307.828 738.949 305.628C739.184 305.193 739.442 304.71 739.724 304.179C740.029 303.647 740.335 303.091 740.64 302.512C740.945 301.932 741.238 301.352 741.519 300.773C741.823 300.169 742.104 299.59 742.362 299.034ZM746.964 311.219C746.951 310.164 747.185 308.685 747.666 306.783C748.147 304.857 748.828 302.616 749.709 300.061C751.147 295.988 752.498 292.599 753.762 289.895C755.049 287.167 756.307 285.04 757.536 283.513C757.825 283.558 758.174 283.673 758.585 283.86C759.019 284.047 759.442 284.258 759.852 284.493C760.263 284.704 760.626 284.928 760.941 285.164C761.28 285.4 761.498 285.589 761.596 285.732C759.751 287.962 758.136 290.358 756.751 292.919C755.366 295.48 754.105 298.412 752.969 301.714C751.996 304.558 751.259 307.123 750.758 309.409C750.258 311.671 750.017 313.559 750.035 315.07C750.04 315.478 750.043 315.73 750.044 315.826C750.045 315.922 750.059 316.018 750.084 316.114C749.747 316.07 749.458 315.99 749.217 315.872C748.975 315.755 748.818 315.613 748.743 315.446C748.694 315.327 748.56 315.148 748.341 314.911C748.122 314.698 747.928 314.532 747.759 314.414C747.541 314.273 747.357 313.903 747.205 313.305C747.054 312.682 746.973 311.987 746.964 311.219ZM755.542 311.007C755.539 310.791 755.548 310.527 755.568 310.215C755.612 309.878 755.679 309.445 755.769 308.916C755.858 308.363 755.97 307.702 756.104 306.932C756.263 306.162 756.456 305.236 756.683 304.153C756.728 303.912 756.831 303.527 756.993 302.997C757.154 302.467 757.364 301.912 757.621 301.333C757.901 300.73 758.23 300.15 758.608 299.593C759.009 299.036 759.484 298.622 760.033 298.352C760.442 298.443 760.985 298.688 761.662 299.088C762.338 299.464 762.921 299.997 763.409 300.687C762.865 301.318 762.404 301.947 762.028 302.576C761.676 303.204 761.347 303.856 761.044 304.532C760.764 305.207 760.496 305.907 760.241 306.63C760.01 307.353 759.743 308.112 759.441 308.908C759.185 309.583 758.953 310.282 758.746 311.004C758.539 311.703 758.426 312.316 758.408 312.845C758.414 313.277 758.405 313.577 758.383 313.745C758.386 313.937 758.327 314.034 758.207 314.035C758.111 314.036 757.918 313.979 757.629 313.862C757.339 313.746 757.037 313.569 756.722 313.333C756.431 313.073 756.163 312.752 755.918 312.371C755.674 311.99 755.548 311.535 755.542 311.007ZM762.228 295.301C762.226 295.157 762.259 294.94 762.328 294.652C762.206 294.533 762.096 294.354 761.997 294.116C761.922 293.877 761.884 293.661 761.881 293.469C761.879 293.253 761.899 292.965 761.943 292.604C762.01 292.219 762.089 291.81 762.18 291.377C762.271 290.944 762.385 290.499 762.524 290.041C762.662 289.559 762.801 289.125 762.94 288.74C763.228 288.736 763.577 288.816 763.987 288.979C764.421 289.118 764.855 289.317 765.29 289.575C765.725 289.81 766.125 290.081 766.488 290.389C766.852 290.672 767.131 290.945 767.326 291.207C767.066 291.474 766.722 291.85 766.296 292.335C765.87 292.796 765.456 293.294 765.054 293.826C764.652 294.335 764.286 294.82 763.956 295.28C763.625 295.74 763.413 296.067 763.319 296.26C763.031 296.215 762.777 296.098 762.559 295.909C762.34 295.696 762.23 295.493 762.228 295.301ZM776.287 298.838C776.269 299.295 776.191 299.776 776.053 300.281C775.939 300.763 775.788 301.209 775.601 301.619C775.414 302.005 775.214 302.332 775.001 302.598C774.788 302.865 774.586 302.999 774.394 303.002C774.13 302.981 773.971 302.803 773.919 302.467C773.918 302.395 773.941 302.287 773.987 302.143C774.057 301.974 774.127 301.793 774.197 301.6C774.267 301.407 774.324 301.214 774.37 301.022C774.44 300.829 774.473 300.661 774.472 300.517C774.468 300.181 774.38 299.906 774.21 299.692C774.063 299.453 773.857 299.336 773.593 299.339C772.633 299.351 771.909 299.96 771.419 301.166C770.93 302.372 770.699 304.139 770.728 306.467C770.731 306.706 770.744 306.85 770.769 306.898C771.273 306.868 771.716 306.851 772.1 306.846C772.508 306.817 772.904 306.8 773.288 306.795C773.312 306.843 773.326 306.939 773.327 307.083C773.33 307.299 773.284 307.456 773.189 307.553C772.639 307.679 772.196 307.793 771.861 307.893C771.55 307.969 771.311 308.044 771.144 308.118C770.977 308.192 770.87 308.277 770.823 308.373C770.8 308.446 770.789 308.554 770.791 308.698C770.793 308.89 770.795 309.082 770.798 309.274C770.824 309.466 770.839 309.705 770.843 309.993C770.867 312.009 770.335 313.636 769.246 314.873C768.181 316.11 766.677 316.836 764.736 317.052C764.4 317.032 764.05 316.94 763.688 316.777C763.326 316.613 762.976 316.401 762.637 316.141C762.321 315.881 762.042 315.585 761.798 315.252C761.554 314.943 761.382 314.621 761.282 314.286C761.271 313.374 761.452 312.508 761.826 311.687C762.2 310.842 762.707 310.104 763.348 309.472C764.012 308.816 764.785 308.291 765.669 307.896C766.576 307.477 767.557 307.225 768.612 307.14C768.604 306.54 768.537 305.953 768.41 305.379C768.283 304.804 768.145 304.254 767.994 303.728C767.868 303.177 767.741 302.65 767.615 302.148C767.489 301.621 767.422 301.106 767.416 300.602C767.408 299.954 767.533 299.317 767.789 298.69C768.045 298.038 768.386 297.446 768.812 296.913C769.237 296.356 769.735 295.882 770.306 295.491C770.878 295.1 771.474 294.829 772.097 294.677C772.361 294.746 772.712 294.958 773.148 295.312C773.608 295.643 774.057 296.021 774.494 296.448C774.932 296.875 775.321 297.314 775.662 297.766C776.004 298.194 776.212 298.551 776.287 298.838ZM764.608 315.397C765.181 315.151 765.716 314.796 766.215 314.334C766.737 313.872 767.187 313.35 767.564 312.769C767.941 312.189 768.234 311.573 768.442 310.923C768.674 310.272 768.786 309.634 768.778 309.01C768.299 309.088 767.774 309.323 767.203 309.714C766.631 310.081 766.097 310.531 765.599 311.065C765.101 311.575 764.688 312.108 764.358 312.664C764.029 313.22 763.867 313.702 763.872 314.11C763.878 314.638 764.124 315.067 764.608 315.397ZM778.443 299.352C778.321 299.21 778.21 298.911 778.108 298.456C778.006 297.977 777.954 297.57 777.949 297.234C778.574 297.275 779.175 297.315 779.751 297.356C780.327 297.373 780.856 297.391 781.336 297.409C781.687 296.685 782.062 295.972 782.462 295.271C782.885 294.546 783.285 293.893 783.662 293.312C784.063 292.708 784.429 292.199 784.76 291.787C785.115 291.375 785.388 291.107 785.578 290.985C785.818 290.982 786.119 291.026 786.48 291.118C786.865 291.185 787.25 291.289 787.636 291.428C788.021 291.543 788.371 291.671 788.684 291.811C788.998 291.952 789.216 292.093 789.338 292.235C788.629 293.156 788.015 294.016 787.497 294.814C787.002 295.588 786.461 296.483 785.873 297.498C786.353 297.492 786.833 297.474 787.313 297.444C787.816 297.414 788.32 297.372 788.823 297.318C788.945 297.437 789.043 297.591 789.117 297.783C789.191 297.95 789.229 298.129 789.231 298.321C788.061 298.767 786.636 299.025 784.957 299.093C784.371 300.252 783.845 301.411 783.379 302.569C782.936 303.702 782.554 304.799 782.23 305.859C781.931 306.918 781.691 307.917 781.511 308.856C781.354 309.794 781.28 310.635 781.289 311.379C781.302 312.435 781.705 313.018 782.499 313.128C783.218 313.023 783.899 312.835 784.544 312.563C785.189 312.291 785.761 311.948 786.26 311.534C786.406 311.749 786.492 311.927 786.518 312.071C786.377 312.289 786.128 312.544 785.771 312.836C785.439 313.128 785.07 313.409 784.666 313.678C784.261 313.971 783.868 314.216 783.486 314.412C783.105 314.609 782.818 314.72 782.626 314.747C782.026 314.73 781.425 314.605 780.822 314.373C780.219 314.14 779.663 313.847 779.155 313.493C778.671 313.139 778.27 312.747 777.953 312.319C777.635 311.867 777.474 311.425 777.468 310.993C777.461 310.417 777.525 309.696 777.658 308.831C777.815 307.941 778.032 306.978 778.307 305.942C778.583 304.907 778.906 303.823 779.276 302.69C779.646 301.558 780.052 300.437 780.495 299.327L778.443 299.352Z" fill="#9979C1"/>
<path d="M69.784 303.664C69.784 308.187 67.8427 311.771 63.96 314.416C60.12 317.019 54.488 318.405 47.064 318.576V331.696L54.04 331.76V334H33.304V331.76L36.44 331.696V293.424L33.304 293.36V291.12L45.656 291.248L55.192 290.8C58.264 290.8 60.888 291.376 63.064 292.528C65.2827 293.68 66.9467 295.237 68.056 297.2C69.208 299.163 69.784 301.317 69.784 303.664ZM58.392 305.52C58.392 303.259 57.9013 301.211 56.92 299.376C55.9387 297.499 54.5733 296.027 52.824 294.96C51.1173 293.893 49.1973 293.36 47.064 293.36V316.08C50.6053 315.867 53.3787 314.843 55.384 313.008C57.3893 311.131 58.392 308.635 58.392 305.52ZM71.9705 332.144L74.3385 331.952L74.0185 293.616L71.5865 294.128L70.9465 292.272L82.7865 288.688L83.6825 290.224L83.3625 331.952L85.7305 332.144V334H71.9705V332.144ZM102.567 304.24C106.322 304.24 109.266 305.605 111.399 308.336C113.575 311.024 114.642 314.672 114.599 319.28L96.935 319.856C97.2337 322.373 98.1083 324.293 99.559 325.616C101.01 326.939 102.93 327.6 105.319 327.6C108.647 327.6 111.356 326.683 113.447 324.848L114.599 325.872C113.106 328.731 111.079 330.971 108.519 332.592C106.002 334.171 103.314 334.96 100.455 334.96C96.5723 334.96 93.479 333.68 91.175 331.12C88.9137 328.517 87.783 325.019 87.783 320.624C87.783 318.021 88.295 315.44 89.319 312.88C90.3857 310.32 91.7297 308.187 93.351 306.48C94.4603 305.84 95.8897 305.307 97.639 304.88C99.3883 304.453 101.031 304.24 102.567 304.24ZM105.127 317.168C105.084 314.181 104.658 311.813 103.847 310.064C103.036 308.315 101.884 307.269 100.391 306.928C99.3243 308.037 98.4497 309.595 97.767 311.6C97.127 313.563 96.807 315.589 96.807 317.68V317.872L105.127 317.168ZM142.642 330.672L133.234 335.088C132.082 334.277 131.293 333.168 130.866 331.76C129.33 332.699 127.773 333.467 126.194 334.064C124.658 334.661 123.314 334.96 122.162 334.96C120.413 334.96 118.983 334.341 117.874 333.104C116.765 331.867 116.21 330.288 116.21 328.368C116.21 327.515 116.295 326.597 116.466 325.616C116.679 324.592 116.935 323.781 117.234 323.184L130.802 321.008L130.93 319.152C131.015 317.232 130.61 315.739 129.714 314.672C128.818 313.563 127.367 313.008 125.362 313.008C124.466 313.008 123.527 313.115 122.546 313.328C121.565 313.499 120.733 313.733 120.05 314.032L119.026 316.208L117.298 315.568L120.242 306.352C123.527 304.944 126.642 304.24 129.586 304.24C132.615 304.24 135.09 305.051 137.01 306.672C138.93 308.251 139.89 310.747 139.89 314.16L139.826 315.44L139.186 324.08L139.058 326.384C139.058 327.152 139.122 327.771 139.25 328.24C139.378 328.667 139.591 329.115 139.89 329.584L141.874 328.816L142.642 330.672ZM128.114 330.352C128.797 330.352 129.586 330.096 130.482 329.584L130.418 328.24L130.482 326.832L130.674 323.184L125.746 324.336C125.575 324.891 125.49 325.637 125.49 326.576C125.49 327.856 125.746 328.816 126.258 329.456C126.77 330.053 127.389 330.352 128.114 330.352ZM153.505 310C153.505 311.152 153.953 312.197 154.849 313.136C155.788 314.075 157.196 315.184 159.073 316.464C161.377 318.043 163.126 319.472 164.321 320.752C165.516 322.032 166.113 323.611 166.113 325.488C166.113 327.152 165.622 328.709 164.641 330.16C163.66 331.611 162.273 332.784 160.481 333.68C158.689 334.533 156.641 334.96 154.337 334.96C152.118 334.96 150.006 334.427 148.001 333.36C146.038 332.293 144.588 330.928 143.649 329.264L149.153 324.848C150.86 328.048 152.609 330.672 154.401 332.72C155.126 332.165 155.724 331.525 156.193 330.8C156.705 330.032 156.961 329.285 156.961 328.56C156.961 327.365 156.513 326.341 155.617 325.488C154.764 324.592 153.42 323.525 151.585 322.288C150.092 321.307 148.897 320.453 148.001 319.728C147.105 319.003 146.337 318.128 145.697 317.104C145.1 316.08 144.801 314.928 144.801 313.648C144.801 312.069 145.313 310.555 146.337 309.104C147.404 307.653 148.876 306.48 150.753 305.584C152.63 304.688 154.764 304.24 157.153 304.24C158.988 304.24 160.716 304.645 162.337 305.456C164.001 306.224 165.345 307.205 166.369 308.4L161.377 313.328C159.329 310.725 157.068 308.4 154.593 306.352C153.868 307.291 153.505 308.507 153.505 310ZM151.393 334H151.457H151.393ZM183.442 304.24C187.197 304.24 190.141 305.605 192.274 308.336C194.45 311.024 195.517 314.672 195.474 319.28L177.81 319.856C178.109 322.373 178.983 324.293 180.434 325.616C181.885 326.939 183.805 327.6 186.194 327.6C189.522 327.6 192.231 326.683 194.322 324.848L195.474 325.872C193.981 328.731 191.954 330.971 189.394 332.592C186.877 334.171 184.189 334.96 181.33 334.96C177.447 334.96 174.354 333.68 172.05 331.12C169.789 328.517 168.658 325.019 168.658 320.624C168.658 318.021 169.17 315.44 170.194 312.88C171.261 310.32 172.605 308.187 174.226 306.48C175.335 305.84 176.765 305.307 178.514 304.88C180.263 304.453 181.906 304.24 183.442 304.24ZM186.002 317.168C185.959 314.181 185.533 311.813 184.722 310.064C183.911 308.315 182.759 307.269 181.266 306.928C180.199 308.037 179.325 309.595 178.642 311.6C178.002 313.563 177.682 315.589 177.682 317.68V317.872L186.002 317.168ZM198.429 326.256L206.109 324.528V329.904L200.669 341.168L198.365 341.488L198.429 326.256ZM267.627 305.2V307.248L265.771 307.312L255.979 333.616L249.643 334L243.307 316.4L237.291 333.616L230.827 334L220.779 307.312L218.922 307.248V305.2H234.219V307.248L231.723 307.312L236.907 326.256L240.363 307.312L238.187 307.248V305.2H252.843V307.248L250.667 307.312L255.722 326.064L259.307 307.312L256.811 307.248V305.2H267.627ZM292.455 330.672L283.047 335.088C281.895 334.277 281.105 333.168 280.679 331.76C279.143 332.699 277.585 333.467 276.007 334.064C274.471 334.661 273.127 334.96 271.975 334.96C270.225 334.96 268.796 334.341 267.687 333.104C266.577 331.867 266.023 330.288 266.023 328.368C266.023 327.515 266.108 326.597 266.279 325.616C266.492 324.592 266.748 323.781 267.047 323.184L280.615 321.008L280.743 319.152C280.828 317.232 280.423 315.739 279.527 314.672C278.631 313.563 277.18 313.008 275.175 313.008C274.279 313.008 273.34 313.115 272.359 313.328C271.377 313.499 270.545 313.733 269.863 314.032L268.839 316.208L267.111 315.568L270.055 306.352C273.34 304.944 276.455 304.24 279.399 304.24C282.428 304.24 284.903 305.051 286.823 306.672C288.743 308.251 289.703 310.747 289.703 314.16L289.639 315.44L288.999 324.08L288.871 326.384C288.871 327.152 288.935 327.771 289.063 328.24C289.191 328.667 289.404 329.115 289.703 329.584L291.687 328.816L292.455 330.672ZM277.927 330.352C278.609 330.352 279.399 330.096 280.295 329.584L280.231 328.24L280.295 326.832L280.487 323.184L275.559 324.336C275.388 324.891 275.303 325.637 275.303 326.576C275.303 327.856 275.559 328.816 276.071 329.456C276.583 330.053 277.201 330.352 277.927 330.352ZM297.43 291.696L305.622 289.84V297.136L297.43 298.352V291.696ZM306.262 331.952L308.63 332.144V334H294.87V332.144L297.238 331.952L297.046 309.168L294.614 309.68L293.974 307.824L305.558 304.24L306.454 305.776L306.262 331.952ZM331.445 328.944L323.637 334.576C320.479 334.576 318.175 333.808 316.725 332.272C315.317 330.693 314.613 328.176 314.613 324.72V307.696H310.325V305.648C312.117 304.667 314.058 303.28 316.149 301.488C318.282 299.653 320.223 297.733 321.973 295.728L324.085 296.368L323.765 305.2H331.253V307.888L323.637 307.76V322.48C323.637 324.528 324.021 326.021 324.789 326.96C325.599 327.899 326.666 328.368 327.989 328.368L330.357 327.024L331.445 328.944ZM333.678 326.32L343.022 324.208V333.296L333.678 334.704V326.32ZM347.803 326.32L357.147 324.208V333.296L347.803 334.704V326.32ZM361.928 326.32L371.272 324.208V333.296L361.928 334.704V326.32Z" fill="#F89439"/>
</svg>
